%TF.GenerationSoftware,KiCad,Pcbnew,6.0.6*%
%TF.CreationDate,2022-07-12T15:38:02+02:00*%
%TF.ProjectId,pcb_rs485,7063625f-7273-4343-9835-2e6b69636164,rev?*%
%TF.SameCoordinates,Original*%
%TF.FileFunction,Copper,L1,Top*%
%TF.FilePolarity,Positive*%
%FSLAX46Y46*%
G04 Gerber Fmt 4.6, Leading zero omitted, Abs format (unit mm)*
G04 Created by KiCad (PCBNEW 6.0.6) date 2022-07-12 15:38:02*
%MOMM*%
%LPD*%
G01*
G04 APERTURE LIST*
%ADD10C,0.300000*%
%TA.AperFunction,NonConductor*%
%ADD11C,0.300000*%
%TD*%
%TA.AperFunction,ComponentPad*%
%ADD12R,1.524000X1.524000*%
%TD*%
%TA.AperFunction,ComponentPad*%
%ADD13C,2.400000*%
%TD*%
%TA.AperFunction,ComponentPad*%
%ADD14O,2.400000X2.400000*%
%TD*%
%TA.AperFunction,ComponentPad*%
%ADD15R,1.700000X1.700000*%
%TD*%
%TA.AperFunction,ComponentPad*%
%ADD16O,1.700000X1.700000*%
%TD*%
%TA.AperFunction,ComponentPad*%
%ADD17R,2.000000X2.000000*%
%TD*%
%TA.AperFunction,ComponentPad*%
%ADD18C,2.000000*%
%TD*%
%TA.AperFunction,Conductor*%
%ADD19C,1.000000*%
%TD*%
G04 APERTURE END LIST*
D10*
D11*
X144538571Y-97198571D02*
X144538571Y-95698571D01*
X145181428Y-97198571D02*
X145181428Y-96412857D01*
X145110000Y-96270000D01*
X144967142Y-96198571D01*
X144752857Y-96198571D01*
X144610000Y-96270000D01*
X144538571Y-96341428D01*
X145752857Y-96198571D02*
X146110000Y-97198571D01*
X146467142Y-96198571D02*
X146110000Y-97198571D01*
X145967142Y-97555714D01*
X145895714Y-97627142D01*
X145752857Y-97698571D01*
X147681428Y-97198571D02*
X147681428Y-95698571D01*
X147681428Y-97127142D02*
X147538571Y-97198571D01*
X147252857Y-97198571D01*
X147110000Y-97127142D01*
X147038571Y-97055714D01*
X146967142Y-96912857D01*
X146967142Y-96484285D01*
X147038571Y-96341428D01*
X147110000Y-96270000D01*
X147252857Y-96198571D01*
X147538571Y-96198571D01*
X147681428Y-96270000D01*
X148395714Y-97198571D02*
X148395714Y-96198571D01*
X148395714Y-96484285D02*
X148467142Y-96341428D01*
X148538571Y-96270000D01*
X148681428Y-96198571D01*
X148824285Y-96198571D01*
X149538571Y-97198571D02*
X149395714Y-97127142D01*
X149324285Y-97055714D01*
X149252857Y-96912857D01*
X149252857Y-96484285D01*
X149324285Y-96341428D01*
X149395714Y-96270000D01*
X149538571Y-96198571D01*
X149752857Y-96198571D01*
X149895714Y-96270000D01*
X149967142Y-96341428D01*
X150038571Y-96484285D01*
X150038571Y-96912857D01*
X149967142Y-97055714D01*
X149895714Y-97127142D01*
X149752857Y-97198571D01*
X149538571Y-97198571D01*
X150538571Y-96198571D02*
X150895714Y-97198571D01*
X151252857Y-96198571D01*
X151824285Y-97198571D02*
X151824285Y-96198571D01*
X151824285Y-95698571D02*
X151752857Y-95770000D01*
X151824285Y-95841428D01*
X151895714Y-95770000D01*
X151824285Y-95698571D01*
X151824285Y-95841428D01*
X152538571Y-96198571D02*
X152538571Y-97198571D01*
X152538571Y-96341428D02*
X152610000Y-96270000D01*
X152752857Y-96198571D01*
X152967142Y-96198571D01*
X153110000Y-96270000D01*
X153181428Y-96412857D01*
X153181428Y-97198571D01*
X154538571Y-97127142D02*
X154395714Y-97198571D01*
X154110000Y-97198571D01*
X153967142Y-97127142D01*
X153895714Y-97055714D01*
X153824285Y-96912857D01*
X153824285Y-96484285D01*
X153895714Y-96341428D01*
X153967142Y-96270000D01*
X154110000Y-96198571D01*
X154395714Y-96198571D01*
X154538571Y-96270000D01*
X155181428Y-97198571D02*
X155181428Y-96198571D01*
X155181428Y-95698571D02*
X155110000Y-95770000D01*
X155181428Y-95841428D01*
X155252857Y-95770000D01*
X155181428Y-95698571D01*
X155181428Y-95841428D01*
D10*
D11*
X182288571Y-112120000D02*
X180788571Y-112120000D01*
X181502857Y-112120000D02*
X181502857Y-111262857D01*
X182288571Y-111262857D02*
X180788571Y-111262857D01*
X181574285Y-110262857D02*
X182288571Y-110262857D01*
X180788571Y-110762857D02*
X181574285Y-110262857D01*
X180788571Y-109762857D01*
X182288571Y-109262857D02*
X180788571Y-109262857D01*
X180788571Y-108905714D01*
X180860000Y-108691428D01*
X181002857Y-108548571D01*
X181145714Y-108477142D01*
X181431428Y-108405714D01*
X181645714Y-108405714D01*
X181931428Y-108477142D01*
X182074285Y-108548571D01*
X182217142Y-108691428D01*
X182288571Y-108905714D01*
X182288571Y-109262857D01*
X182288571Y-106905714D02*
X181574285Y-107405714D01*
X182288571Y-107762857D02*
X180788571Y-107762857D01*
X180788571Y-107191428D01*
X180860000Y-107048571D01*
X180931428Y-106977142D01*
X181074285Y-106905714D01*
X181288571Y-106905714D01*
X181431428Y-106977142D01*
X181502857Y-107048571D01*
X181574285Y-107191428D01*
X181574285Y-107762857D01*
X180788571Y-105977142D02*
X180788571Y-105691428D01*
X180860000Y-105548571D01*
X181002857Y-105405714D01*
X181288571Y-105334285D01*
X181788571Y-105334285D01*
X182074285Y-105405714D01*
X182217142Y-105548571D01*
X182288571Y-105691428D01*
X182288571Y-105977142D01*
X182217142Y-106120000D01*
X182074285Y-106262857D01*
X181788571Y-106334285D01*
X181288571Y-106334285D01*
X181002857Y-106262857D01*
X180860000Y-106120000D01*
X180788571Y-105977142D01*
X180788571Y-104905714D02*
X182288571Y-104405714D01*
X180788571Y-103905714D01*
X182288571Y-103405714D02*
X180788571Y-103405714D01*
X182288571Y-102691428D02*
X180788571Y-102691428D01*
X182288571Y-101834285D01*
X180788571Y-101834285D01*
X182145714Y-100262857D02*
X182217142Y-100334285D01*
X182288571Y-100548571D01*
X182288571Y-100691428D01*
X182217142Y-100905714D01*
X182074285Y-101048571D01*
X181931428Y-101120000D01*
X181645714Y-101191428D01*
X181431428Y-101191428D01*
X181145714Y-101120000D01*
X181002857Y-101048571D01*
X180860000Y-100905714D01*
X180788571Y-100691428D01*
X180788571Y-100548571D01*
X180860000Y-100334285D01*
X180931428Y-100262857D01*
X182288571Y-99620000D02*
X180788571Y-99620000D01*
X180788571Y-97977142D02*
X182288571Y-97477142D01*
X180788571Y-96977142D01*
X182288571Y-95691428D02*
X182288571Y-96548571D01*
X182288571Y-96120000D02*
X180788571Y-96120000D01*
X181002857Y-96262857D01*
X181145714Y-96405714D01*
X181217142Y-96548571D01*
X182145714Y-95048571D02*
X182217142Y-94977142D01*
X182288571Y-95048571D01*
X182217142Y-95120000D01*
X182145714Y-95048571D01*
X182288571Y-95048571D01*
X180788571Y-94048571D02*
X180788571Y-93905714D01*
X180860000Y-93762857D01*
X180931428Y-93691428D01*
X181074285Y-93620000D01*
X181360000Y-93548571D01*
X181717142Y-93548571D01*
X182002857Y-93620000D01*
X182145714Y-93691428D01*
X182217142Y-93762857D01*
X182288571Y-93905714D01*
X182288571Y-94048571D01*
X182217142Y-94191428D01*
X182145714Y-94262857D01*
X182002857Y-94334285D01*
X181717142Y-94405714D01*
X181360000Y-94405714D01*
X181074285Y-94334285D01*
X180931428Y-94262857D01*
X180860000Y-94191428D01*
X180788571Y-94048571D01*
D12*
%TO.P,U2,1,RO*%
%TO.N,/TX*%
X167640000Y-113030000D03*
%TO.P,U2,2,RE*%
%TO.N,/ENABLE*%
X167640000Y-110490000D03*
%TO.P,U2,3,DE*%
X167640000Y-107950000D03*
%TO.P,U2,4,DI*%
%TO.N,/RX*%
X167640000Y-105410000D03*
%TO.P,U2,5,VCC*%
%TO.N,+5V*%
X124460000Y-113030000D03*
%TO.P,U2,6,B*%
%TO.N,unconnected-(U2-Pad6)*%
X124460000Y-110490000D03*
%TO.P,U2,7,A*%
%TO.N,unconnected-(U2-Pad7)*%
X124460000Y-107950000D03*
%TO.P,U2,8,GND*%
%TO.N,GND*%
X124460000Y-105410000D03*
%TD*%
D13*
%TO.P,R1,1*%
%TO.N,+3.3V*%
X146050000Y-92710000D03*
D14*
%TO.P,R1,2*%
%TO.N,GND*%
X158750000Y-92710000D03*
%TD*%
D15*
%TO.P,J1,1,Pin_1*%
%TO.N,Net-(J1-Pad1)*%
X193040000Y-97775000D03*
D16*
%TO.P,J1,2,Pin_2*%
%TO.N,Net-(J1-Pad2)*%
X193040000Y-95235000D03*
%TO.P,J1,3,Pin_3*%
%TO.N,Net-(J1-Pad3)*%
X193040000Y-92695000D03*
%TD*%
D12*
%TO.P,U1,1,VB*%
%TO.N,+5V*%
X175260000Y-90265000D03*
%TO.P,U1,2,B1*%
%TO.N,/TX*%
X175260000Y-92805000D03*
%TO.P,U1,3,B2*%
%TO.N,/RX*%
X175260000Y-95345000D03*
%TO.P,U1,4,B3*%
%TO.N,/ENABLE*%
X175260000Y-97885000D03*
%TO.P,U1,5,B4*%
%TO.N,unconnected-(U1-Pad5)*%
X175260000Y-100425000D03*
%TO.P,U1,6,B5*%
%TO.N,unconnected-(U1-Pad6)*%
X175260000Y-102965000D03*
%TO.P,U1,7,B6*%
%TO.N,unconnected-(U1-Pad7)*%
X175260000Y-105505000D03*
%TO.P,U1,8,B7*%
%TO.N,unconnected-(U1-Pad8)*%
X175260000Y-108045000D03*
%TO.P,U1,9,B8*%
%TO.N,unconnected-(U1-Pad9)*%
X175260000Y-110585000D03*
%TO.P,U1,10,GND*%
%TO.N,GND*%
X175260000Y-113125000D03*
%TO.P,U1,11,VA*%
%TO.N,+3.3V*%
X187960000Y-90265000D03*
%TO.P,U1,12,A1*%
%TO.N,Net-(J1-Pad3)*%
X187960000Y-92805000D03*
%TO.P,U1,13,A2*%
%TO.N,Net-(J1-Pad2)*%
X187960000Y-95345000D03*
%TO.P,U1,14,A3*%
%TO.N,Net-(J1-Pad1)*%
X187960000Y-97885000D03*
%TO.P,U1,15,A4*%
%TO.N,unconnected-(U1-Pad15)*%
X187960000Y-100425000D03*
%TO.P,U1,16,A5*%
%TO.N,unconnected-(U1-Pad16)*%
X187960000Y-102965000D03*
%TO.P,U1,17,A6*%
%TO.N,unconnected-(U1-Pad17)*%
X187960000Y-105505000D03*
%TO.P,U1,18,A7*%
%TO.N,unconnected-(U1-Pad18)*%
X187960000Y-108045000D03*
%TO.P,U1,19,A8*%
%TO.N,unconnected-(U1-Pad19)*%
X187960000Y-110585000D03*
%TO.P,U1,20,OE*%
%TO.N,+3.3V*%
X187960000Y-113125000D03*
%TD*%
D15*
%TO.P,J3,1,Pin_1*%
%TO.N,GND*%
X127000000Y-90170000D03*
D16*
%TO.P,J3,2,Pin_2*%
%TO.N,+5V*%
X129540000Y-90170000D03*
%TD*%
D17*
%TO.P,C1,1*%
%TO.N,+3.3V*%
X140797677Y-96520000D03*
D18*
%TO.P,C1,2*%
%TO.N,GND*%
X135797677Y-96520000D03*
%TD*%
D15*
%TO.P,J2,1,Pin_1*%
%TO.N,GND*%
X167640000Y-92710000D03*
D16*
%TO.P,J2,2,Pin_2*%
%TO.N,+3.3V*%
X165100000Y-92710000D03*
%TD*%
D19*
%TO.N,GND*%
X156210000Y-99060000D02*
X156210000Y-110490000D01*
X156210000Y-110490000D02*
X163830000Y-118110000D01*
X194310000Y-87630000D02*
X184150000Y-87630000D01*
X184150000Y-87630000D02*
X177800000Y-93980000D01*
X163830000Y-118110000D02*
X189230000Y-118110000D01*
X176435000Y-113125000D02*
X175260000Y-113125000D01*
X189230000Y-118110000D02*
X195580000Y-111760000D01*
X195580000Y-111760000D02*
X195580000Y-88900000D01*
X195580000Y-88900000D02*
X194310000Y-87630000D01*
X177800000Y-93980000D02*
X177800000Y-111760000D01*
X177800000Y-111760000D02*
X176435000Y-113125000D01*
%TO.N,+5V*%
X175260000Y-90265000D02*
X170085000Y-85090000D01*
X170085000Y-85090000D02*
X134620000Y-85090000D01*
X134620000Y-85090000D02*
X129540000Y-90170000D01*
%TO.N,GND*%
X135797677Y-96520000D02*
X144687677Y-87630000D01*
X144687677Y-87630000D02*
X162560000Y-87630000D01*
X162560000Y-87630000D02*
X167640000Y-92710000D01*
%TO.N,+3.3V*%
X165100000Y-92710000D02*
X163830000Y-92710000D01*
X187960000Y-113125000D02*
X185420000Y-110585000D01*
X187865000Y-90265000D02*
X187960000Y-90265000D01*
X163830000Y-115570000D02*
X185515000Y-115570000D01*
X165100000Y-92710000D02*
X161290000Y-96520000D01*
X146050000Y-92710000D02*
X144607677Y-92710000D01*
X185420000Y-110585000D02*
X185420000Y-92710000D01*
X144607677Y-92710000D02*
X140797677Y-96520000D01*
X163830000Y-92710000D02*
X161290000Y-90170000D01*
X185515000Y-115570000D02*
X187960000Y-113125000D01*
X148590000Y-90170000D02*
X146050000Y-92710000D01*
X161290000Y-113030000D02*
X163830000Y-115570000D01*
X185420000Y-92710000D02*
X187865000Y-90265000D01*
X161290000Y-90170000D02*
X148590000Y-90170000D01*
X161290000Y-96520000D02*
X161290000Y-113030000D01*
%TO.N,GND*%
X156210000Y-99060000D02*
X158750000Y-96520000D01*
X121920000Y-107566000D02*
X121920000Y-114300000D01*
X124460000Y-115570000D02*
X135797677Y-104232323D01*
X124460000Y-92710000D02*
X127000000Y-90170000D01*
X135797677Y-96520000D02*
X138337677Y-99060000D01*
X138337677Y-99060000D02*
X156210000Y-99060000D01*
X135797677Y-104232323D02*
X135797677Y-96520000D01*
X123190000Y-115570000D02*
X124460000Y-115570000D01*
X124076000Y-105410000D02*
X121920000Y-107566000D01*
X158750000Y-92710000D02*
X158750000Y-96520000D01*
X124460000Y-105410000D02*
X124076000Y-105410000D01*
X124460000Y-105410000D02*
X124460000Y-92710000D01*
X121920000Y-114300000D02*
X123190000Y-115570000D01*
%TO.N,Net-(J1-Pad1)*%
X193040000Y-97775000D02*
X188070000Y-97775000D01*
X188070000Y-97775000D02*
X187960000Y-97885000D01*
%TO.N,Net-(J1-Pad2)*%
X188070000Y-95235000D02*
X187960000Y-95345000D01*
X193040000Y-95235000D02*
X188070000Y-95235000D01*
%TO.N,Net-(J1-Pad3)*%
X193040000Y-92695000D02*
X188070000Y-92695000D01*
X188070000Y-92695000D02*
X187960000Y-92805000D01*
%TO.N,+5V*%
X129540000Y-107950000D02*
X129540000Y-90170000D01*
X124460000Y-113030000D02*
X129540000Y-107950000D01*
%TO.N,/TX*%
X167640000Y-113030000D02*
X165100000Y-113030000D01*
X165100000Y-113030000D02*
X165100000Y-100330000D01*
X172720000Y-92710000D02*
X172815000Y-92805000D01*
X172815000Y-92805000D02*
X175260000Y-92805000D01*
X165100000Y-100330000D02*
X172720000Y-92710000D01*
%TO.N,/RX*%
X172815000Y-95345000D02*
X175260000Y-95345000D01*
X167640000Y-100330000D02*
X172720000Y-95250000D01*
X167640000Y-105410000D02*
X167640000Y-100330000D01*
X172720000Y-95250000D02*
X172815000Y-95345000D01*
%TO.N,/ENABLE*%
X173895000Y-97885000D02*
X175260000Y-97885000D01*
X170180000Y-101600000D02*
X173895000Y-97885000D01*
X167640000Y-107950000D02*
X170180000Y-105410000D01*
X167640000Y-110490000D02*
X167640000Y-107950000D01*
X170180000Y-105410000D02*
X170180000Y-101600000D01*
%TD*%
M02*
