%TF.GenerationSoftware,KiCad,Pcbnew,(7.0.0)*%
%TF.CreationDate,2023-03-22T11:52:13+01:00*%
%TF.ProjectId,ttl-to-rs485-proto,74746c2d-746f-42d7-9273-3438352d7072,rev?*%
%TF.SameCoordinates,Original*%
%TF.FileFunction,Drillmap*%
%TF.FilePolarity,Positive*%
%FSLAX45Y45*%
G04 Gerber Fmt 4.5, Leading zero omitted, Abs format (unit mm)*
G04 Created by KiCad (PCBNEW (7.0.0)) date 2023-03-22 11:52:13*
%MOMM*%
%LPD*%
G01*
G04 APERTURE LIST*
%ADD10C,0.200000*%
G04 APERTURE END LIST*
D10*
X9652000Y-5334000D02*
X18288000Y-5334000D01*
X18288000Y-5334000D02*
X18288000Y-11176000D01*
X18288000Y-11176000D02*
X9652000Y-11176000D01*
X9652000Y-11176000D02*
X9652000Y-5334000D01*
X9889619Y-11479476D02*
X9889619Y-11279476D01*
X9889619Y-11279476D02*
X9937238Y-11279476D01*
X9937238Y-11279476D02*
X9965810Y-11289000D01*
X9965810Y-11289000D02*
X9984857Y-11308048D01*
X9984857Y-11308048D02*
X9994381Y-11327095D01*
X9994381Y-11327095D02*
X10003905Y-11365190D01*
X10003905Y-11365190D02*
X10003905Y-11393762D01*
X10003905Y-11393762D02*
X9994381Y-11431857D01*
X9994381Y-11431857D02*
X9984857Y-11450905D01*
X9984857Y-11450905D02*
X9965810Y-11469952D01*
X9965810Y-11469952D02*
X9937238Y-11479476D01*
X9937238Y-11479476D02*
X9889619Y-11479476D01*
X10089619Y-11479476D02*
X10089619Y-11346143D01*
X10089619Y-11384238D02*
X10099143Y-11365190D01*
X10099143Y-11365190D02*
X10108667Y-11355667D01*
X10108667Y-11355667D02*
X10127714Y-11346143D01*
X10127714Y-11346143D02*
X10146762Y-11346143D01*
X10213429Y-11479476D02*
X10213429Y-11346143D01*
X10213429Y-11279476D02*
X10203905Y-11289000D01*
X10203905Y-11289000D02*
X10213429Y-11298524D01*
X10213429Y-11298524D02*
X10222952Y-11289000D01*
X10222952Y-11289000D02*
X10213429Y-11279476D01*
X10213429Y-11279476D02*
X10213429Y-11298524D01*
X10337238Y-11479476D02*
X10318190Y-11469952D01*
X10318190Y-11469952D02*
X10308667Y-11450905D01*
X10308667Y-11450905D02*
X10308667Y-11279476D01*
X10442000Y-11479476D02*
X10422952Y-11469952D01*
X10422952Y-11469952D02*
X10413429Y-11450905D01*
X10413429Y-11450905D02*
X10413429Y-11279476D01*
X10638190Y-11479476D02*
X10638190Y-11279476D01*
X10638190Y-11279476D02*
X10704857Y-11422333D01*
X10704857Y-11422333D02*
X10771524Y-11279476D01*
X10771524Y-11279476D02*
X10771524Y-11479476D01*
X10952476Y-11479476D02*
X10952476Y-11374714D01*
X10952476Y-11374714D02*
X10942952Y-11355667D01*
X10942952Y-11355667D02*
X10923905Y-11346143D01*
X10923905Y-11346143D02*
X10885809Y-11346143D01*
X10885809Y-11346143D02*
X10866762Y-11355667D01*
X10952476Y-11469952D02*
X10933429Y-11479476D01*
X10933429Y-11479476D02*
X10885809Y-11479476D01*
X10885809Y-11479476D02*
X10866762Y-11469952D01*
X10866762Y-11469952D02*
X10857238Y-11450905D01*
X10857238Y-11450905D02*
X10857238Y-11431857D01*
X10857238Y-11431857D02*
X10866762Y-11412809D01*
X10866762Y-11412809D02*
X10885809Y-11403286D01*
X10885809Y-11403286D02*
X10933429Y-11403286D01*
X10933429Y-11403286D02*
X10952476Y-11393762D01*
X11047714Y-11346143D02*
X11047714Y-11546143D01*
X11047714Y-11355667D02*
X11066762Y-11346143D01*
X11066762Y-11346143D02*
X11104857Y-11346143D01*
X11104857Y-11346143D02*
X11123905Y-11355667D01*
X11123905Y-11355667D02*
X11133429Y-11365190D01*
X11133429Y-11365190D02*
X11142952Y-11384238D01*
X11142952Y-11384238D02*
X11142952Y-11441381D01*
X11142952Y-11441381D02*
X11133429Y-11460428D01*
X11133429Y-11460428D02*
X11123905Y-11469952D01*
X11123905Y-11469952D02*
X11104857Y-11479476D01*
X11104857Y-11479476D02*
X11066762Y-11479476D01*
X11066762Y-11479476D02*
X11047714Y-11469952D01*
X11228667Y-11460428D02*
X11238190Y-11469952D01*
X11238190Y-11469952D02*
X11228667Y-11479476D01*
X11228667Y-11479476D02*
X11219143Y-11469952D01*
X11219143Y-11469952D02*
X11228667Y-11460428D01*
X11228667Y-11460428D02*
X11228667Y-11479476D01*
X11228667Y-11355667D02*
X11238190Y-11365190D01*
X11238190Y-11365190D02*
X11228667Y-11374714D01*
X11228667Y-11374714D02*
X11219143Y-11365190D01*
X11219143Y-11365190D02*
X11228667Y-11355667D01*
X11228667Y-11355667D02*
X11228667Y-11374714D01*
M02*
