%TF.GenerationSoftware,KiCad,Pcbnew,(7.0.0)*%
%TF.CreationDate,2023-03-22T11:52:13+01:00*%
%TF.ProjectId,ttl-to-rs485-proto,74746c2d-746f-42d7-9273-3438352d7072,rev?*%
%TF.SameCoordinates,Original*%
%TF.FileFunction,Drillmap*%
%TF.FilePolarity,Positive*%
%FSLAX45Y45*%
G04 Gerber Fmt 4.5, Leading zero omitted, Abs format (unit mm)*
G04 Created by KiCad (PCBNEW (7.0.0)) date 2023-03-22 11:52:13*
%MOMM*%
%LPD*%
G01*
G04 APERTURE LIST*
%ADD10C,0.200000*%
%ADD11C,0.076200*%
%ADD12C,0.100000*%
G04 APERTURE END LIST*
D10*
X9652000Y-5334000D02*
X18288000Y-5334000D01*
X18288000Y-5334000D02*
X18288000Y-11176000D01*
X18288000Y-11176000D02*
X9652000Y-11176000D01*
X9652000Y-11176000D02*
X9652000Y-5334000D01*
D11*
X10375900Y-6692900D02*
X10452100Y-6769100D01*
X10452100Y-6692900D02*
X10375900Y-6769100D01*
X10375900Y-7962900D02*
X10452100Y-8039100D01*
X10452100Y-7962900D02*
X10375900Y-8039100D01*
X10629900Y-6692900D02*
X10706100Y-6769100D01*
X10706100Y-6692900D02*
X10629900Y-6769100D01*
X10629900Y-7962900D02*
X10706100Y-8039100D01*
X10706100Y-7962900D02*
X10629900Y-8039100D01*
X10883900Y-6692900D02*
X10960100Y-6769100D01*
X10960100Y-6692900D02*
X10883900Y-6769100D01*
X10883900Y-7962900D02*
X10960100Y-8039100D01*
X10960100Y-7962900D02*
X10883900Y-8039100D01*
X11005400Y-9453400D02*
X11081600Y-9529600D01*
X11081600Y-9453400D02*
X11005400Y-9529600D01*
X11005400Y-9707400D02*
X11081600Y-9783600D01*
X11081600Y-9707400D02*
X11005400Y-9783600D01*
X11005400Y-9961400D02*
X11081600Y-10037600D01*
X11081600Y-9961400D02*
X11005400Y-10037600D01*
X11005400Y-10215400D02*
X11081600Y-10291600D01*
X11081600Y-10215400D02*
X11005400Y-10291600D01*
X11137900Y-6692900D02*
X11214100Y-6769100D01*
X11214100Y-6692900D02*
X11137900Y-6769100D01*
X11137900Y-7962900D02*
X11214100Y-8039100D01*
X11214100Y-7962900D02*
X11137900Y-8039100D01*
X11391900Y-6692900D02*
X11468100Y-6769100D01*
X11468100Y-6692900D02*
X11391900Y-6769100D01*
X11391900Y-7962900D02*
X11468100Y-8039100D01*
X11468100Y-7962900D02*
X11391900Y-8039100D01*
X11645900Y-6692900D02*
X11722100Y-6769100D01*
X11722100Y-6692900D02*
X11645900Y-6769100D01*
X11645900Y-7962900D02*
X11722100Y-8039100D01*
X11722100Y-7962900D02*
X11645900Y-8039100D01*
X11899900Y-6692900D02*
X11976100Y-6769100D01*
X11976100Y-6692900D02*
X11899900Y-6769100D01*
X11899900Y-7962900D02*
X11976100Y-8039100D01*
X11976100Y-7962900D02*
X11899900Y-8039100D01*
X12153900Y-6692900D02*
X12230100Y-6769100D01*
X12230100Y-6692900D02*
X12153900Y-6769100D01*
X12153900Y-7962900D02*
X12230100Y-8039100D01*
X12230100Y-7962900D02*
X12153900Y-8039100D01*
X12407900Y-6692900D02*
X12484100Y-6769100D01*
X12484100Y-6692900D02*
X12407900Y-6769100D01*
X12407900Y-7962900D02*
X12484100Y-8039100D01*
X12484100Y-7962900D02*
X12407900Y-8039100D01*
X12661900Y-6692900D02*
X12738100Y-6769100D01*
X12738100Y-6692900D02*
X12661900Y-6769100D01*
X12661900Y-7962900D02*
X12738100Y-8039100D01*
X12738100Y-7962900D02*
X12661900Y-8039100D01*
X14053400Y-9453400D02*
X14129600Y-9529600D01*
X14129600Y-9453400D02*
X14053400Y-9529600D01*
X14053400Y-9707400D02*
X14129600Y-9783600D01*
X14129600Y-9707400D02*
X14053400Y-9783600D01*
X14053400Y-9961400D02*
X14129600Y-10037600D01*
X14129600Y-9961400D02*
X14053400Y-10037600D01*
D12*
X17195000Y-5842000D02*
G75*
G03*
X17195000Y-5842000I-50000J0D01*
G01*
X17195000Y-6985000D02*
G75*
G03*
X17195000Y-6985000I-50000J0D01*
G01*
X17195000Y-7239000D02*
G75*
G03*
X17195000Y-7239000I-50000J0D01*
G01*
X17195000Y-7493000D02*
G75*
G03*
X17195000Y-7493000I-50000J0D01*
G01*
X17195000Y-7747000D02*
G75*
G03*
X17195000Y-7747000I-50000J0D01*
G01*
X17195000Y-9399000D02*
G75*
G03*
X17195000Y-9399000I-50000J0D01*
G01*
X17195000Y-9653000D02*
G75*
G03*
X17195000Y-9653000I-50000J0D01*
G01*
X17195000Y-9907000D02*
G75*
G03*
X17195000Y-9907000I-50000J0D01*
G01*
X17195000Y-10161000D02*
G75*
G03*
X17195000Y-10161000I-50000J0D01*
G01*
D10*
X9889619Y-11479476D02*
X9889619Y-11279476D01*
X9889619Y-11279476D02*
X9937238Y-11279476D01*
X9937238Y-11279476D02*
X9965810Y-11289000D01*
X9965810Y-11289000D02*
X9984857Y-11308048D01*
X9984857Y-11308048D02*
X9994381Y-11327095D01*
X9994381Y-11327095D02*
X10003905Y-11365190D01*
X10003905Y-11365190D02*
X10003905Y-11393762D01*
X10003905Y-11393762D02*
X9994381Y-11431857D01*
X9994381Y-11431857D02*
X9984857Y-11450905D01*
X9984857Y-11450905D02*
X9965810Y-11469952D01*
X9965810Y-11469952D02*
X9937238Y-11479476D01*
X9937238Y-11479476D02*
X9889619Y-11479476D01*
X10089619Y-11479476D02*
X10089619Y-11346143D01*
X10089619Y-11384238D02*
X10099143Y-11365190D01*
X10099143Y-11365190D02*
X10108667Y-11355667D01*
X10108667Y-11355667D02*
X10127714Y-11346143D01*
X10127714Y-11346143D02*
X10146762Y-11346143D01*
X10213429Y-11479476D02*
X10213429Y-11346143D01*
X10213429Y-11279476D02*
X10203905Y-11289000D01*
X10203905Y-11289000D02*
X10213429Y-11298524D01*
X10213429Y-11298524D02*
X10222952Y-11289000D01*
X10222952Y-11289000D02*
X10213429Y-11279476D01*
X10213429Y-11279476D02*
X10213429Y-11298524D01*
X10337238Y-11479476D02*
X10318190Y-11469952D01*
X10318190Y-11469952D02*
X10308667Y-11450905D01*
X10308667Y-11450905D02*
X10308667Y-11279476D01*
X10442000Y-11479476D02*
X10422952Y-11469952D01*
X10422952Y-11469952D02*
X10413429Y-11450905D01*
X10413429Y-11450905D02*
X10413429Y-11279476D01*
X10638190Y-11479476D02*
X10638190Y-11279476D01*
X10638190Y-11279476D02*
X10704857Y-11422333D01*
X10704857Y-11422333D02*
X10771524Y-11279476D01*
X10771524Y-11279476D02*
X10771524Y-11479476D01*
X10952476Y-11479476D02*
X10952476Y-11374714D01*
X10952476Y-11374714D02*
X10942952Y-11355667D01*
X10942952Y-11355667D02*
X10923905Y-11346143D01*
X10923905Y-11346143D02*
X10885809Y-11346143D01*
X10885809Y-11346143D02*
X10866762Y-11355667D01*
X10952476Y-11469952D02*
X10933429Y-11479476D01*
X10933429Y-11479476D02*
X10885809Y-11479476D01*
X10885809Y-11479476D02*
X10866762Y-11469952D01*
X10866762Y-11469952D02*
X10857238Y-11450905D01*
X10857238Y-11450905D02*
X10857238Y-11431857D01*
X10857238Y-11431857D02*
X10866762Y-11412809D01*
X10866762Y-11412809D02*
X10885809Y-11403286D01*
X10885809Y-11403286D02*
X10933429Y-11403286D01*
X10933429Y-11403286D02*
X10952476Y-11393762D01*
X11047714Y-11346143D02*
X11047714Y-11546143D01*
X11047714Y-11355667D02*
X11066762Y-11346143D01*
X11066762Y-11346143D02*
X11104857Y-11346143D01*
X11104857Y-11346143D02*
X11123905Y-11355667D01*
X11123905Y-11355667D02*
X11133429Y-11365190D01*
X11133429Y-11365190D02*
X11142952Y-11384238D01*
X11142952Y-11384238D02*
X11142952Y-11441381D01*
X11142952Y-11441381D02*
X11133429Y-11460428D01*
X11133429Y-11460428D02*
X11123905Y-11469952D01*
X11123905Y-11469952D02*
X11104857Y-11479476D01*
X11104857Y-11479476D02*
X11066762Y-11479476D01*
X11066762Y-11479476D02*
X11047714Y-11469952D01*
X11228667Y-11460428D02*
X11238190Y-11469952D01*
X11238190Y-11469952D02*
X11228667Y-11479476D01*
X11228667Y-11479476D02*
X11219143Y-11469952D01*
X11219143Y-11469952D02*
X11228667Y-11460428D01*
X11228667Y-11460428D02*
X11228667Y-11479476D01*
X11228667Y-11355667D02*
X11238190Y-11365190D01*
X11238190Y-11365190D02*
X11228667Y-11374714D01*
X11228667Y-11374714D02*
X11219143Y-11365190D01*
X11219143Y-11365190D02*
X11228667Y-11355667D01*
X11228667Y-11355667D02*
X11228667Y-11374714D01*
D11*
X9565800Y-11787900D02*
X9642000Y-11864100D01*
X9642000Y-11787900D02*
X9565800Y-11864100D01*
D10*
X9927714Y-11699476D02*
X9946762Y-11699476D01*
X9946762Y-11699476D02*
X9965810Y-11709000D01*
X9965810Y-11709000D02*
X9975333Y-11718524D01*
X9975333Y-11718524D02*
X9984857Y-11737571D01*
X9984857Y-11737571D02*
X9994381Y-11775667D01*
X9994381Y-11775667D02*
X9994381Y-11823286D01*
X9994381Y-11823286D02*
X9984857Y-11861381D01*
X9984857Y-11861381D02*
X9975333Y-11880428D01*
X9975333Y-11880428D02*
X9965810Y-11889952D01*
X9965810Y-11889952D02*
X9946762Y-11899476D01*
X9946762Y-11899476D02*
X9927714Y-11899476D01*
X9927714Y-11899476D02*
X9908667Y-11889952D01*
X9908667Y-11889952D02*
X9899143Y-11880428D01*
X9899143Y-11880428D02*
X9889619Y-11861381D01*
X9889619Y-11861381D02*
X9880095Y-11823286D01*
X9880095Y-11823286D02*
X9880095Y-11775667D01*
X9880095Y-11775667D02*
X9889619Y-11737571D01*
X9889619Y-11737571D02*
X9899143Y-11718524D01*
X9899143Y-11718524D02*
X9908667Y-11709000D01*
X9908667Y-11709000D02*
X9927714Y-11699476D01*
X10080095Y-11880428D02*
X10089619Y-11889952D01*
X10089619Y-11889952D02*
X10080095Y-11899476D01*
X10080095Y-11899476D02*
X10070571Y-11889952D01*
X10070571Y-11889952D02*
X10080095Y-11880428D01*
X10080095Y-11880428D02*
X10080095Y-11899476D01*
X10156286Y-11699476D02*
X10289619Y-11699476D01*
X10289619Y-11699476D02*
X10203905Y-11899476D01*
X10451524Y-11699476D02*
X10413429Y-11699476D01*
X10413429Y-11699476D02*
X10394381Y-11709000D01*
X10394381Y-11709000D02*
X10384857Y-11718524D01*
X10384857Y-11718524D02*
X10365810Y-11747095D01*
X10365810Y-11747095D02*
X10356286Y-11785190D01*
X10356286Y-11785190D02*
X10356286Y-11861381D01*
X10356286Y-11861381D02*
X10365810Y-11880428D01*
X10365810Y-11880428D02*
X10375333Y-11889952D01*
X10375333Y-11889952D02*
X10394381Y-11899476D01*
X10394381Y-11899476D02*
X10432476Y-11899476D01*
X10432476Y-11899476D02*
X10451524Y-11889952D01*
X10451524Y-11889952D02*
X10461048Y-11880428D01*
X10461048Y-11880428D02*
X10470571Y-11861381D01*
X10470571Y-11861381D02*
X10470571Y-11813762D01*
X10470571Y-11813762D02*
X10461048Y-11794714D01*
X10461048Y-11794714D02*
X10451524Y-11785190D01*
X10451524Y-11785190D02*
X10432476Y-11775667D01*
X10432476Y-11775667D02*
X10394381Y-11775667D01*
X10394381Y-11775667D02*
X10375333Y-11785190D01*
X10375333Y-11785190D02*
X10365810Y-11794714D01*
X10365810Y-11794714D02*
X10356286Y-11813762D01*
X10546762Y-11718524D02*
X10556286Y-11709000D01*
X10556286Y-11709000D02*
X10575333Y-11699476D01*
X10575333Y-11699476D02*
X10622952Y-11699476D01*
X10622952Y-11699476D02*
X10642000Y-11709000D01*
X10642000Y-11709000D02*
X10651524Y-11718524D01*
X10651524Y-11718524D02*
X10661048Y-11737571D01*
X10661048Y-11737571D02*
X10661048Y-11756619D01*
X10661048Y-11756619D02*
X10651524Y-11785190D01*
X10651524Y-11785190D02*
X10537238Y-11899476D01*
X10537238Y-11899476D02*
X10661048Y-11899476D01*
X10746762Y-11899476D02*
X10746762Y-11766143D01*
X10746762Y-11785190D02*
X10756286Y-11775667D01*
X10756286Y-11775667D02*
X10775333Y-11766143D01*
X10775333Y-11766143D02*
X10803905Y-11766143D01*
X10803905Y-11766143D02*
X10822952Y-11775667D01*
X10822952Y-11775667D02*
X10832476Y-11794714D01*
X10832476Y-11794714D02*
X10832476Y-11899476D01*
X10832476Y-11794714D02*
X10842000Y-11775667D01*
X10842000Y-11775667D02*
X10861048Y-11766143D01*
X10861048Y-11766143D02*
X10889619Y-11766143D01*
X10889619Y-11766143D02*
X10908667Y-11775667D01*
X10908667Y-11775667D02*
X10918191Y-11794714D01*
X10918191Y-11794714D02*
X10918191Y-11899476D01*
X11013429Y-11899476D02*
X11013429Y-11766143D01*
X11013429Y-11785190D02*
X11022952Y-11775667D01*
X11022952Y-11775667D02*
X11042000Y-11766143D01*
X11042000Y-11766143D02*
X11070572Y-11766143D01*
X11070572Y-11766143D02*
X11089619Y-11775667D01*
X11089619Y-11775667D02*
X11099143Y-11794714D01*
X11099143Y-11794714D02*
X11099143Y-11899476D01*
X11099143Y-11794714D02*
X11108667Y-11775667D01*
X11108667Y-11775667D02*
X11127714Y-11766143D01*
X11127714Y-11766143D02*
X11156286Y-11766143D01*
X11156286Y-11766143D02*
X11175333Y-11775667D01*
X11175333Y-11775667D02*
X11184857Y-11794714D01*
X11184857Y-11794714D02*
X11184857Y-11899476D01*
X11542952Y-11689952D02*
X11371524Y-11947095D01*
X11767714Y-11699476D02*
X11786762Y-11699476D01*
X11786762Y-11699476D02*
X11805810Y-11709000D01*
X11805810Y-11709000D02*
X11815333Y-11718524D01*
X11815333Y-11718524D02*
X11824857Y-11737571D01*
X11824857Y-11737571D02*
X11834381Y-11775667D01*
X11834381Y-11775667D02*
X11834381Y-11823286D01*
X11834381Y-11823286D02*
X11824857Y-11861381D01*
X11824857Y-11861381D02*
X11815333Y-11880428D01*
X11815333Y-11880428D02*
X11805810Y-11889952D01*
X11805810Y-11889952D02*
X11786762Y-11899476D01*
X11786762Y-11899476D02*
X11767714Y-11899476D01*
X11767714Y-11899476D02*
X11748667Y-11889952D01*
X11748667Y-11889952D02*
X11739143Y-11880428D01*
X11739143Y-11880428D02*
X11729619Y-11861381D01*
X11729619Y-11861381D02*
X11720095Y-11823286D01*
X11720095Y-11823286D02*
X11720095Y-11775667D01*
X11720095Y-11775667D02*
X11729619Y-11737571D01*
X11729619Y-11737571D02*
X11739143Y-11718524D01*
X11739143Y-11718524D02*
X11748667Y-11709000D01*
X11748667Y-11709000D02*
X11767714Y-11699476D01*
X11920095Y-11880428D02*
X11929619Y-11889952D01*
X11929619Y-11889952D02*
X11920095Y-11899476D01*
X11920095Y-11899476D02*
X11910571Y-11889952D01*
X11910571Y-11889952D02*
X11920095Y-11880428D01*
X11920095Y-11880428D02*
X11920095Y-11899476D01*
X12053429Y-11699476D02*
X12072476Y-11699476D01*
X12072476Y-11699476D02*
X12091524Y-11709000D01*
X12091524Y-11709000D02*
X12101048Y-11718524D01*
X12101048Y-11718524D02*
X12110571Y-11737571D01*
X12110571Y-11737571D02*
X12120095Y-11775667D01*
X12120095Y-11775667D02*
X12120095Y-11823286D01*
X12120095Y-11823286D02*
X12110571Y-11861381D01*
X12110571Y-11861381D02*
X12101048Y-11880428D01*
X12101048Y-11880428D02*
X12091524Y-11889952D01*
X12091524Y-11889952D02*
X12072476Y-11899476D01*
X12072476Y-11899476D02*
X12053429Y-11899476D01*
X12053429Y-11899476D02*
X12034381Y-11889952D01*
X12034381Y-11889952D02*
X12024857Y-11880428D01*
X12024857Y-11880428D02*
X12015333Y-11861381D01*
X12015333Y-11861381D02*
X12005810Y-11823286D01*
X12005810Y-11823286D02*
X12005810Y-11775667D01*
X12005810Y-11775667D02*
X12015333Y-11737571D01*
X12015333Y-11737571D02*
X12024857Y-11718524D01*
X12024857Y-11718524D02*
X12034381Y-11709000D01*
X12034381Y-11709000D02*
X12053429Y-11699476D01*
X12186762Y-11699476D02*
X12310571Y-11699476D01*
X12310571Y-11699476D02*
X12243905Y-11775667D01*
X12243905Y-11775667D02*
X12272476Y-11775667D01*
X12272476Y-11775667D02*
X12291524Y-11785190D01*
X12291524Y-11785190D02*
X12301048Y-11794714D01*
X12301048Y-11794714D02*
X12310571Y-11813762D01*
X12310571Y-11813762D02*
X12310571Y-11861381D01*
X12310571Y-11861381D02*
X12301048Y-11880428D01*
X12301048Y-11880428D02*
X12291524Y-11889952D01*
X12291524Y-11889952D02*
X12272476Y-11899476D01*
X12272476Y-11899476D02*
X12215333Y-11899476D01*
X12215333Y-11899476D02*
X12196286Y-11889952D01*
X12196286Y-11889952D02*
X12186762Y-11880428D01*
X12434381Y-11699476D02*
X12453429Y-11699476D01*
X12453429Y-11699476D02*
X12472476Y-11709000D01*
X12472476Y-11709000D02*
X12482000Y-11718524D01*
X12482000Y-11718524D02*
X12491524Y-11737571D01*
X12491524Y-11737571D02*
X12501048Y-11775667D01*
X12501048Y-11775667D02*
X12501048Y-11823286D01*
X12501048Y-11823286D02*
X12491524Y-11861381D01*
X12491524Y-11861381D02*
X12482000Y-11880428D01*
X12482000Y-11880428D02*
X12472476Y-11889952D01*
X12472476Y-11889952D02*
X12453429Y-11899476D01*
X12453429Y-11899476D02*
X12434381Y-11899476D01*
X12434381Y-11899476D02*
X12415333Y-11889952D01*
X12415333Y-11889952D02*
X12405810Y-11880428D01*
X12405810Y-11880428D02*
X12396286Y-11861381D01*
X12396286Y-11861381D02*
X12386762Y-11823286D01*
X12386762Y-11823286D02*
X12386762Y-11775667D01*
X12386762Y-11775667D02*
X12396286Y-11737571D01*
X12396286Y-11737571D02*
X12405810Y-11718524D01*
X12405810Y-11718524D02*
X12415333Y-11709000D01*
X12415333Y-11709000D02*
X12434381Y-11699476D01*
X12624857Y-11699476D02*
X12643905Y-11699476D01*
X12643905Y-11699476D02*
X12662952Y-11709000D01*
X12662952Y-11709000D02*
X12672476Y-11718524D01*
X12672476Y-11718524D02*
X12682000Y-11737571D01*
X12682000Y-11737571D02*
X12691524Y-11775667D01*
X12691524Y-11775667D02*
X12691524Y-11823286D01*
X12691524Y-11823286D02*
X12682000Y-11861381D01*
X12682000Y-11861381D02*
X12672476Y-11880428D01*
X12672476Y-11880428D02*
X12662952Y-11889952D01*
X12662952Y-11889952D02*
X12643905Y-11899476D01*
X12643905Y-11899476D02*
X12624857Y-11899476D01*
X12624857Y-11899476D02*
X12605810Y-11889952D01*
X12605810Y-11889952D02*
X12596286Y-11880428D01*
X12596286Y-11880428D02*
X12586762Y-11861381D01*
X12586762Y-11861381D02*
X12577238Y-11823286D01*
X12577238Y-11823286D02*
X12577238Y-11775667D01*
X12577238Y-11775667D02*
X12586762Y-11737571D01*
X12586762Y-11737571D02*
X12596286Y-11718524D01*
X12596286Y-11718524D02*
X12605810Y-11709000D01*
X12605810Y-11709000D02*
X12624857Y-11699476D01*
X12767714Y-11699476D02*
X12767714Y-11737571D01*
X12843905Y-11699476D02*
X12843905Y-11737571D01*
X13106762Y-11975667D02*
X13097238Y-11966143D01*
X13097238Y-11966143D02*
X13078191Y-11937571D01*
X13078191Y-11937571D02*
X13068667Y-11918524D01*
X13068667Y-11918524D02*
X13059143Y-11889952D01*
X13059143Y-11889952D02*
X13049619Y-11842333D01*
X13049619Y-11842333D02*
X13049619Y-11804238D01*
X13049619Y-11804238D02*
X13059143Y-11756619D01*
X13059143Y-11756619D02*
X13068667Y-11728048D01*
X13068667Y-11728048D02*
X13078191Y-11709000D01*
X13078191Y-11709000D02*
X13097238Y-11680428D01*
X13097238Y-11680428D02*
X13106762Y-11670905D01*
X13173429Y-11718524D02*
X13182952Y-11709000D01*
X13182952Y-11709000D02*
X13202000Y-11699476D01*
X13202000Y-11699476D02*
X13249619Y-11699476D01*
X13249619Y-11699476D02*
X13268667Y-11709000D01*
X13268667Y-11709000D02*
X13278191Y-11718524D01*
X13278191Y-11718524D02*
X13287714Y-11737571D01*
X13287714Y-11737571D02*
X13287714Y-11756619D01*
X13287714Y-11756619D02*
X13278191Y-11785190D01*
X13278191Y-11785190D02*
X13163905Y-11899476D01*
X13163905Y-11899476D02*
X13287714Y-11899476D01*
X13354381Y-11699476D02*
X13487714Y-11699476D01*
X13487714Y-11699476D02*
X13402000Y-11899476D01*
X13683905Y-11899476D02*
X13683905Y-11699476D01*
X13769619Y-11899476D02*
X13769619Y-11794714D01*
X13769619Y-11794714D02*
X13760095Y-11775667D01*
X13760095Y-11775667D02*
X13741048Y-11766143D01*
X13741048Y-11766143D02*
X13712476Y-11766143D01*
X13712476Y-11766143D02*
X13693429Y-11775667D01*
X13693429Y-11775667D02*
X13683905Y-11785190D01*
X13893429Y-11899476D02*
X13874381Y-11889952D01*
X13874381Y-11889952D02*
X13864857Y-11880428D01*
X13864857Y-11880428D02*
X13855333Y-11861381D01*
X13855333Y-11861381D02*
X13855333Y-11804238D01*
X13855333Y-11804238D02*
X13864857Y-11785190D01*
X13864857Y-11785190D02*
X13874381Y-11775667D01*
X13874381Y-11775667D02*
X13893429Y-11766143D01*
X13893429Y-11766143D02*
X13922000Y-11766143D01*
X13922000Y-11766143D02*
X13941048Y-11775667D01*
X13941048Y-11775667D02*
X13950572Y-11785190D01*
X13950572Y-11785190D02*
X13960095Y-11804238D01*
X13960095Y-11804238D02*
X13960095Y-11861381D01*
X13960095Y-11861381D02*
X13950572Y-11880428D01*
X13950572Y-11880428D02*
X13941048Y-11889952D01*
X13941048Y-11889952D02*
X13922000Y-11899476D01*
X13922000Y-11899476D02*
X13893429Y-11899476D01*
X14074381Y-11899476D02*
X14055333Y-11889952D01*
X14055333Y-11889952D02*
X14045810Y-11870905D01*
X14045810Y-11870905D02*
X14045810Y-11699476D01*
X14226762Y-11889952D02*
X14207714Y-11899476D01*
X14207714Y-11899476D02*
X14169619Y-11899476D01*
X14169619Y-11899476D02*
X14150572Y-11889952D01*
X14150572Y-11889952D02*
X14141048Y-11870905D01*
X14141048Y-11870905D02*
X14141048Y-11794714D01*
X14141048Y-11794714D02*
X14150572Y-11775667D01*
X14150572Y-11775667D02*
X14169619Y-11766143D01*
X14169619Y-11766143D02*
X14207714Y-11766143D01*
X14207714Y-11766143D02*
X14226762Y-11775667D01*
X14226762Y-11775667D02*
X14236286Y-11794714D01*
X14236286Y-11794714D02*
X14236286Y-11813762D01*
X14236286Y-11813762D02*
X14141048Y-11832809D01*
X14312476Y-11889952D02*
X14331524Y-11899476D01*
X14331524Y-11899476D02*
X14369619Y-11899476D01*
X14369619Y-11899476D02*
X14388667Y-11889952D01*
X14388667Y-11889952D02*
X14398191Y-11870905D01*
X14398191Y-11870905D02*
X14398191Y-11861381D01*
X14398191Y-11861381D02*
X14388667Y-11842333D01*
X14388667Y-11842333D02*
X14369619Y-11832809D01*
X14369619Y-11832809D02*
X14341048Y-11832809D01*
X14341048Y-11832809D02*
X14322000Y-11823286D01*
X14322000Y-11823286D02*
X14312476Y-11804238D01*
X14312476Y-11804238D02*
X14312476Y-11794714D01*
X14312476Y-11794714D02*
X14322000Y-11775667D01*
X14322000Y-11775667D02*
X14341048Y-11766143D01*
X14341048Y-11766143D02*
X14369619Y-11766143D01*
X14369619Y-11766143D02*
X14388667Y-11775667D01*
X14464857Y-11975667D02*
X14474381Y-11966143D01*
X14474381Y-11966143D02*
X14493429Y-11937571D01*
X14493429Y-11937571D02*
X14502953Y-11918524D01*
X14502953Y-11918524D02*
X14512476Y-11889952D01*
X14512476Y-11889952D02*
X14522000Y-11842333D01*
X14522000Y-11842333D02*
X14522000Y-11804238D01*
X14522000Y-11804238D02*
X14512476Y-11756619D01*
X14512476Y-11756619D02*
X14502953Y-11728048D01*
X14502953Y-11728048D02*
X14493429Y-11709000D01*
X14493429Y-11709000D02*
X14474381Y-11680428D01*
X14474381Y-11680428D02*
X14464857Y-11670905D01*
D12*
X9642000Y-12090000D02*
G75*
G03*
X9642000Y-12090000I-50000J0D01*
G01*
D10*
X9994381Y-12163476D02*
X9880095Y-12163476D01*
X9937238Y-12163476D02*
X9937238Y-11963476D01*
X9937238Y-11963476D02*
X9918190Y-11992048D01*
X9918190Y-11992048D02*
X9899143Y-12011095D01*
X9899143Y-12011095D02*
X9880095Y-12020619D01*
X10080095Y-12144428D02*
X10089619Y-12153952D01*
X10089619Y-12153952D02*
X10080095Y-12163476D01*
X10080095Y-12163476D02*
X10070571Y-12153952D01*
X10070571Y-12153952D02*
X10080095Y-12144428D01*
X10080095Y-12144428D02*
X10080095Y-12163476D01*
X10213429Y-11963476D02*
X10232476Y-11963476D01*
X10232476Y-11963476D02*
X10251524Y-11973000D01*
X10251524Y-11973000D02*
X10261048Y-11982524D01*
X10261048Y-11982524D02*
X10270571Y-12001571D01*
X10270571Y-12001571D02*
X10280095Y-12039667D01*
X10280095Y-12039667D02*
X10280095Y-12087286D01*
X10280095Y-12087286D02*
X10270571Y-12125381D01*
X10270571Y-12125381D02*
X10261048Y-12144428D01*
X10261048Y-12144428D02*
X10251524Y-12153952D01*
X10251524Y-12153952D02*
X10232476Y-12163476D01*
X10232476Y-12163476D02*
X10213429Y-12163476D01*
X10213429Y-12163476D02*
X10194381Y-12153952D01*
X10194381Y-12153952D02*
X10184857Y-12144428D01*
X10184857Y-12144428D02*
X10175333Y-12125381D01*
X10175333Y-12125381D02*
X10165810Y-12087286D01*
X10165810Y-12087286D02*
X10165810Y-12039667D01*
X10165810Y-12039667D02*
X10175333Y-12001571D01*
X10175333Y-12001571D02*
X10184857Y-11982524D01*
X10184857Y-11982524D02*
X10194381Y-11973000D01*
X10194381Y-11973000D02*
X10213429Y-11963476D01*
X10403905Y-11963476D02*
X10422952Y-11963476D01*
X10422952Y-11963476D02*
X10442000Y-11973000D01*
X10442000Y-11973000D02*
X10451524Y-11982524D01*
X10451524Y-11982524D02*
X10461048Y-12001571D01*
X10461048Y-12001571D02*
X10470571Y-12039667D01*
X10470571Y-12039667D02*
X10470571Y-12087286D01*
X10470571Y-12087286D02*
X10461048Y-12125381D01*
X10461048Y-12125381D02*
X10451524Y-12144428D01*
X10451524Y-12144428D02*
X10442000Y-12153952D01*
X10442000Y-12153952D02*
X10422952Y-12163476D01*
X10422952Y-12163476D02*
X10403905Y-12163476D01*
X10403905Y-12163476D02*
X10384857Y-12153952D01*
X10384857Y-12153952D02*
X10375333Y-12144428D01*
X10375333Y-12144428D02*
X10365810Y-12125381D01*
X10365810Y-12125381D02*
X10356286Y-12087286D01*
X10356286Y-12087286D02*
X10356286Y-12039667D01*
X10356286Y-12039667D02*
X10365810Y-12001571D01*
X10365810Y-12001571D02*
X10375333Y-11982524D01*
X10375333Y-11982524D02*
X10384857Y-11973000D01*
X10384857Y-11973000D02*
X10403905Y-11963476D01*
X10594381Y-11963476D02*
X10613429Y-11963476D01*
X10613429Y-11963476D02*
X10632476Y-11973000D01*
X10632476Y-11973000D02*
X10642000Y-11982524D01*
X10642000Y-11982524D02*
X10651524Y-12001571D01*
X10651524Y-12001571D02*
X10661048Y-12039667D01*
X10661048Y-12039667D02*
X10661048Y-12087286D01*
X10661048Y-12087286D02*
X10651524Y-12125381D01*
X10651524Y-12125381D02*
X10642000Y-12144428D01*
X10642000Y-12144428D02*
X10632476Y-12153952D01*
X10632476Y-12153952D02*
X10613429Y-12163476D01*
X10613429Y-12163476D02*
X10594381Y-12163476D01*
X10594381Y-12163476D02*
X10575333Y-12153952D01*
X10575333Y-12153952D02*
X10565810Y-12144428D01*
X10565810Y-12144428D02*
X10556286Y-12125381D01*
X10556286Y-12125381D02*
X10546762Y-12087286D01*
X10546762Y-12087286D02*
X10546762Y-12039667D01*
X10546762Y-12039667D02*
X10556286Y-12001571D01*
X10556286Y-12001571D02*
X10565810Y-11982524D01*
X10565810Y-11982524D02*
X10575333Y-11973000D01*
X10575333Y-11973000D02*
X10594381Y-11963476D01*
X10746762Y-12163476D02*
X10746762Y-12030143D01*
X10746762Y-12049190D02*
X10756286Y-12039667D01*
X10756286Y-12039667D02*
X10775333Y-12030143D01*
X10775333Y-12030143D02*
X10803905Y-12030143D01*
X10803905Y-12030143D02*
X10822952Y-12039667D01*
X10822952Y-12039667D02*
X10832476Y-12058714D01*
X10832476Y-12058714D02*
X10832476Y-12163476D01*
X10832476Y-12058714D02*
X10842000Y-12039667D01*
X10842000Y-12039667D02*
X10861048Y-12030143D01*
X10861048Y-12030143D02*
X10889619Y-12030143D01*
X10889619Y-12030143D02*
X10908667Y-12039667D01*
X10908667Y-12039667D02*
X10918191Y-12058714D01*
X10918191Y-12058714D02*
X10918191Y-12163476D01*
X11013429Y-12163476D02*
X11013429Y-12030143D01*
X11013429Y-12049190D02*
X11022952Y-12039667D01*
X11022952Y-12039667D02*
X11042000Y-12030143D01*
X11042000Y-12030143D02*
X11070572Y-12030143D01*
X11070572Y-12030143D02*
X11089619Y-12039667D01*
X11089619Y-12039667D02*
X11099143Y-12058714D01*
X11099143Y-12058714D02*
X11099143Y-12163476D01*
X11099143Y-12058714D02*
X11108667Y-12039667D01*
X11108667Y-12039667D02*
X11127714Y-12030143D01*
X11127714Y-12030143D02*
X11156286Y-12030143D01*
X11156286Y-12030143D02*
X11175333Y-12039667D01*
X11175333Y-12039667D02*
X11184857Y-12058714D01*
X11184857Y-12058714D02*
X11184857Y-12163476D01*
X11542952Y-11953952D02*
X11371524Y-12211095D01*
X11767714Y-11963476D02*
X11786762Y-11963476D01*
X11786762Y-11963476D02*
X11805810Y-11973000D01*
X11805810Y-11973000D02*
X11815333Y-11982524D01*
X11815333Y-11982524D02*
X11824857Y-12001571D01*
X11824857Y-12001571D02*
X11834381Y-12039667D01*
X11834381Y-12039667D02*
X11834381Y-12087286D01*
X11834381Y-12087286D02*
X11824857Y-12125381D01*
X11824857Y-12125381D02*
X11815333Y-12144428D01*
X11815333Y-12144428D02*
X11805810Y-12153952D01*
X11805810Y-12153952D02*
X11786762Y-12163476D01*
X11786762Y-12163476D02*
X11767714Y-12163476D01*
X11767714Y-12163476D02*
X11748667Y-12153952D01*
X11748667Y-12153952D02*
X11739143Y-12144428D01*
X11739143Y-12144428D02*
X11729619Y-12125381D01*
X11729619Y-12125381D02*
X11720095Y-12087286D01*
X11720095Y-12087286D02*
X11720095Y-12039667D01*
X11720095Y-12039667D02*
X11729619Y-12001571D01*
X11729619Y-12001571D02*
X11739143Y-11982524D01*
X11739143Y-11982524D02*
X11748667Y-11973000D01*
X11748667Y-11973000D02*
X11767714Y-11963476D01*
X11920095Y-12144428D02*
X11929619Y-12153952D01*
X11929619Y-12153952D02*
X11920095Y-12163476D01*
X11920095Y-12163476D02*
X11910571Y-12153952D01*
X11910571Y-12153952D02*
X11920095Y-12144428D01*
X11920095Y-12144428D02*
X11920095Y-12163476D01*
X12053429Y-11963476D02*
X12072476Y-11963476D01*
X12072476Y-11963476D02*
X12091524Y-11973000D01*
X12091524Y-11973000D02*
X12101048Y-11982524D01*
X12101048Y-11982524D02*
X12110571Y-12001571D01*
X12110571Y-12001571D02*
X12120095Y-12039667D01*
X12120095Y-12039667D02*
X12120095Y-12087286D01*
X12120095Y-12087286D02*
X12110571Y-12125381D01*
X12110571Y-12125381D02*
X12101048Y-12144428D01*
X12101048Y-12144428D02*
X12091524Y-12153952D01*
X12091524Y-12153952D02*
X12072476Y-12163476D01*
X12072476Y-12163476D02*
X12053429Y-12163476D01*
X12053429Y-12163476D02*
X12034381Y-12153952D01*
X12034381Y-12153952D02*
X12024857Y-12144428D01*
X12024857Y-12144428D02*
X12015333Y-12125381D01*
X12015333Y-12125381D02*
X12005810Y-12087286D01*
X12005810Y-12087286D02*
X12005810Y-12039667D01*
X12005810Y-12039667D02*
X12015333Y-12001571D01*
X12015333Y-12001571D02*
X12024857Y-11982524D01*
X12024857Y-11982524D02*
X12034381Y-11973000D01*
X12034381Y-11973000D02*
X12053429Y-11963476D01*
X12186762Y-11963476D02*
X12310571Y-11963476D01*
X12310571Y-11963476D02*
X12243905Y-12039667D01*
X12243905Y-12039667D02*
X12272476Y-12039667D01*
X12272476Y-12039667D02*
X12291524Y-12049190D01*
X12291524Y-12049190D02*
X12301048Y-12058714D01*
X12301048Y-12058714D02*
X12310571Y-12077762D01*
X12310571Y-12077762D02*
X12310571Y-12125381D01*
X12310571Y-12125381D02*
X12301048Y-12144428D01*
X12301048Y-12144428D02*
X12291524Y-12153952D01*
X12291524Y-12153952D02*
X12272476Y-12163476D01*
X12272476Y-12163476D02*
X12215333Y-12163476D01*
X12215333Y-12163476D02*
X12196286Y-12153952D01*
X12196286Y-12153952D02*
X12186762Y-12144428D01*
X12405810Y-12163476D02*
X12443905Y-12163476D01*
X12443905Y-12163476D02*
X12462952Y-12153952D01*
X12462952Y-12153952D02*
X12472476Y-12144428D01*
X12472476Y-12144428D02*
X12491524Y-12115857D01*
X12491524Y-12115857D02*
X12501048Y-12077762D01*
X12501048Y-12077762D02*
X12501048Y-12001571D01*
X12501048Y-12001571D02*
X12491524Y-11982524D01*
X12491524Y-11982524D02*
X12482000Y-11973000D01*
X12482000Y-11973000D02*
X12462952Y-11963476D01*
X12462952Y-11963476D02*
X12424857Y-11963476D01*
X12424857Y-11963476D02*
X12405810Y-11973000D01*
X12405810Y-11973000D02*
X12396286Y-11982524D01*
X12396286Y-11982524D02*
X12386762Y-12001571D01*
X12386762Y-12001571D02*
X12386762Y-12049190D01*
X12386762Y-12049190D02*
X12396286Y-12068238D01*
X12396286Y-12068238D02*
X12405810Y-12077762D01*
X12405810Y-12077762D02*
X12424857Y-12087286D01*
X12424857Y-12087286D02*
X12462952Y-12087286D01*
X12462952Y-12087286D02*
X12482000Y-12077762D01*
X12482000Y-12077762D02*
X12491524Y-12068238D01*
X12491524Y-12068238D02*
X12501048Y-12049190D01*
X12672476Y-12030143D02*
X12672476Y-12163476D01*
X12624857Y-11953952D02*
X12577238Y-12096809D01*
X12577238Y-12096809D02*
X12701048Y-12096809D01*
X12767714Y-11963476D02*
X12767714Y-12001571D01*
X12843905Y-11963476D02*
X12843905Y-12001571D01*
X13106762Y-12239667D02*
X13097238Y-12230143D01*
X13097238Y-12230143D02*
X13078191Y-12201571D01*
X13078191Y-12201571D02*
X13068667Y-12182524D01*
X13068667Y-12182524D02*
X13059143Y-12153952D01*
X13059143Y-12153952D02*
X13049619Y-12106333D01*
X13049619Y-12106333D02*
X13049619Y-12068238D01*
X13049619Y-12068238D02*
X13059143Y-12020619D01*
X13059143Y-12020619D02*
X13068667Y-11992048D01*
X13068667Y-11992048D02*
X13078191Y-11973000D01*
X13078191Y-11973000D02*
X13097238Y-11944428D01*
X13097238Y-11944428D02*
X13106762Y-11934905D01*
X13192476Y-12163476D02*
X13230571Y-12163476D01*
X13230571Y-12163476D02*
X13249619Y-12153952D01*
X13249619Y-12153952D02*
X13259143Y-12144428D01*
X13259143Y-12144428D02*
X13278191Y-12115857D01*
X13278191Y-12115857D02*
X13287714Y-12077762D01*
X13287714Y-12077762D02*
X13287714Y-12001571D01*
X13287714Y-12001571D02*
X13278191Y-11982524D01*
X13278191Y-11982524D02*
X13268667Y-11973000D01*
X13268667Y-11973000D02*
X13249619Y-11963476D01*
X13249619Y-11963476D02*
X13211524Y-11963476D01*
X13211524Y-11963476D02*
X13192476Y-11973000D01*
X13192476Y-11973000D02*
X13182952Y-11982524D01*
X13182952Y-11982524D02*
X13173429Y-12001571D01*
X13173429Y-12001571D02*
X13173429Y-12049190D01*
X13173429Y-12049190D02*
X13182952Y-12068238D01*
X13182952Y-12068238D02*
X13192476Y-12077762D01*
X13192476Y-12077762D02*
X13211524Y-12087286D01*
X13211524Y-12087286D02*
X13249619Y-12087286D01*
X13249619Y-12087286D02*
X13268667Y-12077762D01*
X13268667Y-12077762D02*
X13278191Y-12068238D01*
X13278191Y-12068238D02*
X13287714Y-12049190D01*
X13493429Y-12163476D02*
X13493429Y-11963476D01*
X13579143Y-12163476D02*
X13579143Y-12058714D01*
X13579143Y-12058714D02*
X13569619Y-12039667D01*
X13569619Y-12039667D02*
X13550572Y-12030143D01*
X13550572Y-12030143D02*
X13522000Y-12030143D01*
X13522000Y-12030143D02*
X13502952Y-12039667D01*
X13502952Y-12039667D02*
X13493429Y-12049190D01*
X13702952Y-12163476D02*
X13683905Y-12153952D01*
X13683905Y-12153952D02*
X13674381Y-12144428D01*
X13674381Y-12144428D02*
X13664857Y-12125381D01*
X13664857Y-12125381D02*
X13664857Y-12068238D01*
X13664857Y-12068238D02*
X13674381Y-12049190D01*
X13674381Y-12049190D02*
X13683905Y-12039667D01*
X13683905Y-12039667D02*
X13702952Y-12030143D01*
X13702952Y-12030143D02*
X13731524Y-12030143D01*
X13731524Y-12030143D02*
X13750572Y-12039667D01*
X13750572Y-12039667D02*
X13760095Y-12049190D01*
X13760095Y-12049190D02*
X13769619Y-12068238D01*
X13769619Y-12068238D02*
X13769619Y-12125381D01*
X13769619Y-12125381D02*
X13760095Y-12144428D01*
X13760095Y-12144428D02*
X13750572Y-12153952D01*
X13750572Y-12153952D02*
X13731524Y-12163476D01*
X13731524Y-12163476D02*
X13702952Y-12163476D01*
X13883905Y-12163476D02*
X13864857Y-12153952D01*
X13864857Y-12153952D02*
X13855333Y-12134905D01*
X13855333Y-12134905D02*
X13855333Y-11963476D01*
X14036286Y-12153952D02*
X14017238Y-12163476D01*
X14017238Y-12163476D02*
X13979143Y-12163476D01*
X13979143Y-12163476D02*
X13960095Y-12153952D01*
X13960095Y-12153952D02*
X13950572Y-12134905D01*
X13950572Y-12134905D02*
X13950572Y-12058714D01*
X13950572Y-12058714D02*
X13960095Y-12039667D01*
X13960095Y-12039667D02*
X13979143Y-12030143D01*
X13979143Y-12030143D02*
X14017238Y-12030143D01*
X14017238Y-12030143D02*
X14036286Y-12039667D01*
X14036286Y-12039667D02*
X14045810Y-12058714D01*
X14045810Y-12058714D02*
X14045810Y-12077762D01*
X14045810Y-12077762D02*
X13950572Y-12096809D01*
X14122000Y-12153952D02*
X14141048Y-12163476D01*
X14141048Y-12163476D02*
X14179143Y-12163476D01*
X14179143Y-12163476D02*
X14198191Y-12153952D01*
X14198191Y-12153952D02*
X14207714Y-12134905D01*
X14207714Y-12134905D02*
X14207714Y-12125381D01*
X14207714Y-12125381D02*
X14198191Y-12106333D01*
X14198191Y-12106333D02*
X14179143Y-12096809D01*
X14179143Y-12096809D02*
X14150572Y-12096809D01*
X14150572Y-12096809D02*
X14131524Y-12087286D01*
X14131524Y-12087286D02*
X14122000Y-12068238D01*
X14122000Y-12068238D02*
X14122000Y-12058714D01*
X14122000Y-12058714D02*
X14131524Y-12039667D01*
X14131524Y-12039667D02*
X14150572Y-12030143D01*
X14150572Y-12030143D02*
X14179143Y-12030143D01*
X14179143Y-12030143D02*
X14198191Y-12039667D01*
X14274381Y-12239667D02*
X14283905Y-12230143D01*
X14283905Y-12230143D02*
X14302953Y-12201571D01*
X14302953Y-12201571D02*
X14312476Y-12182524D01*
X14312476Y-12182524D02*
X14322000Y-12153952D01*
X14322000Y-12153952D02*
X14331524Y-12106333D01*
X14331524Y-12106333D02*
X14331524Y-12068238D01*
X14331524Y-12068238D02*
X14322000Y-12020619D01*
X14322000Y-12020619D02*
X14312476Y-11992048D01*
X14312476Y-11992048D02*
X14302953Y-11973000D01*
X14302953Y-11973000D02*
X14283905Y-11944428D01*
X14283905Y-11944428D02*
X14274381Y-11934905D01*
M02*
