%TF.GenerationSoftware,KiCad,Pcbnew,(7.0.0)*%
%TF.CreationDate,2023-03-22T11:51:58+01:00*%
%TF.ProjectId,ttl-to-rs485-proto,74746c2d-746f-42d7-9273-3438352d7072,rev?*%
%TF.SameCoordinates,Original*%
%TF.FileFunction,Copper,L1,Top*%
%TF.FilePolarity,Positive*%
%FSLAX46Y46*%
G04 Gerber Fmt 4.6, Leading zero omitted, Abs format (unit mm)*
G04 Created by KiCad (PCBNEW (7.0.0)) date 2023-03-22 11:51:58*
%MOMM*%
%LPD*%
G01*
G04 APERTURE LIST*
%TA.AperFunction,ComponentPad*%
%ADD10C,1.524000*%
%TD*%
%TA.AperFunction,ComponentPad*%
%ADD11R,1.700000X1.700000*%
%TD*%
%TA.AperFunction,ComponentPad*%
%ADD12O,1.700000X1.700000*%
%TD*%
%TA.AperFunction,Conductor*%
%ADD13C,1.000000*%
%TD*%
G04 APERTURE END LIST*
D10*
%TO.P,U2,1,VCC*%
%TO.N,/5V*%
X110435000Y-94915000D03*
%TO.P,U2,2,RX*%
%TO.N,/TX - RS485*%
X110435000Y-97455000D03*
%TO.P,U2,3,TX*%
%TO.N,/RX - RS485*%
X110435000Y-99995000D03*
%TO.P,U2,4,GND*%
%TO.N,/GND*%
X110435000Y-102535000D03*
%TO.P,U2,5,A*%
%TO.N,/A*%
X140915000Y-99995000D03*
%TO.P,U2,6,B*%
%TO.N,/B*%
X140915000Y-97455000D03*
%TO.P,U2,7,GND*%
%TO.N,/GND*%
X140915000Y-94915000D03*
%TD*%
D11*
%TO.P,J3,1,Pin_1*%
%TO.N,/OUT_ENABLE*%
X171449999Y-58419999D03*
%TD*%
D10*
%TO.P,U1,1,VA*%
%TO.N,/3.3V*%
X127000000Y-67310000D03*
%TO.P,U1,2,A1*%
%TO.N,/TX - TTL*%
X124460000Y-67310000D03*
%TO.P,U1,3,A2*%
%TO.N,/RX - TTL*%
X121920000Y-67310000D03*
%TO.P,U1,4,A3*%
%TO.N,unconnected-(U1-A3-Pad4)*%
X119380000Y-67310000D03*
%TO.P,U1,5,A4*%
%TO.N,unconnected-(U1-A4-Pad5)*%
X116840000Y-67310000D03*
%TO.P,U1,6,A5*%
%TO.N,unconnected-(U1-A5-Pad6)*%
X114300000Y-67310000D03*
%TO.P,U1,7,A6*%
%TO.N,unconnected-(U1-A6-Pad7)*%
X111760000Y-67310000D03*
%TO.P,U1,8,A7*%
%TO.N,unconnected-(U1-A7-Pad8)*%
X109220000Y-67310000D03*
%TO.P,U1,9,A8*%
%TO.N,unconnected-(U1-A8-Pad9)*%
X106680000Y-67310000D03*
%TO.P,U1,10,OE*%
%TO.N,/OUT_ENABLE*%
X104140000Y-67310000D03*
%TO.P,U1,11,VB*%
%TO.N,/5V*%
X127000000Y-80010000D03*
%TO.P,U1,12,B1*%
%TO.N,/RX - RS485*%
X124460000Y-80010000D03*
%TO.P,U1,13,B2*%
%TO.N,/TX - RS485*%
X121920000Y-80010000D03*
%TO.P,U1,14,B3*%
%TO.N,unconnected-(U1-B3-Pad14)*%
X119380000Y-80010000D03*
%TO.P,U1,15,B4*%
%TO.N,unconnected-(U1-B4-Pad15)*%
X116840000Y-80010000D03*
%TO.P,U1,16,B5*%
%TO.N,unconnected-(U1-B5-Pad16)*%
X114300000Y-80010000D03*
%TO.P,U1,17,B6*%
%TO.N,unconnected-(U1-B6-Pad17)*%
X111760000Y-80010000D03*
%TO.P,U1,18,B7*%
%TO.N,unconnected-(U1-B7-Pad18)*%
X109220000Y-80010000D03*
%TO.P,U1,19,B8*%
%TO.N,unconnected-(U1-B8-Pad19)*%
X106680000Y-80010000D03*
%TO.P,U1,20,GND*%
%TO.N,/GND*%
X104140000Y-80010000D03*
%TD*%
D11*
%TO.P,J2,1,Pin_1*%
%TO.N,/TX - TTL*%
X171449999Y-77469999D03*
D12*
%TO.P,J2,2,Pin_2*%
%TO.N,/RX - TTL*%
X171449999Y-74929999D03*
%TO.P,J2,3,Pin_3*%
%TO.N,/3.3V*%
X171449999Y-72389999D03*
%TO.P,J2,4,Pin_4*%
%TO.N,/GND*%
X171449999Y-69849999D03*
%TD*%
D11*
%TO.P,J1,1,Pin_1*%
%TO.N,/B*%
X171449999Y-93989999D03*
D12*
%TO.P,J1,2,Pin_2*%
%TO.N,/A*%
X171449999Y-96529999D03*
%TO.P,J1,3,Pin_3*%
%TO.N,/5V*%
X171449999Y-99069999D03*
%TO.P,J1,4,Pin_4*%
%TO.N,/GND*%
X171449999Y-101609999D03*
%TD*%
D13*
%TO.N,/GND*%
X104140000Y-101600000D02*
X104140000Y-97790000D01*
X110435000Y-102535000D02*
X105075000Y-102535000D01*
X105075000Y-102535000D02*
X104140000Y-101600000D01*
X104140000Y-80010000D02*
X104140000Y-91440000D01*
%TO.N,/5V*%
X127000000Y-77470000D02*
X127000000Y-80010000D01*
X124460000Y-74930000D02*
X127000000Y-77470000D01*
X100330000Y-77470000D02*
X102870000Y-74930000D01*
X102535000Y-94915000D02*
X100330000Y-92710000D01*
X100330000Y-92710000D02*
X100330000Y-77470000D01*
X102870000Y-74930000D02*
X124460000Y-74930000D01*
X110435000Y-94915000D02*
X102535000Y-94915000D01*
%TO.N,/GND*%
X127670000Y-105410000D02*
X124795000Y-102535000D01*
X154940000Y-105410000D02*
X127670000Y-105410000D01*
X171450000Y-101610000D02*
X158740000Y-101610000D01*
X158740000Y-101610000D02*
X154940000Y-105410000D01*
%TO.N,/B*%
X152735000Y-97455000D02*
X140915000Y-97455000D01*
X156200000Y-93990000D02*
X152735000Y-97455000D01*
X171450000Y-93990000D02*
X156200000Y-93990000D01*
%TO.N,/A*%
X171450000Y-96530000D02*
X158740000Y-96530000D01*
X158740000Y-96530000D02*
X155275000Y-99995000D01*
X155275000Y-99995000D02*
X140915000Y-99995000D01*
%TO.N,/5V*%
X173980000Y-99070000D02*
X171450000Y-99070000D01*
X176530000Y-96520000D02*
X173980000Y-99070000D01*
X176530000Y-87630000D02*
X176530000Y-96520000D01*
X173990000Y-85090000D02*
X176530000Y-87630000D01*
X129540000Y-85090000D02*
X173990000Y-85090000D01*
X127000000Y-82550000D02*
X129540000Y-85090000D01*
X127000000Y-80010000D02*
X127000000Y-82550000D01*
%TO.N,/TX - RS485*%
X118445000Y-97455000D02*
X110435000Y-97455000D01*
X121920000Y-93980000D02*
X118445000Y-97455000D01*
X121920000Y-80010000D02*
X121920000Y-93980000D01*
%TO.N,/RX - RS485*%
X120985000Y-99995000D02*
X110435000Y-99995000D01*
X124460000Y-96520000D02*
X120985000Y-99995000D01*
X124460000Y-80010000D02*
X124460000Y-96520000D01*
%TO.N,/GND*%
X124795000Y-102535000D02*
X110435000Y-102535000D01*
X132415000Y-94915000D02*
X124795000Y-102535000D01*
X140915000Y-94915000D02*
X132415000Y-94915000D01*
X176520000Y-101610000D02*
X171450000Y-101610000D01*
X179070000Y-73660000D02*
X179070000Y-99060000D01*
X175260000Y-69850000D02*
X179070000Y-73660000D01*
X179070000Y-99060000D02*
X176520000Y-101610000D01*
X171450000Y-69850000D02*
X175260000Y-69850000D01*
%TO.N,/RX - TTL*%
X121920000Y-64770000D02*
X121920000Y-67310000D01*
X124460000Y-62230000D02*
X121920000Y-64770000D01*
X130810000Y-62230000D02*
X124460000Y-62230000D01*
X134620000Y-66040000D02*
X130810000Y-62230000D01*
X134620000Y-71120000D02*
X134620000Y-66040000D01*
X138430000Y-74930000D02*
X134620000Y-71120000D01*
X171450000Y-74930000D02*
X138430000Y-74930000D01*
%TO.N,/TX - TTL*%
X124460000Y-66040000D02*
X124460000Y-67310000D01*
X125730000Y-64770000D02*
X124460000Y-66040000D01*
X129540000Y-64770000D02*
X125730000Y-64770000D01*
X130810000Y-66040000D02*
X129540000Y-64770000D01*
X130810000Y-72390000D02*
X130810000Y-66040000D01*
X135890000Y-77470000D02*
X130810000Y-72390000D01*
X171450000Y-77470000D02*
X135890000Y-77470000D01*
%TO.N,/3.3V*%
X127000000Y-73660000D02*
X127000000Y-67310000D01*
X176530000Y-78740000D02*
X173990000Y-81280000D01*
X176530000Y-74930000D02*
X176530000Y-78740000D01*
X134620000Y-81280000D02*
X127000000Y-73660000D01*
X173990000Y-81280000D02*
X134620000Y-81280000D01*
X173990000Y-72390000D02*
X176530000Y-74930000D01*
X171450000Y-72390000D02*
X173990000Y-72390000D01*
%TO.N,/OUT_ENABLE*%
X104140000Y-62230000D02*
X104140000Y-67310000D01*
X107950000Y-58420000D02*
X104140000Y-62230000D01*
X171450000Y-58420000D02*
X107950000Y-58420000D01*
%TD*%
%TA.AperFunction,Conductor*%
%TO.N,/GND*%
G36*
X124041670Y-75939939D02*
G01*
X124081898Y-75966819D01*
X125963181Y-77848102D01*
X125990061Y-77888330D01*
X125999500Y-77935783D01*
X125999500Y-79198662D01*
X125993761Y-79235949D01*
X125977075Y-79269785D01*
X125905574Y-79371899D01*
X125905569Y-79371906D01*
X125902466Y-79376339D01*
X125900178Y-79381245D01*
X125900176Y-79381249D01*
X125842382Y-79505189D01*
X125796625Y-79557365D01*
X125730000Y-79576784D01*
X125663375Y-79557365D01*
X125617618Y-79505189D01*
X125566263Y-79395059D01*
X125557534Y-79376339D01*
X125430826Y-79195380D01*
X125274620Y-79039174D01*
X125194794Y-78983279D01*
X125098096Y-78915570D01*
X125098090Y-78915566D01*
X125093662Y-78912466D01*
X125088757Y-78910178D01*
X125088754Y-78910177D01*
X124928506Y-78835453D01*
X124893450Y-78819106D01*
X124888235Y-78817708D01*
X124888228Y-78817706D01*
X124685300Y-78763331D01*
X124685289Y-78763329D01*
X124680068Y-78761930D01*
X124674676Y-78761458D01*
X124674669Y-78761457D01*
X124465395Y-78743149D01*
X124460000Y-78742677D01*
X124454605Y-78743149D01*
X124245330Y-78761457D01*
X124245321Y-78761458D01*
X124239932Y-78761930D01*
X124234711Y-78763328D01*
X124234699Y-78763331D01*
X124031777Y-78817705D01*
X124031772Y-78817706D01*
X124026550Y-78819106D01*
X124021654Y-78821388D01*
X124021643Y-78821393D01*
X123831249Y-78910176D01*
X123831245Y-78910178D01*
X123826339Y-78912466D01*
X123821906Y-78915569D01*
X123821899Y-78915574D01*
X123649815Y-79036068D01*
X123649810Y-79036071D01*
X123645380Y-79039174D01*
X123641556Y-79042997D01*
X123641550Y-79043003D01*
X123493003Y-79191550D01*
X123492997Y-79191556D01*
X123489174Y-79195380D01*
X123486071Y-79199810D01*
X123486068Y-79199815D01*
X123365574Y-79371899D01*
X123365569Y-79371906D01*
X123362466Y-79376339D01*
X123360178Y-79381245D01*
X123360176Y-79381249D01*
X123302382Y-79505189D01*
X123256625Y-79557365D01*
X123190000Y-79576784D01*
X123123375Y-79557365D01*
X123077618Y-79505189D01*
X123026263Y-79395059D01*
X123017534Y-79376339D01*
X122890826Y-79195380D01*
X122734620Y-79039174D01*
X122654794Y-78983279D01*
X122558096Y-78915570D01*
X122558090Y-78915566D01*
X122553662Y-78912466D01*
X122548757Y-78910178D01*
X122548754Y-78910177D01*
X122388506Y-78835453D01*
X122353450Y-78819106D01*
X122348235Y-78817708D01*
X122348228Y-78817706D01*
X122145300Y-78763331D01*
X122145289Y-78763329D01*
X122140068Y-78761930D01*
X122134676Y-78761458D01*
X122134669Y-78761457D01*
X121925395Y-78743149D01*
X121920000Y-78742677D01*
X121914605Y-78743149D01*
X121705330Y-78761457D01*
X121705321Y-78761458D01*
X121699932Y-78761930D01*
X121694711Y-78763328D01*
X121694699Y-78763331D01*
X121491777Y-78817705D01*
X121491772Y-78817706D01*
X121486550Y-78819106D01*
X121481654Y-78821388D01*
X121481643Y-78821393D01*
X121291249Y-78910176D01*
X121291245Y-78910178D01*
X121286339Y-78912466D01*
X121281906Y-78915569D01*
X121281899Y-78915574D01*
X121109815Y-79036068D01*
X121109810Y-79036071D01*
X121105380Y-79039174D01*
X121101556Y-79042997D01*
X121101550Y-79043003D01*
X120953003Y-79191550D01*
X120952997Y-79191556D01*
X120949174Y-79195380D01*
X120946071Y-79199810D01*
X120946068Y-79199815D01*
X120825574Y-79371899D01*
X120825569Y-79371906D01*
X120822466Y-79376339D01*
X120820178Y-79381245D01*
X120820176Y-79381249D01*
X120762382Y-79505189D01*
X120716625Y-79557365D01*
X120650000Y-79576784D01*
X120583375Y-79557365D01*
X120537618Y-79505189D01*
X120486263Y-79395059D01*
X120477534Y-79376339D01*
X120350826Y-79195380D01*
X120194620Y-79039174D01*
X120114794Y-78983279D01*
X120018096Y-78915570D01*
X120018090Y-78915566D01*
X120013662Y-78912466D01*
X120008757Y-78910178D01*
X120008754Y-78910177D01*
X119848506Y-78835453D01*
X119813450Y-78819106D01*
X119808235Y-78817708D01*
X119808228Y-78817706D01*
X119605300Y-78763331D01*
X119605289Y-78763329D01*
X119600068Y-78761930D01*
X119594676Y-78761458D01*
X119594669Y-78761457D01*
X119385395Y-78743149D01*
X119380000Y-78742677D01*
X119374605Y-78743149D01*
X119165330Y-78761457D01*
X119165321Y-78761458D01*
X119159932Y-78761930D01*
X119154711Y-78763328D01*
X119154699Y-78763331D01*
X118951777Y-78817705D01*
X118951772Y-78817706D01*
X118946550Y-78819106D01*
X118941654Y-78821388D01*
X118941643Y-78821393D01*
X118751249Y-78910176D01*
X118751245Y-78910178D01*
X118746339Y-78912466D01*
X118741906Y-78915569D01*
X118741899Y-78915574D01*
X118569815Y-79036068D01*
X118569810Y-79036071D01*
X118565380Y-79039174D01*
X118561556Y-79042997D01*
X118561550Y-79043003D01*
X118413003Y-79191550D01*
X118412997Y-79191556D01*
X118409174Y-79195380D01*
X118406071Y-79199810D01*
X118406068Y-79199815D01*
X118285574Y-79371899D01*
X118285569Y-79371906D01*
X118282466Y-79376339D01*
X118280178Y-79381245D01*
X118280176Y-79381249D01*
X118222382Y-79505189D01*
X118176625Y-79557365D01*
X118110000Y-79576784D01*
X118043375Y-79557365D01*
X117997618Y-79505189D01*
X117946263Y-79395059D01*
X117937534Y-79376339D01*
X117810826Y-79195380D01*
X117654620Y-79039174D01*
X117574794Y-78983279D01*
X117478096Y-78915570D01*
X117478090Y-78915566D01*
X117473662Y-78912466D01*
X117468757Y-78910178D01*
X117468754Y-78910177D01*
X117308506Y-78835453D01*
X117273450Y-78819106D01*
X117268235Y-78817708D01*
X117268228Y-78817706D01*
X117065300Y-78763331D01*
X117065289Y-78763329D01*
X117060068Y-78761930D01*
X117054676Y-78761458D01*
X117054669Y-78761457D01*
X116845395Y-78743149D01*
X116840000Y-78742677D01*
X116834605Y-78743149D01*
X116625330Y-78761457D01*
X116625321Y-78761458D01*
X116619932Y-78761930D01*
X116614711Y-78763328D01*
X116614699Y-78763331D01*
X116411777Y-78817705D01*
X116411772Y-78817706D01*
X116406550Y-78819106D01*
X116401654Y-78821388D01*
X116401643Y-78821393D01*
X116211249Y-78910176D01*
X116211245Y-78910178D01*
X116206339Y-78912466D01*
X116201906Y-78915569D01*
X116201899Y-78915574D01*
X116029815Y-79036068D01*
X116029810Y-79036071D01*
X116025380Y-79039174D01*
X116021556Y-79042997D01*
X116021550Y-79043003D01*
X115873003Y-79191550D01*
X115872997Y-79191556D01*
X115869174Y-79195380D01*
X115866071Y-79199810D01*
X115866068Y-79199815D01*
X115745574Y-79371899D01*
X115745569Y-79371906D01*
X115742466Y-79376339D01*
X115740178Y-79381245D01*
X115740176Y-79381249D01*
X115682382Y-79505189D01*
X115636625Y-79557365D01*
X115570000Y-79576784D01*
X115503375Y-79557365D01*
X115457618Y-79505189D01*
X115406263Y-79395059D01*
X115397534Y-79376339D01*
X115270826Y-79195380D01*
X115114620Y-79039174D01*
X115034794Y-78983279D01*
X114938096Y-78915570D01*
X114938090Y-78915566D01*
X114933662Y-78912466D01*
X114928757Y-78910178D01*
X114928754Y-78910177D01*
X114768506Y-78835453D01*
X114733450Y-78819106D01*
X114728235Y-78817708D01*
X114728228Y-78817706D01*
X114525300Y-78763331D01*
X114525289Y-78763329D01*
X114520068Y-78761930D01*
X114514676Y-78761458D01*
X114514669Y-78761457D01*
X114305395Y-78743149D01*
X114300000Y-78742677D01*
X114294605Y-78743149D01*
X114085330Y-78761457D01*
X114085321Y-78761458D01*
X114079932Y-78761930D01*
X114074711Y-78763328D01*
X114074699Y-78763331D01*
X113871777Y-78817705D01*
X113871772Y-78817706D01*
X113866550Y-78819106D01*
X113861654Y-78821388D01*
X113861643Y-78821393D01*
X113671249Y-78910176D01*
X113671245Y-78910178D01*
X113666339Y-78912466D01*
X113661906Y-78915569D01*
X113661899Y-78915574D01*
X113489815Y-79036068D01*
X113489810Y-79036071D01*
X113485380Y-79039174D01*
X113481556Y-79042997D01*
X113481550Y-79043003D01*
X113333003Y-79191550D01*
X113332997Y-79191556D01*
X113329174Y-79195380D01*
X113326071Y-79199810D01*
X113326068Y-79199815D01*
X113205574Y-79371899D01*
X113205569Y-79371906D01*
X113202466Y-79376339D01*
X113200178Y-79381245D01*
X113200176Y-79381249D01*
X113142382Y-79505189D01*
X113096625Y-79557365D01*
X113030000Y-79576784D01*
X112963375Y-79557365D01*
X112917618Y-79505189D01*
X112866263Y-79395059D01*
X112857534Y-79376339D01*
X112730826Y-79195380D01*
X112574620Y-79039174D01*
X112494794Y-78983279D01*
X112398096Y-78915570D01*
X112398090Y-78915566D01*
X112393662Y-78912466D01*
X112388757Y-78910178D01*
X112388754Y-78910177D01*
X112228506Y-78835453D01*
X112193450Y-78819106D01*
X112188235Y-78817708D01*
X112188228Y-78817706D01*
X111985300Y-78763331D01*
X111985289Y-78763329D01*
X111980068Y-78761930D01*
X111974676Y-78761458D01*
X111974669Y-78761457D01*
X111765395Y-78743149D01*
X111760000Y-78742677D01*
X111754605Y-78743149D01*
X111545330Y-78761457D01*
X111545321Y-78761458D01*
X111539932Y-78761930D01*
X111534711Y-78763328D01*
X111534699Y-78763331D01*
X111331777Y-78817705D01*
X111331772Y-78817706D01*
X111326550Y-78819106D01*
X111321654Y-78821388D01*
X111321643Y-78821393D01*
X111131249Y-78910176D01*
X111131245Y-78910178D01*
X111126339Y-78912466D01*
X111121906Y-78915569D01*
X111121899Y-78915574D01*
X110949815Y-79036068D01*
X110949810Y-79036071D01*
X110945380Y-79039174D01*
X110941556Y-79042997D01*
X110941550Y-79043003D01*
X110793003Y-79191550D01*
X110792997Y-79191556D01*
X110789174Y-79195380D01*
X110786071Y-79199810D01*
X110786068Y-79199815D01*
X110665574Y-79371899D01*
X110665569Y-79371906D01*
X110662466Y-79376339D01*
X110660178Y-79381245D01*
X110660176Y-79381249D01*
X110602382Y-79505189D01*
X110556625Y-79557365D01*
X110490000Y-79576784D01*
X110423375Y-79557365D01*
X110377618Y-79505189D01*
X110326263Y-79395059D01*
X110317534Y-79376339D01*
X110190826Y-79195380D01*
X110034620Y-79039174D01*
X109954794Y-78983279D01*
X109858096Y-78915570D01*
X109858090Y-78915566D01*
X109853662Y-78912466D01*
X109848757Y-78910178D01*
X109848754Y-78910177D01*
X109688506Y-78835453D01*
X109653450Y-78819106D01*
X109648235Y-78817708D01*
X109648228Y-78817706D01*
X109445300Y-78763331D01*
X109445289Y-78763329D01*
X109440068Y-78761930D01*
X109434676Y-78761458D01*
X109434669Y-78761457D01*
X109225395Y-78743149D01*
X109220000Y-78742677D01*
X109214605Y-78743149D01*
X109005330Y-78761457D01*
X109005321Y-78761458D01*
X108999932Y-78761930D01*
X108994711Y-78763328D01*
X108994699Y-78763331D01*
X108791777Y-78817705D01*
X108791772Y-78817706D01*
X108786550Y-78819106D01*
X108781654Y-78821388D01*
X108781643Y-78821393D01*
X108591249Y-78910176D01*
X108591245Y-78910178D01*
X108586339Y-78912466D01*
X108581906Y-78915569D01*
X108581899Y-78915574D01*
X108409815Y-79036068D01*
X108409810Y-79036071D01*
X108405380Y-79039174D01*
X108401556Y-79042997D01*
X108401550Y-79043003D01*
X108253003Y-79191550D01*
X108252997Y-79191556D01*
X108249174Y-79195380D01*
X108246071Y-79199810D01*
X108246068Y-79199815D01*
X108125574Y-79371899D01*
X108125569Y-79371906D01*
X108122466Y-79376339D01*
X108120178Y-79381245D01*
X108120176Y-79381249D01*
X108062382Y-79505189D01*
X108016625Y-79557365D01*
X107950000Y-79576784D01*
X107883375Y-79557365D01*
X107837618Y-79505189D01*
X107786263Y-79395059D01*
X107777534Y-79376339D01*
X107650826Y-79195380D01*
X107494620Y-79039174D01*
X107414794Y-78983279D01*
X107318096Y-78915570D01*
X107318090Y-78915566D01*
X107313662Y-78912466D01*
X107308757Y-78910178D01*
X107308754Y-78910177D01*
X107148506Y-78835453D01*
X107113450Y-78819106D01*
X107108235Y-78817708D01*
X107108228Y-78817706D01*
X106905300Y-78763331D01*
X106905289Y-78763329D01*
X106900068Y-78761930D01*
X106894676Y-78761458D01*
X106894669Y-78761457D01*
X106685395Y-78743149D01*
X106680000Y-78742677D01*
X106674605Y-78743149D01*
X106465330Y-78761457D01*
X106465321Y-78761458D01*
X106459932Y-78761930D01*
X106454711Y-78763328D01*
X106454699Y-78763331D01*
X106251777Y-78817705D01*
X106251772Y-78817706D01*
X106246550Y-78819106D01*
X106241654Y-78821388D01*
X106241643Y-78821393D01*
X106051249Y-78910176D01*
X106051245Y-78910178D01*
X106046339Y-78912466D01*
X106041906Y-78915569D01*
X106041899Y-78915574D01*
X105869815Y-79036068D01*
X105869810Y-79036071D01*
X105865380Y-79039174D01*
X105861556Y-79042997D01*
X105861550Y-79043003D01*
X105713003Y-79191550D01*
X105712997Y-79191556D01*
X105709174Y-79195380D01*
X105706071Y-79199810D01*
X105706068Y-79199815D01*
X105585574Y-79371899D01*
X105585569Y-79371906D01*
X105582466Y-79376339D01*
X105580179Y-79381242D01*
X105580178Y-79381245D01*
X105522105Y-79505782D01*
X105476347Y-79557957D01*
X105409722Y-79577376D01*
X105343097Y-79557956D01*
X105297341Y-79505780D01*
X105239391Y-79381504D01*
X105233990Y-79372150D01*
X105199529Y-79322935D01*
X105191418Y-79315502D01*
X105182139Y-79321413D01*
X104505095Y-79998457D01*
X104498431Y-80010000D01*
X104505095Y-80021542D01*
X105182136Y-80698582D01*
X105191419Y-80704496D01*
X105199528Y-80697064D01*
X105233989Y-80647851D01*
X105239388Y-80638499D01*
X105297340Y-80514219D01*
X105343097Y-80462042D01*
X105409722Y-80442622D01*
X105476348Y-80462041D01*
X105522105Y-80514217D01*
X105582466Y-80643662D01*
X105585566Y-80648090D01*
X105585570Y-80648096D01*
X105619858Y-80697064D01*
X105709174Y-80824620D01*
X105865380Y-80980826D01*
X105955859Y-81044180D01*
X106041903Y-81104429D01*
X106041906Y-81104430D01*
X106046338Y-81107534D01*
X106246550Y-81200894D01*
X106251770Y-81202292D01*
X106251771Y-81202293D01*
X106454699Y-81256668D01*
X106454701Y-81256668D01*
X106459932Y-81258070D01*
X106680000Y-81277323D01*
X106900068Y-81258070D01*
X107113450Y-81200894D01*
X107313662Y-81107534D01*
X107494620Y-80980826D01*
X107650826Y-80824620D01*
X107777534Y-80643662D01*
X107837618Y-80514808D01*
X107883375Y-80462634D01*
X107950000Y-80443214D01*
X108016625Y-80462634D01*
X108062381Y-80514808D01*
X108122466Y-80643662D01*
X108125566Y-80648090D01*
X108125570Y-80648096D01*
X108159858Y-80697064D01*
X108249174Y-80824620D01*
X108405380Y-80980826D01*
X108495859Y-81044180D01*
X108581903Y-81104429D01*
X108581906Y-81104430D01*
X108586338Y-81107534D01*
X108786550Y-81200894D01*
X108791770Y-81202292D01*
X108791771Y-81202293D01*
X108994699Y-81256668D01*
X108994701Y-81256668D01*
X108999932Y-81258070D01*
X109220000Y-81277323D01*
X109440068Y-81258070D01*
X109653450Y-81200894D01*
X109853662Y-81107534D01*
X110034620Y-80980826D01*
X110190826Y-80824620D01*
X110317534Y-80643662D01*
X110377618Y-80514808D01*
X110423375Y-80462634D01*
X110490000Y-80443214D01*
X110556625Y-80462634D01*
X110602381Y-80514808D01*
X110662466Y-80643662D01*
X110665566Y-80648090D01*
X110665570Y-80648096D01*
X110699858Y-80697064D01*
X110789174Y-80824620D01*
X110945380Y-80980826D01*
X111035859Y-81044180D01*
X111121903Y-81104429D01*
X111121906Y-81104430D01*
X111126338Y-81107534D01*
X111326550Y-81200894D01*
X111331770Y-81202292D01*
X111331771Y-81202293D01*
X111534699Y-81256668D01*
X111534701Y-81256668D01*
X111539932Y-81258070D01*
X111760000Y-81277323D01*
X111980068Y-81258070D01*
X112193450Y-81200894D01*
X112393662Y-81107534D01*
X112574620Y-80980826D01*
X112730826Y-80824620D01*
X112857534Y-80643662D01*
X112917618Y-80514808D01*
X112963375Y-80462634D01*
X113030000Y-80443214D01*
X113096625Y-80462634D01*
X113142381Y-80514808D01*
X113202466Y-80643662D01*
X113205566Y-80648090D01*
X113205570Y-80648096D01*
X113239858Y-80697064D01*
X113329174Y-80824620D01*
X113485380Y-80980826D01*
X113575859Y-81044180D01*
X113661903Y-81104429D01*
X113661906Y-81104430D01*
X113666338Y-81107534D01*
X113866550Y-81200894D01*
X113871770Y-81202292D01*
X113871771Y-81202293D01*
X114074699Y-81256668D01*
X114074701Y-81256668D01*
X114079932Y-81258070D01*
X114300000Y-81277323D01*
X114520068Y-81258070D01*
X114733450Y-81200894D01*
X114933662Y-81107534D01*
X115114620Y-80980826D01*
X115270826Y-80824620D01*
X115397534Y-80643662D01*
X115457618Y-80514808D01*
X115503375Y-80462634D01*
X115570000Y-80443214D01*
X115636625Y-80462634D01*
X115682381Y-80514808D01*
X115742466Y-80643662D01*
X115745566Y-80648090D01*
X115745570Y-80648096D01*
X115779858Y-80697064D01*
X115869174Y-80824620D01*
X116025380Y-80980826D01*
X116115859Y-81044180D01*
X116201903Y-81104429D01*
X116201906Y-81104430D01*
X116206338Y-81107534D01*
X116406550Y-81200894D01*
X116411770Y-81202292D01*
X116411771Y-81202293D01*
X116614699Y-81256668D01*
X116614701Y-81256668D01*
X116619932Y-81258070D01*
X116840000Y-81277323D01*
X117060068Y-81258070D01*
X117273450Y-81200894D01*
X117473662Y-81107534D01*
X117654620Y-80980826D01*
X117810826Y-80824620D01*
X117937534Y-80643662D01*
X117997618Y-80514808D01*
X118043375Y-80462634D01*
X118110000Y-80443214D01*
X118176625Y-80462634D01*
X118222381Y-80514808D01*
X118282466Y-80643662D01*
X118285566Y-80648090D01*
X118285570Y-80648096D01*
X118319858Y-80697064D01*
X118409174Y-80824620D01*
X118565380Y-80980826D01*
X118655859Y-81044180D01*
X118741903Y-81104429D01*
X118741906Y-81104430D01*
X118746338Y-81107534D01*
X118946550Y-81200894D01*
X118951770Y-81202292D01*
X118951771Y-81202293D01*
X119154699Y-81256668D01*
X119154701Y-81256668D01*
X119159932Y-81258070D01*
X119380000Y-81277323D01*
X119600068Y-81258070D01*
X119813450Y-81200894D01*
X120013662Y-81107534D01*
X120194620Y-80980826D01*
X120350826Y-80824620D01*
X120477534Y-80643662D01*
X120537618Y-80514808D01*
X120583375Y-80462634D01*
X120650000Y-80443214D01*
X120716625Y-80462634D01*
X120762381Y-80514808D01*
X120822466Y-80643662D01*
X120825566Y-80648090D01*
X120825570Y-80648096D01*
X120897075Y-80750215D01*
X120913761Y-80784051D01*
X120919500Y-80821338D01*
X120919500Y-93514217D01*
X120910061Y-93561670D01*
X120883181Y-93601898D01*
X118066899Y-96418181D01*
X118026671Y-96445061D01*
X117979218Y-96454500D01*
X111246338Y-96454500D01*
X111209051Y-96448761D01*
X111175215Y-96432075D01*
X111073096Y-96360570D01*
X111073090Y-96360566D01*
X111068662Y-96357466D01*
X111063760Y-96355180D01*
X111063758Y-96355179D01*
X110939809Y-96297381D01*
X110887633Y-96251624D01*
X110868214Y-96184998D01*
X110887634Y-96118373D01*
X110939806Y-96072620D01*
X111068662Y-96012534D01*
X111249620Y-95885826D01*
X111405826Y-95729620D01*
X111532534Y-95548662D01*
X111625894Y-95348450D01*
X111683070Y-95135068D01*
X111702323Y-94915000D01*
X111683070Y-94694932D01*
X111625894Y-94481550D01*
X111619598Y-94468049D01*
X111602950Y-94432347D01*
X111532534Y-94281339D01*
X111405826Y-94100380D01*
X111249620Y-93944174D01*
X111175215Y-93892075D01*
X111073096Y-93820570D01*
X111073090Y-93820566D01*
X111068662Y-93817466D01*
X111063757Y-93815178D01*
X111063754Y-93815177D01*
X110932972Y-93754193D01*
X110868450Y-93724106D01*
X110863235Y-93722708D01*
X110863228Y-93722706D01*
X110660300Y-93668331D01*
X110660289Y-93668329D01*
X110655068Y-93666930D01*
X110649676Y-93666458D01*
X110649669Y-93666457D01*
X110440395Y-93648149D01*
X110435000Y-93647677D01*
X110429605Y-93648149D01*
X110220330Y-93666457D01*
X110220321Y-93666458D01*
X110214932Y-93666930D01*
X110209711Y-93668328D01*
X110209699Y-93668331D01*
X110006777Y-93722705D01*
X110006772Y-93722706D01*
X110001550Y-93724106D01*
X109996654Y-93726388D01*
X109996643Y-93726393D01*
X109806249Y-93815176D01*
X109806245Y-93815178D01*
X109801339Y-93817466D01*
X109796906Y-93820569D01*
X109796899Y-93820574D01*
X109694785Y-93892075D01*
X109660949Y-93908761D01*
X109623662Y-93914500D01*
X103000783Y-93914500D01*
X102953330Y-93905061D01*
X102913102Y-93878181D01*
X101366819Y-92331899D01*
X101339939Y-92291671D01*
X101330500Y-92244218D01*
X101330500Y-81061418D01*
X103445503Y-81061418D01*
X103452936Y-81069530D01*
X103502151Y-81103991D01*
X103511499Y-81109388D01*
X103701819Y-81198135D01*
X103711943Y-81201821D01*
X103914786Y-81256173D01*
X103925418Y-81258047D01*
X104134605Y-81276349D01*
X104145395Y-81276349D01*
X104354581Y-81258047D01*
X104365213Y-81256173D01*
X104568056Y-81201821D01*
X104578180Y-81198135D01*
X104768494Y-81109391D01*
X104777851Y-81103989D01*
X104827064Y-81069528D01*
X104834496Y-81061419D01*
X104828582Y-81052136D01*
X104151542Y-80375095D01*
X104140000Y-80368431D01*
X104128457Y-80375095D01*
X103451416Y-81052136D01*
X103445503Y-81061418D01*
X101330500Y-81061418D01*
X101330500Y-80015395D01*
X102873651Y-80015395D01*
X102891952Y-80224581D01*
X102893826Y-80235213D01*
X102948178Y-80438056D01*
X102951864Y-80448180D01*
X103040609Y-80638496D01*
X103046008Y-80647848D01*
X103080470Y-80697065D01*
X103088579Y-80704496D01*
X103097862Y-80698582D01*
X103774903Y-80021542D01*
X103781567Y-80009999D01*
X103774903Y-79998457D01*
X103097859Y-79321413D01*
X103088581Y-79315502D01*
X103080468Y-79322936D01*
X103046006Y-79372154D01*
X103040612Y-79381498D01*
X102951865Y-79571815D01*
X102948177Y-79581949D01*
X102893826Y-79784786D01*
X102891952Y-79795418D01*
X102873651Y-80004605D01*
X102873651Y-80015395D01*
X101330500Y-80015395D01*
X101330500Y-78958581D01*
X103445502Y-78958581D01*
X103451413Y-78967859D01*
X104128457Y-79644903D01*
X104140000Y-79651567D01*
X104151542Y-79644903D01*
X104828582Y-78967862D01*
X104834496Y-78958579D01*
X104827065Y-78950470D01*
X104777848Y-78916008D01*
X104768496Y-78910609D01*
X104578180Y-78821864D01*
X104568056Y-78818178D01*
X104365213Y-78763826D01*
X104354581Y-78761952D01*
X104145395Y-78743651D01*
X104134605Y-78743651D01*
X103925418Y-78761952D01*
X103914786Y-78763826D01*
X103711949Y-78818177D01*
X103701815Y-78821865D01*
X103511498Y-78910612D01*
X103502154Y-78916006D01*
X103452936Y-78950468D01*
X103445502Y-78958581D01*
X101330500Y-78958581D01*
X101330500Y-77935783D01*
X101339939Y-77888330D01*
X101366819Y-77848102D01*
X103248102Y-75966819D01*
X103288330Y-75939939D01*
X103335783Y-75930500D01*
X123994217Y-75930500D01*
X124041670Y-75939939D01*
G37*
%TD.AperFunction*%
%TA.AperFunction,Conductor*%
G36*
X182817500Y-53357113D02*
G01*
X182862887Y-53402500D01*
X182879500Y-53464500D01*
X182879500Y-111635500D01*
X182862887Y-111697500D01*
X182817500Y-111742887D01*
X182755500Y-111759500D01*
X96644500Y-111759500D01*
X96582500Y-111742887D01*
X96537113Y-111697500D01*
X96520500Y-111635500D01*
X96520500Y-103586418D01*
X109740503Y-103586418D01*
X109747936Y-103594530D01*
X109797151Y-103628991D01*
X109806499Y-103634388D01*
X109996819Y-103723135D01*
X110006943Y-103726821D01*
X110209786Y-103781173D01*
X110220418Y-103783047D01*
X110429605Y-103801349D01*
X110440395Y-103801349D01*
X110649581Y-103783047D01*
X110660213Y-103781173D01*
X110863056Y-103726821D01*
X110873180Y-103723135D01*
X111063494Y-103634391D01*
X111072851Y-103628989D01*
X111122064Y-103594528D01*
X111129496Y-103586419D01*
X111123582Y-103577136D01*
X110446542Y-102900095D01*
X110435000Y-102893431D01*
X110423457Y-102900095D01*
X109746416Y-103577136D01*
X109740503Y-103586418D01*
X96520500Y-103586418D01*
X96520500Y-102540395D01*
X109168651Y-102540395D01*
X109186952Y-102749581D01*
X109188826Y-102760213D01*
X109243178Y-102963056D01*
X109246864Y-102973180D01*
X109335609Y-103163496D01*
X109341008Y-103172848D01*
X109375470Y-103222065D01*
X109383579Y-103229496D01*
X109392862Y-103223582D01*
X110069903Y-102546542D01*
X110076567Y-102535000D01*
X110793431Y-102535000D01*
X110800095Y-102546542D01*
X111477136Y-103223582D01*
X111486419Y-103229496D01*
X111494528Y-103222064D01*
X111528989Y-103172851D01*
X111534391Y-103163494D01*
X111623135Y-102973180D01*
X111626821Y-102963056D01*
X111681173Y-102760213D01*
X111683047Y-102749581D01*
X111701349Y-102540395D01*
X111701349Y-102529605D01*
X111683047Y-102320418D01*
X111681173Y-102309786D01*
X111626822Y-102106949D01*
X111623134Y-102096815D01*
X111534388Y-101906500D01*
X111528990Y-101897150D01*
X111504763Y-101862551D01*
X170122688Y-101862551D01*
X170123056Y-101873780D01*
X170175168Y-102068263D01*
X170178856Y-102078397D01*
X170274113Y-102282676D01*
X170279501Y-102292008D01*
X170408784Y-102476643D01*
X170415721Y-102484909D01*
X170575090Y-102644278D01*
X170583356Y-102651215D01*
X170767991Y-102780498D01*
X170777323Y-102785886D01*
X170981602Y-102881143D01*
X170991736Y-102884831D01*
X171186219Y-102936943D01*
X171197448Y-102937311D01*
X171200000Y-102926369D01*
X171700000Y-102926369D01*
X171702551Y-102937311D01*
X171713780Y-102936943D01*
X171908263Y-102884831D01*
X171918397Y-102881143D01*
X172122676Y-102785886D01*
X172132008Y-102780498D01*
X172316643Y-102651215D01*
X172324909Y-102644278D01*
X172484278Y-102484909D01*
X172491215Y-102476643D01*
X172620498Y-102292008D01*
X172625886Y-102282676D01*
X172721143Y-102078397D01*
X172724831Y-102068263D01*
X172776943Y-101873780D01*
X172777311Y-101862551D01*
X172766369Y-101860000D01*
X171716326Y-101860000D01*
X171703450Y-101863450D01*
X171700000Y-101876326D01*
X171700000Y-102926369D01*
X171200000Y-102926369D01*
X171200000Y-101876326D01*
X171196549Y-101863450D01*
X171183674Y-101860000D01*
X170133631Y-101860000D01*
X170122688Y-101862551D01*
X111504763Y-101862551D01*
X111494529Y-101847935D01*
X111486418Y-101840502D01*
X111477139Y-101846413D01*
X110800095Y-102523457D01*
X110793431Y-102535000D01*
X110076567Y-102535000D01*
X110069903Y-102523457D01*
X109392859Y-101846413D01*
X109383581Y-101840502D01*
X109375468Y-101847936D01*
X109341006Y-101897154D01*
X109335612Y-101906498D01*
X109246865Y-102096815D01*
X109243177Y-102106949D01*
X109188826Y-102309786D01*
X109186952Y-102320418D01*
X109168651Y-102529605D01*
X109168651Y-102540395D01*
X96520500Y-102540395D01*
X96520500Y-77495476D01*
X99324663Y-77495476D01*
X99325456Y-77501709D01*
X99325457Y-77501715D01*
X99328506Y-77525651D01*
X99329500Y-77541317D01*
X99329500Y-92695722D01*
X99329460Y-92698863D01*
X99327477Y-92777141D01*
X99327243Y-92786363D01*
X99328351Y-92792548D01*
X99328352Y-92792554D01*
X99337648Y-92844420D01*
X99338957Y-92853748D01*
X99344289Y-92906180D01*
X99344290Y-92906185D01*
X99344926Y-92912438D01*
X99346807Y-92918435D01*
X99346810Y-92918447D01*
X99354032Y-92941466D01*
X99357772Y-92956702D01*
X99362031Y-92980464D01*
X99362035Y-92980478D01*
X99363142Y-92986653D01*
X99375019Y-93016387D01*
X99385020Y-93041425D01*
X99388179Y-93050298D01*
X99398886Y-93084421D01*
X99405841Y-93106588D01*
X99419438Y-93131086D01*
X99420603Y-93133184D01*
X99427337Y-93147363D01*
X99436290Y-93169778D01*
X99436292Y-93169783D01*
X99438623Y-93175617D01*
X99442082Y-93180866D01*
X99442085Y-93180871D01*
X99471080Y-93224867D01*
X99475961Y-93232923D01*
X99501536Y-93278999D01*
X99501538Y-93279002D01*
X99504591Y-93284502D01*
X99524404Y-93307581D01*
X99533855Y-93320116D01*
X99547133Y-93340263D01*
X99547138Y-93340269D01*
X99550598Y-93345519D01*
X99555044Y-93349965D01*
X99555045Y-93349966D01*
X99592300Y-93387221D01*
X99598705Y-93394131D01*
X99633041Y-93434128D01*
X99633044Y-93434131D01*
X99637134Y-93438895D01*
X99642103Y-93442742D01*
X99642106Y-93442744D01*
X99661192Y-93457518D01*
X99672972Y-93467893D01*
X101817432Y-95612352D01*
X101819625Y-95614601D01*
X101879941Y-95678053D01*
X101885100Y-95681644D01*
X101885104Y-95681647D01*
X101928362Y-95711755D01*
X101935871Y-95717416D01*
X101981593Y-95754698D01*
X101987171Y-95757611D01*
X101987170Y-95757611D01*
X102008556Y-95768782D01*
X102021980Y-95776915D01*
X102046951Y-95794295D01*
X102101163Y-95817559D01*
X102109675Y-95821602D01*
X102131571Y-95833040D01*
X102161951Y-95848909D01*
X102191199Y-95857277D01*
X102205975Y-95862538D01*
X102233942Y-95874540D01*
X102291718Y-95886413D01*
X102300866Y-95888658D01*
X102357582Y-95904887D01*
X102387916Y-95907196D01*
X102403463Y-95909377D01*
X102427095Y-95914234D01*
X102427102Y-95914234D01*
X102433259Y-95915500D01*
X102492241Y-95915500D01*
X102501656Y-95915858D01*
X102560476Y-95920337D01*
X102590651Y-95916493D01*
X102606317Y-95915500D01*
X109623662Y-95915500D01*
X109660949Y-95921239D01*
X109694785Y-95937925D01*
X109796903Y-96009429D01*
X109796906Y-96009430D01*
X109801338Y-96012534D01*
X109930189Y-96072618D01*
X109982364Y-96118373D01*
X110001784Y-96184998D01*
X109982365Y-96251623D01*
X109930190Y-96297381D01*
X109806245Y-96355178D01*
X109806242Y-96355179D01*
X109801339Y-96357466D01*
X109796906Y-96360569D01*
X109796899Y-96360574D01*
X109624815Y-96481068D01*
X109624810Y-96481071D01*
X109620380Y-96484174D01*
X109616556Y-96487997D01*
X109616550Y-96488003D01*
X109468003Y-96636550D01*
X109467997Y-96636556D01*
X109464174Y-96640380D01*
X109461071Y-96644810D01*
X109461068Y-96644815D01*
X109340574Y-96816899D01*
X109340569Y-96816906D01*
X109337466Y-96821339D01*
X109335178Y-96826245D01*
X109335176Y-96826249D01*
X109246393Y-97016643D01*
X109246388Y-97016654D01*
X109244106Y-97021550D01*
X109242706Y-97026772D01*
X109242705Y-97026777D01*
X109188331Y-97229699D01*
X109188328Y-97229711D01*
X109186930Y-97234932D01*
X109186458Y-97240321D01*
X109186457Y-97240330D01*
X109172754Y-97396966D01*
X109167677Y-97455000D01*
X109168149Y-97460395D01*
X109186457Y-97669669D01*
X109186458Y-97669676D01*
X109186930Y-97675068D01*
X109188329Y-97680289D01*
X109188331Y-97680300D01*
X109242706Y-97883228D01*
X109242708Y-97883235D01*
X109244106Y-97888450D01*
X109246392Y-97893352D01*
X109328530Y-98069500D01*
X109337466Y-98088662D01*
X109340566Y-98093090D01*
X109340570Y-98093096D01*
X109417550Y-98203034D01*
X109464174Y-98269620D01*
X109620380Y-98425826D01*
X109670955Y-98461239D01*
X109796903Y-98549429D01*
X109796906Y-98549430D01*
X109801338Y-98552534D01*
X109930189Y-98612618D01*
X109982364Y-98658373D01*
X110001784Y-98724998D01*
X109982365Y-98791623D01*
X109930190Y-98837381D01*
X109806245Y-98895178D01*
X109806242Y-98895179D01*
X109801339Y-98897466D01*
X109796906Y-98900569D01*
X109796899Y-98900574D01*
X109624815Y-99021068D01*
X109624810Y-99021071D01*
X109620380Y-99024174D01*
X109616556Y-99027997D01*
X109616550Y-99028003D01*
X109468003Y-99176550D01*
X109467997Y-99176556D01*
X109464174Y-99180380D01*
X109461071Y-99184810D01*
X109461068Y-99184815D01*
X109340574Y-99356899D01*
X109340569Y-99356906D01*
X109337466Y-99361339D01*
X109335178Y-99366245D01*
X109335176Y-99366249D01*
X109246393Y-99556643D01*
X109246388Y-99556654D01*
X109244106Y-99561550D01*
X109242706Y-99566772D01*
X109242705Y-99566777D01*
X109188331Y-99769699D01*
X109188328Y-99769711D01*
X109186930Y-99774932D01*
X109186458Y-99780321D01*
X109186457Y-99780330D01*
X109170415Y-99963708D01*
X109167677Y-99995000D01*
X109168149Y-100000395D01*
X109186457Y-100209669D01*
X109186458Y-100209676D01*
X109186930Y-100215068D01*
X109188329Y-100220289D01*
X109188331Y-100220300D01*
X109242706Y-100423228D01*
X109242708Y-100423235D01*
X109244106Y-100428450D01*
X109250369Y-100441881D01*
X109309544Y-100568784D01*
X109337466Y-100628662D01*
X109340566Y-100633090D01*
X109340570Y-100633096D01*
X109411989Y-100735092D01*
X109464174Y-100809620D01*
X109620380Y-100965826D01*
X109670955Y-101001239D01*
X109796903Y-101089429D01*
X109796906Y-101089430D01*
X109801338Y-101092534D01*
X109930781Y-101152894D01*
X109982956Y-101198649D01*
X110002376Y-101265274D01*
X109982957Y-101331899D01*
X109930782Y-101377657D01*
X109806494Y-101435614D01*
X109797154Y-101441006D01*
X109747936Y-101475468D01*
X109740502Y-101483581D01*
X109746413Y-101492859D01*
X110423457Y-102169903D01*
X110435000Y-102176567D01*
X110446542Y-102169903D01*
X111123582Y-101492862D01*
X111129496Y-101483579D01*
X111122065Y-101475470D01*
X111072848Y-101441008D01*
X111063496Y-101435609D01*
X110939218Y-101377658D01*
X110887042Y-101331901D01*
X110867622Y-101265276D01*
X110887042Y-101198651D01*
X110939216Y-101152895D01*
X111068662Y-101092534D01*
X111175214Y-101017925D01*
X111209051Y-101001239D01*
X111246338Y-100995500D01*
X120970722Y-100995500D01*
X120973862Y-100995539D01*
X121061363Y-100997757D01*
X121119458Y-100987344D01*
X121128739Y-100986042D01*
X121187438Y-100980074D01*
X121216464Y-100970966D01*
X121231713Y-100967224D01*
X121261653Y-100961858D01*
X121316423Y-100939980D01*
X121325303Y-100936818D01*
X121381588Y-100919159D01*
X121408194Y-100904390D01*
X121422362Y-100897662D01*
X121450617Y-100886377D01*
X121499891Y-100853902D01*
X121507910Y-100849043D01*
X121559502Y-100820409D01*
X121577236Y-100805184D01*
X121582583Y-100800594D01*
X121595125Y-100791137D01*
X121620519Y-100774402D01*
X121662238Y-100732681D01*
X121669122Y-100726301D01*
X121713895Y-100687866D01*
X121732524Y-100663798D01*
X121742884Y-100652035D01*
X125157389Y-97237529D01*
X125159559Y-97235413D01*
X125223053Y-97175059D01*
X125256752Y-97126641D01*
X125262428Y-97119113D01*
X125299698Y-97073407D01*
X125313782Y-97046444D01*
X125321919Y-97033013D01*
X125339295Y-97008049D01*
X125362568Y-96953815D01*
X125366598Y-96945331D01*
X125390997Y-96898624D01*
X125390997Y-96898622D01*
X125393909Y-96893049D01*
X125401662Y-96865947D01*
X125402275Y-96863808D01*
X125407541Y-96849016D01*
X125419540Y-96821058D01*
X125431421Y-96763238D01*
X125433650Y-96754155D01*
X125449886Y-96697418D01*
X125452195Y-96667082D01*
X125454376Y-96651539D01*
X125454379Y-96651528D01*
X125460500Y-96621741D01*
X125460500Y-96562756D01*
X125460858Y-96553340D01*
X125460894Y-96552861D01*
X125465337Y-96494524D01*
X125461493Y-96464348D01*
X125460500Y-96448683D01*
X125460500Y-94920395D01*
X139648651Y-94920395D01*
X139666952Y-95129581D01*
X139668826Y-95140213D01*
X139723178Y-95343056D01*
X139726864Y-95353180D01*
X139815609Y-95543496D01*
X139821008Y-95552848D01*
X139855470Y-95602065D01*
X139863579Y-95609496D01*
X139872862Y-95603582D01*
X140549903Y-94926542D01*
X140556567Y-94915000D01*
X141273431Y-94915000D01*
X141280095Y-94926542D01*
X141957136Y-95603582D01*
X141966419Y-95609496D01*
X141974528Y-95602064D01*
X142008989Y-95552851D01*
X142014391Y-95543494D01*
X142103135Y-95353180D01*
X142106821Y-95343056D01*
X142161173Y-95140213D01*
X142163047Y-95129581D01*
X142181349Y-94920395D01*
X142181349Y-94909605D01*
X142163047Y-94700418D01*
X142161173Y-94689786D01*
X142106822Y-94486949D01*
X142103134Y-94476815D01*
X142014388Y-94286500D01*
X142008990Y-94277150D01*
X141974529Y-94227935D01*
X141966418Y-94220502D01*
X141957139Y-94226413D01*
X141280095Y-94903457D01*
X141273431Y-94915000D01*
X140556567Y-94915000D01*
X140549903Y-94903457D01*
X139872859Y-94226413D01*
X139863581Y-94220502D01*
X139855468Y-94227936D01*
X139821006Y-94277154D01*
X139815612Y-94286498D01*
X139726865Y-94476815D01*
X139723177Y-94486949D01*
X139668826Y-94689786D01*
X139666952Y-94700418D01*
X139648651Y-94909605D01*
X139648651Y-94920395D01*
X125460500Y-94920395D01*
X125460500Y-93863581D01*
X140220502Y-93863581D01*
X140226413Y-93872859D01*
X140903457Y-94549903D01*
X140915000Y-94556567D01*
X140926542Y-94549903D01*
X141603582Y-93872862D01*
X141609496Y-93863579D01*
X141602065Y-93855470D01*
X141552848Y-93821008D01*
X141543496Y-93815609D01*
X141353180Y-93726864D01*
X141343056Y-93723178D01*
X141140213Y-93668826D01*
X141129581Y-93666952D01*
X140920395Y-93648651D01*
X140909605Y-93648651D01*
X140700418Y-93666952D01*
X140689786Y-93668826D01*
X140486949Y-93723177D01*
X140476815Y-93726865D01*
X140286498Y-93815612D01*
X140277154Y-93821006D01*
X140227936Y-93855468D01*
X140220502Y-93863581D01*
X125460500Y-93863581D01*
X125460500Y-80821338D01*
X125466239Y-80784051D01*
X125482925Y-80750215D01*
X125520141Y-80697065D01*
X125557534Y-80643662D01*
X125617618Y-80514808D01*
X125663375Y-80462634D01*
X125730000Y-80443214D01*
X125796625Y-80462634D01*
X125842381Y-80514808D01*
X125902466Y-80643662D01*
X125905566Y-80648090D01*
X125905570Y-80648096D01*
X125977075Y-80750215D01*
X125993761Y-80784051D01*
X125999500Y-80821338D01*
X125999500Y-82535722D01*
X125999460Y-82538862D01*
X125997243Y-82626363D01*
X125998351Y-82632548D01*
X125998352Y-82632554D01*
X126007648Y-82684420D01*
X126008957Y-82693748D01*
X126014289Y-82746180D01*
X126014290Y-82746185D01*
X126014926Y-82752438D01*
X126016807Y-82758435D01*
X126016810Y-82758447D01*
X126024032Y-82781466D01*
X126027772Y-82796702D01*
X126032031Y-82820464D01*
X126032035Y-82820478D01*
X126033142Y-82826653D01*
X126035471Y-82832483D01*
X126055020Y-82881425D01*
X126058179Y-82890298D01*
X126075841Y-82946588D01*
X126078891Y-82952083D01*
X126090603Y-82973184D01*
X126097337Y-82987363D01*
X126106290Y-83009778D01*
X126106292Y-83009783D01*
X126108623Y-83015617D01*
X126112082Y-83020866D01*
X126112085Y-83020871D01*
X126141080Y-83064867D01*
X126145961Y-83072923D01*
X126171536Y-83118999D01*
X126171538Y-83119002D01*
X126174591Y-83124502D01*
X126178689Y-83129275D01*
X126194404Y-83147581D01*
X126203855Y-83160116D01*
X126217133Y-83180263D01*
X126217138Y-83180269D01*
X126220598Y-83185519D01*
X126225045Y-83189966D01*
X126262300Y-83227221D01*
X126268705Y-83234131D01*
X126307134Y-83278895D01*
X126331198Y-83297522D01*
X126342968Y-83307889D01*
X128822450Y-85787371D01*
X128824643Y-85789620D01*
X128884941Y-85853053D01*
X128890102Y-85856645D01*
X128933361Y-85886755D01*
X128940874Y-85892419D01*
X128986592Y-85929697D01*
X128992166Y-85932608D01*
X128992173Y-85932613D01*
X129013557Y-85943783D01*
X129026985Y-85951918D01*
X129051951Y-85969295D01*
X129057728Y-85971774D01*
X129106165Y-85992560D01*
X129114675Y-85996602D01*
X129166951Y-86023909D01*
X129196195Y-86032276D01*
X129210979Y-86037539D01*
X129238942Y-86049540D01*
X129296727Y-86061414D01*
X129305869Y-86063657D01*
X129362582Y-86079886D01*
X129368857Y-86080363D01*
X129368858Y-86080364D01*
X129372331Y-86080628D01*
X129392915Y-86082195D01*
X129408459Y-86084376D01*
X129432096Y-86089234D01*
X129432100Y-86089234D01*
X129438259Y-86090500D01*
X129497244Y-86090500D01*
X129506660Y-86090858D01*
X129565476Y-86095337D01*
X129595651Y-86091493D01*
X129611317Y-86090500D01*
X173524217Y-86090500D01*
X173571670Y-86099939D01*
X173611898Y-86126819D01*
X175493181Y-88008102D01*
X175520061Y-88048330D01*
X175529500Y-88095783D01*
X175529500Y-96054218D01*
X175520061Y-96101671D01*
X175493181Y-96141899D01*
X173601899Y-98033181D01*
X173561671Y-98060061D01*
X173514218Y-98069500D01*
X172410758Y-98069500D01*
X172363305Y-98060061D01*
X172330138Y-98037899D01*
X172329373Y-98038811D01*
X172325230Y-98035334D01*
X172321401Y-98031505D01*
X172316970Y-98028402D01*
X172316966Y-98028399D01*
X172135841Y-97901574D01*
X172096976Y-97857256D01*
X172082965Y-97799999D01*
X172096976Y-97742742D01*
X172135839Y-97698426D01*
X172321401Y-97568495D01*
X172488495Y-97401401D01*
X172624035Y-97207830D01*
X172723903Y-96993663D01*
X172785063Y-96765408D01*
X172805659Y-96530000D01*
X172785063Y-96294592D01*
X172725586Y-96072617D01*
X172725305Y-96071569D01*
X172725304Y-96071567D01*
X172723903Y-96066337D01*
X172624035Y-95852171D01*
X172488495Y-95658599D01*
X172366569Y-95536673D01*
X172335273Y-95483927D01*
X172333084Y-95422634D01*
X172360537Y-95367789D01*
X172410916Y-95332810D01*
X172542331Y-95283796D01*
X172657546Y-95197546D01*
X172743796Y-95082331D01*
X172794091Y-94947483D01*
X172800500Y-94887873D01*
X172800499Y-93092128D01*
X172794091Y-93032517D01*
X172743796Y-92897669D01*
X172657546Y-92782454D01*
X172542331Y-92696204D01*
X172407483Y-92645909D01*
X172399770Y-92645079D01*
X172399767Y-92645079D01*
X172351180Y-92639855D01*
X172351169Y-92639854D01*
X172347873Y-92639500D01*
X172344550Y-92639500D01*
X170555439Y-92639500D01*
X170555420Y-92639500D01*
X170552128Y-92639501D01*
X170548850Y-92639853D01*
X170548838Y-92639854D01*
X170500231Y-92645079D01*
X170500225Y-92645080D01*
X170492517Y-92645909D01*
X170485252Y-92648618D01*
X170485246Y-92648620D01*
X170365980Y-92693104D01*
X170365978Y-92693104D01*
X170357669Y-92696204D01*
X170350572Y-92701516D01*
X170350568Y-92701519D01*
X170249550Y-92777141D01*
X170249546Y-92777144D01*
X170242454Y-92782454D01*
X170237144Y-92789546D01*
X170237141Y-92789550D01*
X170161519Y-92890568D01*
X170161516Y-92890572D01*
X170156204Y-92897669D01*
X170153104Y-92905978D01*
X170153105Y-92905978D01*
X170152040Y-92908834D01*
X170125601Y-92951070D01*
X170084670Y-92979488D01*
X170035858Y-92989500D01*
X156214278Y-92989500D01*
X156211137Y-92989460D01*
X156129924Y-92987402D01*
X156129921Y-92987402D01*
X156123637Y-92987243D01*
X156111267Y-92989460D01*
X156065578Y-92997648D01*
X156056254Y-92998955D01*
X156003821Y-93004288D01*
X156003807Y-93004290D01*
X155997562Y-93004926D01*
X155991568Y-93006806D01*
X155991565Y-93006807D01*
X155968526Y-93014035D01*
X155953292Y-93017774D01*
X155929539Y-93022032D01*
X155923347Y-93023142D01*
X155917514Y-93025471D01*
X155917496Y-93025477D01*
X155868567Y-93045021D01*
X155859697Y-93048179D01*
X155809411Y-93063957D01*
X155809396Y-93063963D01*
X155803412Y-93065841D01*
X155797922Y-93068887D01*
X155797915Y-93068891D01*
X155776809Y-93080605D01*
X155762640Y-93087334D01*
X155740223Y-93096289D01*
X155740213Y-93096293D01*
X155734383Y-93098623D01*
X155729140Y-93102078D01*
X155729131Y-93102083D01*
X155685123Y-93131086D01*
X155677073Y-93135963D01*
X155625498Y-93164591D01*
X155620729Y-93168684D01*
X155620726Y-93168687D01*
X155602414Y-93184407D01*
X155589887Y-93193852D01*
X155569731Y-93207136D01*
X155569719Y-93207145D01*
X155564481Y-93210598D01*
X155560039Y-93215039D01*
X155560035Y-93215043D01*
X155522774Y-93252303D01*
X155515868Y-93258704D01*
X155475873Y-93293040D01*
X155475869Y-93293043D01*
X155471105Y-93297134D01*
X155467260Y-93302100D01*
X155467260Y-93302101D01*
X155452480Y-93321194D01*
X155442108Y-93332969D01*
X152356899Y-96418181D01*
X152316671Y-96445061D01*
X152269218Y-96454500D01*
X141726338Y-96454500D01*
X141689051Y-96448761D01*
X141655215Y-96432075D01*
X141553096Y-96360570D01*
X141553090Y-96360566D01*
X141548662Y-96357466D01*
X141543760Y-96355180D01*
X141543758Y-96355179D01*
X141419217Y-96297105D01*
X141367041Y-96251348D01*
X141347622Y-96184722D01*
X141367042Y-96118097D01*
X141419219Y-96072340D01*
X141543499Y-96014388D01*
X141552851Y-96008989D01*
X141602064Y-95974528D01*
X141609496Y-95966419D01*
X141603582Y-95957136D01*
X140926542Y-95280095D01*
X140915000Y-95273431D01*
X140903457Y-95280095D01*
X140226416Y-95957136D01*
X140220503Y-95966418D01*
X140227936Y-95974530D01*
X140277151Y-96008991D01*
X140286499Y-96014388D01*
X140410780Y-96072341D01*
X140462956Y-96118097D01*
X140482376Y-96184722D01*
X140462957Y-96251347D01*
X140410782Y-96297105D01*
X140286245Y-96355178D01*
X140286242Y-96355179D01*
X140281339Y-96357466D01*
X140276906Y-96360569D01*
X140276899Y-96360574D01*
X140104815Y-96481068D01*
X140104810Y-96481071D01*
X140100380Y-96484174D01*
X140096556Y-96487997D01*
X140096550Y-96488003D01*
X139948003Y-96636550D01*
X139947997Y-96636556D01*
X139944174Y-96640380D01*
X139941071Y-96644810D01*
X139941068Y-96644815D01*
X139820574Y-96816899D01*
X139820569Y-96816906D01*
X139817466Y-96821339D01*
X139815178Y-96826245D01*
X139815176Y-96826249D01*
X139726393Y-97016643D01*
X139726388Y-97016654D01*
X139724106Y-97021550D01*
X139722706Y-97026772D01*
X139722705Y-97026777D01*
X139668331Y-97229699D01*
X139668328Y-97229711D01*
X139666930Y-97234932D01*
X139666458Y-97240321D01*
X139666457Y-97240330D01*
X139652754Y-97396966D01*
X139647677Y-97455000D01*
X139648149Y-97460395D01*
X139666457Y-97669669D01*
X139666458Y-97669676D01*
X139666930Y-97675068D01*
X139668329Y-97680289D01*
X139668331Y-97680300D01*
X139722706Y-97883228D01*
X139722708Y-97883235D01*
X139724106Y-97888450D01*
X139726392Y-97893352D01*
X139808530Y-98069500D01*
X139817466Y-98088662D01*
X139820566Y-98093090D01*
X139820570Y-98093096D01*
X139897550Y-98203034D01*
X139944174Y-98269620D01*
X140100380Y-98425826D01*
X140150955Y-98461239D01*
X140276903Y-98549429D01*
X140276906Y-98549430D01*
X140281338Y-98552534D01*
X140410189Y-98612618D01*
X140462364Y-98658373D01*
X140481784Y-98724998D01*
X140462365Y-98791623D01*
X140410190Y-98837381D01*
X140286245Y-98895178D01*
X140286242Y-98895179D01*
X140281339Y-98897466D01*
X140276906Y-98900569D01*
X140276899Y-98900574D01*
X140104815Y-99021068D01*
X140104810Y-99021071D01*
X140100380Y-99024174D01*
X140096556Y-99027997D01*
X140096550Y-99028003D01*
X139948003Y-99176550D01*
X139947997Y-99176556D01*
X139944174Y-99180380D01*
X139941071Y-99184810D01*
X139941068Y-99184815D01*
X139820574Y-99356899D01*
X139820569Y-99356906D01*
X139817466Y-99361339D01*
X139815178Y-99366245D01*
X139815176Y-99366249D01*
X139726393Y-99556643D01*
X139726388Y-99556654D01*
X139724106Y-99561550D01*
X139722706Y-99566772D01*
X139722705Y-99566777D01*
X139668331Y-99769699D01*
X139668328Y-99769711D01*
X139666930Y-99774932D01*
X139666458Y-99780321D01*
X139666457Y-99780330D01*
X139650415Y-99963708D01*
X139647677Y-99995000D01*
X139648149Y-100000395D01*
X139666457Y-100209669D01*
X139666458Y-100209676D01*
X139666930Y-100215068D01*
X139668329Y-100220289D01*
X139668331Y-100220300D01*
X139722706Y-100423228D01*
X139722708Y-100423235D01*
X139724106Y-100428450D01*
X139730369Y-100441881D01*
X139789544Y-100568784D01*
X139817466Y-100628662D01*
X139820566Y-100633090D01*
X139820570Y-100633096D01*
X139891989Y-100735092D01*
X139944174Y-100809620D01*
X140100380Y-100965826D01*
X140150955Y-101001239D01*
X140276903Y-101089429D01*
X140276906Y-101089430D01*
X140281338Y-101092534D01*
X140481550Y-101185894D01*
X140486770Y-101187292D01*
X140486771Y-101187293D01*
X140689699Y-101241668D01*
X140689701Y-101241668D01*
X140694932Y-101243070D01*
X140915000Y-101262323D01*
X141135068Y-101243070D01*
X141348450Y-101185894D01*
X141548662Y-101092534D01*
X141655214Y-101017925D01*
X141689051Y-101001239D01*
X141726338Y-100995500D01*
X155260722Y-100995500D01*
X155263862Y-100995539D01*
X155351363Y-100997757D01*
X155409458Y-100987344D01*
X155418739Y-100986042D01*
X155477438Y-100980074D01*
X155506464Y-100970966D01*
X155521713Y-100967224D01*
X155551653Y-100961858D01*
X155606423Y-100939980D01*
X155615303Y-100936818D01*
X155671588Y-100919159D01*
X155698194Y-100904390D01*
X155712362Y-100897662D01*
X155740617Y-100886377D01*
X155789891Y-100853902D01*
X155797910Y-100849043D01*
X155849502Y-100820409D01*
X155867236Y-100805184D01*
X155872583Y-100800594D01*
X155885125Y-100791137D01*
X155910519Y-100774402D01*
X155952238Y-100732681D01*
X155959122Y-100726301D01*
X156003895Y-100687866D01*
X156022524Y-100663798D01*
X156032884Y-100652035D01*
X159118101Y-97566818D01*
X159158329Y-97539939D01*
X159205782Y-97530500D01*
X170489242Y-97530500D01*
X170536695Y-97539939D01*
X170569861Y-97562100D01*
X170570627Y-97561189D01*
X170574767Y-97564663D01*
X170578599Y-97568495D01*
X170583032Y-97571599D01*
X170583038Y-97571604D01*
X170764158Y-97698425D01*
X170803024Y-97742743D01*
X170817035Y-97800000D01*
X170803024Y-97857257D01*
X170764160Y-97901574D01*
X170578599Y-98031505D01*
X170574775Y-98035328D01*
X170574769Y-98035334D01*
X170415334Y-98194769D01*
X170415328Y-98194775D01*
X170411505Y-98198599D01*
X170408402Y-98203029D01*
X170408399Y-98203034D01*
X170279073Y-98387731D01*
X170279068Y-98387738D01*
X170275965Y-98392171D01*
X170273677Y-98397077D01*
X170273675Y-98397081D01*
X170178386Y-98601427D01*
X170178383Y-98601432D01*
X170176097Y-98606337D01*
X170174698Y-98611557D01*
X170174694Y-98611569D01*
X170116337Y-98829365D01*
X170116335Y-98829371D01*
X170114937Y-98834592D01*
X170114465Y-98839977D01*
X170114465Y-98839982D01*
X170098622Y-99021068D01*
X170094341Y-99070000D01*
X170114937Y-99305408D01*
X170116336Y-99310630D01*
X170116337Y-99310634D01*
X170174694Y-99528430D01*
X170174697Y-99528438D01*
X170176097Y-99533663D01*
X170178385Y-99538570D01*
X170178386Y-99538572D01*
X170273678Y-99742927D01*
X170273681Y-99742933D01*
X170275965Y-99747830D01*
X170279064Y-99752257D01*
X170279066Y-99752259D01*
X170408399Y-99936966D01*
X170408402Y-99936970D01*
X170411505Y-99941401D01*
X170578599Y-100108495D01*
X170583031Y-100111598D01*
X170583033Y-100111600D01*
X170764595Y-100238731D01*
X170803460Y-100283049D01*
X170817471Y-100340306D01*
X170803460Y-100397563D01*
X170764595Y-100441881D01*
X170583352Y-100568788D01*
X170575092Y-100575719D01*
X170415719Y-100735092D01*
X170408784Y-100743357D01*
X170279508Y-100927982D01*
X170274110Y-100937332D01*
X170178856Y-101141602D01*
X170175168Y-101151736D01*
X170123056Y-101346219D01*
X170122688Y-101357448D01*
X170133631Y-101360000D01*
X172766369Y-101360000D01*
X172777311Y-101357448D01*
X172776943Y-101346219D01*
X172724831Y-101151736D01*
X172721143Y-101141602D01*
X172625889Y-100937332D01*
X172620491Y-100927982D01*
X172491215Y-100743357D01*
X172484280Y-100735092D01*
X172324909Y-100575721D01*
X172316643Y-100568784D01*
X172135405Y-100441880D01*
X172096540Y-100397562D01*
X172082529Y-100340305D01*
X172096540Y-100283048D01*
X172135406Y-100238730D01*
X172176910Y-100209669D01*
X172321401Y-100108495D01*
X172325233Y-100104662D01*
X172329373Y-100101189D01*
X172330138Y-100102100D01*
X172363305Y-100079939D01*
X172410758Y-100070500D01*
X173965722Y-100070500D01*
X173968862Y-100070539D01*
X174056363Y-100072757D01*
X174114458Y-100062344D01*
X174123739Y-100061042D01*
X174182438Y-100055074D01*
X174211464Y-100045966D01*
X174226713Y-100042224D01*
X174256653Y-100036858D01*
X174311423Y-100014980D01*
X174320303Y-100011818D01*
X174376588Y-99994159D01*
X174403194Y-99979390D01*
X174417362Y-99972662D01*
X174445617Y-99961377D01*
X174494891Y-99928902D01*
X174502910Y-99924043D01*
X174554502Y-99895409D01*
X174565961Y-99885570D01*
X174577583Y-99875594D01*
X174590125Y-99866137D01*
X174615519Y-99849402D01*
X174657238Y-99807681D01*
X174664122Y-99801301D01*
X174708895Y-99762866D01*
X174727520Y-99738802D01*
X174737879Y-99727040D01*
X177227409Y-97237510D01*
X177229600Y-97235375D01*
X177293053Y-97175059D01*
X177326753Y-97126641D01*
X177332422Y-97119123D01*
X177365721Y-97078285D01*
X177365726Y-97078278D01*
X177369698Y-97073407D01*
X177383782Y-97046444D01*
X177391919Y-97033013D01*
X177409295Y-97008049D01*
X177432568Y-96953815D01*
X177436598Y-96945331D01*
X177460994Y-96898629D01*
X177463909Y-96893049D01*
X177472278Y-96863797D01*
X177477538Y-96849023D01*
X177489540Y-96821058D01*
X177501416Y-96763262D01*
X177503649Y-96754162D01*
X177519887Y-96697418D01*
X177522197Y-96667077D01*
X177524378Y-96651528D01*
X177530500Y-96621741D01*
X177530500Y-96562756D01*
X177530858Y-96553343D01*
X177533046Y-96524605D01*
X177535337Y-96494523D01*
X177531493Y-96464347D01*
X177530500Y-96448682D01*
X177530500Y-87644237D01*
X177530540Y-87641096D01*
X177532756Y-87553636D01*
X177522345Y-87495554D01*
X177521042Y-87486260D01*
X177515074Y-87427562D01*
X177505966Y-87398536D01*
X177502223Y-87383284D01*
X177497967Y-87359533D01*
X177497965Y-87359529D01*
X177496858Y-87353347D01*
X177494526Y-87347508D01*
X177474976Y-87298565D01*
X177471816Y-87289689D01*
X177469532Y-87282412D01*
X177454159Y-87233412D01*
X177439396Y-87206814D01*
X177432660Y-87192631D01*
X177423708Y-87170220D01*
X177421377Y-87164383D01*
X177388917Y-87115131D01*
X177384036Y-87107073D01*
X177358463Y-87061000D01*
X177358462Y-87060999D01*
X177355409Y-87055498D01*
X177335591Y-87032413D01*
X177326140Y-87019879D01*
X177309402Y-86994481D01*
X177267691Y-86952770D01*
X177261287Y-86945860D01*
X177226960Y-86905874D01*
X177222866Y-86901105D01*
X177217896Y-86897258D01*
X177217891Y-86897253D01*
X177198805Y-86882479D01*
X177187026Y-86872105D01*
X174707566Y-84392645D01*
X174705374Y-84390397D01*
X174645059Y-84326947D01*
X174638884Y-84322649D01*
X174596642Y-84293247D01*
X174589119Y-84287575D01*
X174548280Y-84254275D01*
X174548277Y-84254273D01*
X174543407Y-84250302D01*
X174516437Y-84236213D01*
X174503024Y-84228087D01*
X174478049Y-84210705D01*
X174423817Y-84187432D01*
X174415351Y-84183411D01*
X174363049Y-84156091D01*
X174333802Y-84147722D01*
X174319021Y-84142459D01*
X174296841Y-84132941D01*
X174296835Y-84132939D01*
X174291058Y-84130460D01*
X174284905Y-84129195D01*
X174284891Y-84129191D01*
X174233273Y-84118583D01*
X174224126Y-84116338D01*
X174173465Y-84101842D01*
X174173453Y-84101839D01*
X174167418Y-84100113D01*
X174161154Y-84099635D01*
X174161149Y-84099635D01*
X174137075Y-84097802D01*
X174121533Y-84095622D01*
X174097902Y-84090766D01*
X174097901Y-84090765D01*
X174091741Y-84089500D01*
X174085452Y-84089500D01*
X174032759Y-84089500D01*
X174023344Y-84089142D01*
X173970794Y-84085140D01*
X173970789Y-84085140D01*
X173964524Y-84084663D01*
X173958290Y-84085456D01*
X173958284Y-84085457D01*
X173934349Y-84088506D01*
X173918683Y-84089500D01*
X130005783Y-84089500D01*
X129958330Y-84080061D01*
X129918102Y-84053181D01*
X128036819Y-82171899D01*
X128009939Y-82131671D01*
X128000500Y-82084218D01*
X128000500Y-80821338D01*
X128006239Y-80784051D01*
X128022925Y-80750215D01*
X128060141Y-80697065D01*
X128097534Y-80643662D01*
X128190894Y-80443450D01*
X128248070Y-80230068D01*
X128267323Y-80010000D01*
X128248070Y-79789932D01*
X128190894Y-79576550D01*
X128182223Y-79557956D01*
X128106263Y-79395059D01*
X128097534Y-79376339D01*
X128060141Y-79322936D01*
X128022925Y-79269785D01*
X128006239Y-79235949D01*
X128000500Y-79198662D01*
X128000500Y-77484237D01*
X128000540Y-77481096D01*
X128001785Y-77431955D01*
X128002756Y-77393636D01*
X127992345Y-77335554D01*
X127991042Y-77326260D01*
X127985074Y-77267562D01*
X127975966Y-77238536D01*
X127972223Y-77223284D01*
X127967967Y-77199533D01*
X127967965Y-77199529D01*
X127966858Y-77193347D01*
X127959572Y-77175107D01*
X127944976Y-77138565D01*
X127941816Y-77129689D01*
X127929796Y-77091379D01*
X127924159Y-77073412D01*
X127909396Y-77046814D01*
X127902660Y-77032631D01*
X127893708Y-77010220D01*
X127891377Y-77004383D01*
X127858917Y-76955131D01*
X127854036Y-76947073D01*
X127828463Y-76901000D01*
X127828462Y-76900999D01*
X127825409Y-76895498D01*
X127805591Y-76872413D01*
X127796140Y-76859879D01*
X127779402Y-76834481D01*
X127737691Y-76792770D01*
X127731287Y-76785860D01*
X127704454Y-76754604D01*
X127692866Y-76741105D01*
X127687896Y-76737258D01*
X127687891Y-76737253D01*
X127668805Y-76722479D01*
X127657026Y-76712105D01*
X125177566Y-74232645D01*
X125175374Y-74230397D01*
X125174045Y-74228999D01*
X125115059Y-74166947D01*
X125086596Y-74147136D01*
X125066642Y-74133247D01*
X125059119Y-74127575D01*
X125018280Y-74094275D01*
X125018277Y-74094273D01*
X125013407Y-74090302D01*
X124986437Y-74076213D01*
X124973024Y-74068087D01*
X124948049Y-74050705D01*
X124893817Y-74027432D01*
X124885351Y-74023411D01*
X124833049Y-73996091D01*
X124803802Y-73987722D01*
X124789021Y-73982459D01*
X124766841Y-73972941D01*
X124766835Y-73972939D01*
X124761058Y-73970460D01*
X124754905Y-73969195D01*
X124754891Y-73969191D01*
X124703273Y-73958583D01*
X124694126Y-73956338D01*
X124643465Y-73941842D01*
X124643453Y-73941839D01*
X124637418Y-73940113D01*
X124631154Y-73939635D01*
X124631149Y-73939635D01*
X124607075Y-73937802D01*
X124591533Y-73935622D01*
X124567902Y-73930766D01*
X124567901Y-73930765D01*
X124561741Y-73929500D01*
X124555452Y-73929500D01*
X124502759Y-73929500D01*
X124493344Y-73929142D01*
X124440794Y-73925140D01*
X124440789Y-73925140D01*
X124434524Y-73924663D01*
X124428290Y-73925456D01*
X124428284Y-73925457D01*
X124404349Y-73928506D01*
X124388683Y-73929500D01*
X102884237Y-73929500D01*
X102881096Y-73929460D01*
X102799923Y-73927403D01*
X102799920Y-73927403D01*
X102793636Y-73927244D01*
X102787453Y-73928352D01*
X102787441Y-73928353D01*
X102735581Y-73937648D01*
X102726254Y-73938957D01*
X102673815Y-73944290D01*
X102673813Y-73944290D01*
X102667562Y-73944926D01*
X102661573Y-73946804D01*
X102661563Y-73946807D01*
X102638526Y-73954035D01*
X102623289Y-73957774D01*
X102599538Y-73962031D01*
X102599525Y-73962034D01*
X102593347Y-73963142D01*
X102587520Y-73965469D01*
X102587504Y-73965474D01*
X102538567Y-73985021D01*
X102529697Y-73988179D01*
X102479411Y-74003957D01*
X102479396Y-74003963D01*
X102473412Y-74005841D01*
X102467922Y-74008887D01*
X102467915Y-74008891D01*
X102446809Y-74020605D01*
X102432640Y-74027334D01*
X102410223Y-74036289D01*
X102410213Y-74036293D01*
X102404383Y-74038623D01*
X102399140Y-74042078D01*
X102399131Y-74042083D01*
X102355123Y-74071086D01*
X102347073Y-74075963D01*
X102295498Y-74104591D01*
X102290729Y-74108684D01*
X102290726Y-74108687D01*
X102272414Y-74124407D01*
X102259887Y-74133852D01*
X102239731Y-74147136D01*
X102239719Y-74147145D01*
X102234481Y-74150598D01*
X102230039Y-74155039D01*
X102230035Y-74155043D01*
X102192774Y-74192303D01*
X102185868Y-74198704D01*
X102145873Y-74233040D01*
X102145869Y-74233043D01*
X102141105Y-74237134D01*
X102137260Y-74242100D01*
X102137260Y-74242101D01*
X102122480Y-74261194D01*
X102112108Y-74272969D01*
X99632664Y-76752413D01*
X99630417Y-76754604D01*
X99571502Y-76810609D01*
X99571492Y-76810619D01*
X99566947Y-76814941D01*
X99563360Y-76820093D01*
X99563356Y-76820099D01*
X99533244Y-76863361D01*
X99527574Y-76870881D01*
X99494274Y-76911721D01*
X99494271Y-76911724D01*
X99490302Y-76916593D01*
X99487396Y-76922155D01*
X99487388Y-76922168D01*
X99476210Y-76943566D01*
X99468082Y-76956982D01*
X99454300Y-76976784D01*
X99454295Y-76976792D01*
X99450705Y-76981951D01*
X99448228Y-76987721D01*
X99448225Y-76987728D01*
X99427439Y-77036165D01*
X99423399Y-77044671D01*
X99396091Y-77096951D01*
X99394363Y-77102989D01*
X99394360Y-77102997D01*
X99387720Y-77126201D01*
X99382459Y-77140978D01*
X99372942Y-77163157D01*
X99370460Y-77168942D01*
X99369194Y-77175097D01*
X99369192Y-77175107D01*
X99358587Y-77226712D01*
X99356342Y-77235859D01*
X99341842Y-77286534D01*
X99341839Y-77286547D01*
X99340113Y-77292582D01*
X99339636Y-77298842D01*
X99339635Y-77298849D01*
X99337801Y-77322929D01*
X99335622Y-77338463D01*
X99330766Y-77362097D01*
X99329500Y-77368259D01*
X99329500Y-77374550D01*
X99329500Y-77427241D01*
X99329142Y-77436656D01*
X99325140Y-77489205D01*
X99325140Y-77489210D01*
X99324663Y-77495476D01*
X96520500Y-77495476D01*
X96520500Y-67310000D01*
X102872677Y-67310000D01*
X102873149Y-67315395D01*
X102891457Y-67524669D01*
X102891458Y-67524676D01*
X102891930Y-67530068D01*
X102893329Y-67535289D01*
X102893331Y-67535300D01*
X102947706Y-67738228D01*
X102947708Y-67738235D01*
X102949106Y-67743450D01*
X103042466Y-67943662D01*
X103045566Y-67948090D01*
X103045570Y-67948096D01*
X103117075Y-68050215D01*
X103169174Y-68124620D01*
X103325380Y-68280826D01*
X103415859Y-68344180D01*
X103501903Y-68404429D01*
X103501906Y-68404430D01*
X103506338Y-68407534D01*
X103706550Y-68500894D01*
X103711770Y-68502292D01*
X103711771Y-68502293D01*
X103914699Y-68556668D01*
X103914701Y-68556668D01*
X103919932Y-68558070D01*
X104140000Y-68577323D01*
X104360068Y-68558070D01*
X104573450Y-68500894D01*
X104773662Y-68407534D01*
X104954620Y-68280826D01*
X105110826Y-68124620D01*
X105237534Y-67943662D01*
X105297618Y-67814808D01*
X105343375Y-67762634D01*
X105410000Y-67743214D01*
X105476625Y-67762634D01*
X105522381Y-67814808D01*
X105582466Y-67943662D01*
X105585566Y-67948090D01*
X105585570Y-67948096D01*
X105657075Y-68050215D01*
X105709174Y-68124620D01*
X105865380Y-68280826D01*
X105955859Y-68344180D01*
X106041903Y-68404429D01*
X106041906Y-68404430D01*
X106046338Y-68407534D01*
X106246550Y-68500894D01*
X106251770Y-68502292D01*
X106251771Y-68502293D01*
X106454699Y-68556668D01*
X106454701Y-68556668D01*
X106459932Y-68558070D01*
X106680000Y-68577323D01*
X106900068Y-68558070D01*
X107113450Y-68500894D01*
X107313662Y-68407534D01*
X107494620Y-68280826D01*
X107650826Y-68124620D01*
X107777534Y-67943662D01*
X107837618Y-67814808D01*
X107883375Y-67762634D01*
X107950000Y-67743214D01*
X108016625Y-67762634D01*
X108062381Y-67814808D01*
X108122466Y-67943662D01*
X108125566Y-67948090D01*
X108125570Y-67948096D01*
X108197075Y-68050215D01*
X108249174Y-68124620D01*
X108405380Y-68280826D01*
X108495859Y-68344180D01*
X108581903Y-68404429D01*
X108581906Y-68404430D01*
X108586338Y-68407534D01*
X108786550Y-68500894D01*
X108791770Y-68502292D01*
X108791771Y-68502293D01*
X108994699Y-68556668D01*
X108994701Y-68556668D01*
X108999932Y-68558070D01*
X109220000Y-68577323D01*
X109440068Y-68558070D01*
X109653450Y-68500894D01*
X109853662Y-68407534D01*
X110034620Y-68280826D01*
X110190826Y-68124620D01*
X110317534Y-67943662D01*
X110377618Y-67814808D01*
X110423375Y-67762634D01*
X110490000Y-67743214D01*
X110556625Y-67762634D01*
X110602381Y-67814808D01*
X110662466Y-67943662D01*
X110665566Y-67948090D01*
X110665570Y-67948096D01*
X110737075Y-68050215D01*
X110789174Y-68124620D01*
X110945380Y-68280826D01*
X111035859Y-68344180D01*
X111121903Y-68404429D01*
X111121906Y-68404430D01*
X111126338Y-68407534D01*
X111326550Y-68500894D01*
X111331770Y-68502292D01*
X111331771Y-68502293D01*
X111534699Y-68556668D01*
X111534701Y-68556668D01*
X111539932Y-68558070D01*
X111760000Y-68577323D01*
X111980068Y-68558070D01*
X112193450Y-68500894D01*
X112393662Y-68407534D01*
X112574620Y-68280826D01*
X112730826Y-68124620D01*
X112857534Y-67943662D01*
X112917618Y-67814808D01*
X112963375Y-67762634D01*
X113030000Y-67743214D01*
X113096625Y-67762634D01*
X113142381Y-67814808D01*
X113202466Y-67943662D01*
X113205566Y-67948090D01*
X113205570Y-67948096D01*
X113277075Y-68050215D01*
X113329174Y-68124620D01*
X113485380Y-68280826D01*
X113575859Y-68344180D01*
X113661903Y-68404429D01*
X113661906Y-68404430D01*
X113666338Y-68407534D01*
X113866550Y-68500894D01*
X113871770Y-68502292D01*
X113871771Y-68502293D01*
X114074699Y-68556668D01*
X114074701Y-68556668D01*
X114079932Y-68558070D01*
X114300000Y-68577323D01*
X114520068Y-68558070D01*
X114733450Y-68500894D01*
X114933662Y-68407534D01*
X115114620Y-68280826D01*
X115270826Y-68124620D01*
X115397534Y-67943662D01*
X115457618Y-67814808D01*
X115503375Y-67762634D01*
X115570000Y-67743214D01*
X115636625Y-67762634D01*
X115682381Y-67814808D01*
X115742466Y-67943662D01*
X115745566Y-67948090D01*
X115745570Y-67948096D01*
X115817075Y-68050215D01*
X115869174Y-68124620D01*
X116025380Y-68280826D01*
X116115859Y-68344180D01*
X116201903Y-68404429D01*
X116201906Y-68404430D01*
X116206338Y-68407534D01*
X116406550Y-68500894D01*
X116411770Y-68502292D01*
X116411771Y-68502293D01*
X116614699Y-68556668D01*
X116614701Y-68556668D01*
X116619932Y-68558070D01*
X116840000Y-68577323D01*
X117060068Y-68558070D01*
X117273450Y-68500894D01*
X117473662Y-68407534D01*
X117654620Y-68280826D01*
X117810826Y-68124620D01*
X117937534Y-67943662D01*
X117997618Y-67814808D01*
X118043375Y-67762634D01*
X118110000Y-67743214D01*
X118176625Y-67762634D01*
X118222381Y-67814808D01*
X118282466Y-67943662D01*
X118285566Y-67948090D01*
X118285570Y-67948096D01*
X118357075Y-68050215D01*
X118409174Y-68124620D01*
X118565380Y-68280826D01*
X118655859Y-68344180D01*
X118741903Y-68404429D01*
X118741906Y-68404430D01*
X118746338Y-68407534D01*
X118946550Y-68500894D01*
X118951770Y-68502292D01*
X118951771Y-68502293D01*
X119154699Y-68556668D01*
X119154701Y-68556668D01*
X119159932Y-68558070D01*
X119380000Y-68577323D01*
X119600068Y-68558070D01*
X119813450Y-68500894D01*
X120013662Y-68407534D01*
X120194620Y-68280826D01*
X120350826Y-68124620D01*
X120477534Y-67943662D01*
X120537618Y-67814808D01*
X120583375Y-67762634D01*
X120650000Y-67743214D01*
X120716625Y-67762634D01*
X120762381Y-67814808D01*
X120822466Y-67943662D01*
X120825566Y-67948090D01*
X120825570Y-67948096D01*
X120897075Y-68050215D01*
X120949174Y-68124620D01*
X121105380Y-68280826D01*
X121195859Y-68344180D01*
X121281903Y-68404429D01*
X121281906Y-68404430D01*
X121286338Y-68407534D01*
X121486550Y-68500894D01*
X121491770Y-68502292D01*
X121491771Y-68502293D01*
X121694699Y-68556668D01*
X121694701Y-68556668D01*
X121699932Y-68558070D01*
X121920000Y-68577323D01*
X122140068Y-68558070D01*
X122353450Y-68500894D01*
X122553662Y-68407534D01*
X122734620Y-68280826D01*
X122890826Y-68124620D01*
X123017534Y-67943662D01*
X123077618Y-67814808D01*
X123123375Y-67762634D01*
X123190000Y-67743214D01*
X123256625Y-67762634D01*
X123302381Y-67814808D01*
X123362466Y-67943662D01*
X123365566Y-67948090D01*
X123365570Y-67948096D01*
X123437075Y-68050215D01*
X123489174Y-68124620D01*
X123645380Y-68280826D01*
X123735859Y-68344180D01*
X123821903Y-68404429D01*
X123821906Y-68404430D01*
X123826338Y-68407534D01*
X124026550Y-68500894D01*
X124031770Y-68502292D01*
X124031771Y-68502293D01*
X124234699Y-68556668D01*
X124234701Y-68556668D01*
X124239932Y-68558070D01*
X124460000Y-68577323D01*
X124680068Y-68558070D01*
X124893450Y-68500894D01*
X125093662Y-68407534D01*
X125274620Y-68280826D01*
X125430826Y-68124620D01*
X125557534Y-67943662D01*
X125617618Y-67814808D01*
X125663375Y-67762634D01*
X125730000Y-67743214D01*
X125796625Y-67762634D01*
X125842381Y-67814808D01*
X125902466Y-67943662D01*
X125905566Y-67948090D01*
X125905570Y-67948096D01*
X125977075Y-68050215D01*
X125993761Y-68084051D01*
X125999500Y-68121338D01*
X125999500Y-73645722D01*
X125999460Y-73648862D01*
X125997243Y-73736363D01*
X125998351Y-73742548D01*
X125998352Y-73742554D01*
X126007648Y-73794420D01*
X126008957Y-73803748D01*
X126014289Y-73856180D01*
X126014290Y-73856185D01*
X126014926Y-73862438D01*
X126016807Y-73868435D01*
X126016810Y-73868447D01*
X126024032Y-73891466D01*
X126027772Y-73906702D01*
X126032031Y-73930464D01*
X126032035Y-73930478D01*
X126033142Y-73936653D01*
X126035471Y-73942483D01*
X126055020Y-73991425D01*
X126058179Y-74000298D01*
X126064551Y-74020605D01*
X126075841Y-74056588D01*
X126084714Y-74072575D01*
X126090603Y-74083184D01*
X126097337Y-74097363D01*
X126106290Y-74119778D01*
X126106292Y-74119783D01*
X126108623Y-74125617D01*
X126112082Y-74130866D01*
X126112085Y-74130871D01*
X126141080Y-74174867D01*
X126145961Y-74182923D01*
X126171536Y-74228999D01*
X126171538Y-74229002D01*
X126174591Y-74234502D01*
X126178689Y-74239275D01*
X126194404Y-74257581D01*
X126203855Y-74270116D01*
X126217133Y-74290263D01*
X126217138Y-74290269D01*
X126220598Y-74295519D01*
X126225045Y-74299966D01*
X126262300Y-74337221D01*
X126268705Y-74344131D01*
X126307134Y-74388895D01*
X126331198Y-74407522D01*
X126342968Y-74417889D01*
X133902450Y-81977371D01*
X133904643Y-81979620D01*
X133964941Y-82043053D01*
X133993405Y-82062864D01*
X134013352Y-82076748D01*
X134020875Y-82082421D01*
X134061712Y-82115719D01*
X134061717Y-82115722D01*
X134066593Y-82119698D01*
X134089514Y-82131671D01*
X134093556Y-82133782D01*
X134106980Y-82141915D01*
X134131951Y-82159295D01*
X134186163Y-82182559D01*
X134194673Y-82186601D01*
X134246951Y-82213909D01*
X134276195Y-82222276D01*
X134290979Y-82227539D01*
X134318942Y-82239540D01*
X134376727Y-82251414D01*
X134385869Y-82253657D01*
X134442582Y-82269886D01*
X134448857Y-82270363D01*
X134448858Y-82270364D01*
X134452331Y-82270628D01*
X134472915Y-82272195D01*
X134488459Y-82274376D01*
X134512096Y-82279234D01*
X134512100Y-82279234D01*
X134518259Y-82280500D01*
X134577244Y-82280500D01*
X134586660Y-82280858D01*
X134645476Y-82285337D01*
X134675651Y-82281493D01*
X134691317Y-82280500D01*
X173975722Y-82280500D01*
X173978862Y-82280539D01*
X174066363Y-82282757D01*
X174124458Y-82272344D01*
X174133739Y-82271042D01*
X174192438Y-82265074D01*
X174221464Y-82255966D01*
X174236713Y-82252224D01*
X174266653Y-82246858D01*
X174321423Y-82224980D01*
X174330303Y-82221818D01*
X174349994Y-82215640D01*
X174386588Y-82204159D01*
X174413194Y-82189390D01*
X174427362Y-82182662D01*
X174455617Y-82171377D01*
X174504891Y-82138902D01*
X174512910Y-82134043D01*
X174564502Y-82105409D01*
X174575961Y-82095570D01*
X174587583Y-82085594D01*
X174600125Y-82076137D01*
X174625519Y-82059402D01*
X174667238Y-82017681D01*
X174674122Y-82011301D01*
X174718895Y-81972866D01*
X174737520Y-81948802D01*
X174747879Y-81937040D01*
X177227409Y-79457510D01*
X177229579Y-79455394D01*
X177293053Y-79395059D01*
X177326763Y-79346624D01*
X177332405Y-79339141D01*
X177369697Y-79293408D01*
X177383781Y-79266443D01*
X177391909Y-79253025D01*
X177409295Y-79228049D01*
X177432568Y-79173815D01*
X177436595Y-79165336D01*
X177463909Y-79113049D01*
X177472275Y-79083808D01*
X177477539Y-79069019D01*
X177489540Y-79041058D01*
X177501421Y-78983238D01*
X177503650Y-78974155D01*
X177519886Y-78917418D01*
X177522195Y-78887082D01*
X177524376Y-78871539D01*
X177529234Y-78847901D01*
X177529233Y-78847901D01*
X177530500Y-78841741D01*
X177530500Y-78782756D01*
X177530858Y-78773340D01*
X177531349Y-78766895D01*
X177535337Y-78714524D01*
X177531493Y-78684348D01*
X177530500Y-78668683D01*
X177530500Y-74944237D01*
X177530540Y-74941096D01*
X177530958Y-74924605D01*
X177532756Y-74853636D01*
X177522345Y-74795554D01*
X177521042Y-74786260D01*
X177515074Y-74727562D01*
X177505966Y-74698536D01*
X177502223Y-74683284D01*
X177497967Y-74659533D01*
X177497965Y-74659529D01*
X177496858Y-74653347D01*
X177494526Y-74647508D01*
X177474976Y-74598565D01*
X177471816Y-74589689D01*
X177469532Y-74582412D01*
X177454159Y-74533412D01*
X177439396Y-74506814D01*
X177432660Y-74492631D01*
X177423708Y-74470220D01*
X177421377Y-74464383D01*
X177388917Y-74415131D01*
X177384036Y-74407073D01*
X177358463Y-74361000D01*
X177358462Y-74360999D01*
X177355409Y-74355498D01*
X177335591Y-74332413D01*
X177326140Y-74319879D01*
X177309402Y-74294481D01*
X177267691Y-74252770D01*
X177261287Y-74245860D01*
X177251536Y-74234502D01*
X177222866Y-74201105D01*
X177217896Y-74197258D01*
X177217891Y-74197253D01*
X177198805Y-74182479D01*
X177187026Y-74172105D01*
X174707566Y-71692645D01*
X174705374Y-71690397D01*
X174704045Y-71688999D01*
X174645059Y-71626947D01*
X174638884Y-71622649D01*
X174596642Y-71593247D01*
X174589119Y-71587575D01*
X174548280Y-71554275D01*
X174548277Y-71554273D01*
X174543407Y-71550302D01*
X174516437Y-71536213D01*
X174503024Y-71528087D01*
X174478049Y-71510705D01*
X174423817Y-71487432D01*
X174415351Y-71483411D01*
X174363049Y-71456091D01*
X174333802Y-71447722D01*
X174319021Y-71442459D01*
X174296841Y-71432941D01*
X174296835Y-71432939D01*
X174291058Y-71430460D01*
X174284905Y-71429195D01*
X174284891Y-71429191D01*
X174233273Y-71418583D01*
X174224126Y-71416338D01*
X174173465Y-71401842D01*
X174173453Y-71401839D01*
X174167418Y-71400113D01*
X174161154Y-71399635D01*
X174161149Y-71399635D01*
X174137075Y-71397802D01*
X174121533Y-71395622D01*
X174097902Y-71390766D01*
X174097901Y-71390765D01*
X174091741Y-71389500D01*
X174085452Y-71389500D01*
X174032759Y-71389500D01*
X174023344Y-71389142D01*
X173970794Y-71385140D01*
X173970789Y-71385140D01*
X173964524Y-71384663D01*
X173958290Y-71385456D01*
X173958284Y-71385457D01*
X173934349Y-71388506D01*
X173918683Y-71389500D01*
X172410758Y-71389500D01*
X172363305Y-71380061D01*
X172330138Y-71357899D01*
X172329373Y-71358811D01*
X172325230Y-71355334D01*
X172321401Y-71351505D01*
X172316970Y-71348402D01*
X172316966Y-71348399D01*
X172135405Y-71221269D01*
X172096540Y-71176951D01*
X172082529Y-71119694D01*
X172096540Y-71062437D01*
X172135406Y-71018119D01*
X172316638Y-70891219D01*
X172324909Y-70884278D01*
X172484278Y-70724909D01*
X172491215Y-70716643D01*
X172620498Y-70532008D01*
X172625886Y-70522676D01*
X172721143Y-70318397D01*
X172724831Y-70308263D01*
X172776943Y-70113780D01*
X172777311Y-70102551D01*
X172766369Y-70100000D01*
X170133631Y-70100000D01*
X170122688Y-70102551D01*
X170123056Y-70113780D01*
X170175168Y-70308263D01*
X170178856Y-70318397D01*
X170274113Y-70522676D01*
X170279501Y-70532008D01*
X170408784Y-70716643D01*
X170415721Y-70724909D01*
X170575090Y-70884278D01*
X170583356Y-70891215D01*
X170764595Y-71018120D01*
X170803460Y-71062438D01*
X170817471Y-71119695D01*
X170803460Y-71176952D01*
X170764594Y-71221270D01*
X170583034Y-71348399D01*
X170583029Y-71348402D01*
X170578599Y-71351505D01*
X170574775Y-71355328D01*
X170574769Y-71355334D01*
X170415334Y-71514769D01*
X170415328Y-71514775D01*
X170411505Y-71518599D01*
X170408402Y-71523029D01*
X170408399Y-71523034D01*
X170279073Y-71707731D01*
X170279068Y-71707738D01*
X170275965Y-71712171D01*
X170273677Y-71717077D01*
X170273675Y-71717081D01*
X170178386Y-71921427D01*
X170178383Y-71921432D01*
X170176097Y-71926337D01*
X170174698Y-71931557D01*
X170174694Y-71931569D01*
X170116337Y-72149365D01*
X170116335Y-72149371D01*
X170114937Y-72154592D01*
X170094341Y-72390000D01*
X170094813Y-72395395D01*
X170106917Y-72533748D01*
X170114937Y-72625408D01*
X170116336Y-72630630D01*
X170116337Y-72630634D01*
X170174694Y-72848430D01*
X170174697Y-72848438D01*
X170176097Y-72853663D01*
X170178385Y-72858570D01*
X170178386Y-72858572D01*
X170273678Y-73062927D01*
X170273681Y-73062933D01*
X170275965Y-73067830D01*
X170279064Y-73072257D01*
X170279066Y-73072259D01*
X170408399Y-73256966D01*
X170408402Y-73256970D01*
X170411505Y-73261401D01*
X170578599Y-73428495D01*
X170583032Y-73431599D01*
X170583038Y-73431604D01*
X170764158Y-73558425D01*
X170803024Y-73602743D01*
X170817035Y-73660000D01*
X170803024Y-73717257D01*
X170764159Y-73761575D01*
X170583041Y-73888395D01*
X170578599Y-73891505D01*
X170574771Y-73895332D01*
X170570624Y-73898813D01*
X170569858Y-73897901D01*
X170536695Y-73920061D01*
X170489242Y-73929500D01*
X138895782Y-73929500D01*
X138848329Y-73920061D01*
X138808101Y-73893181D01*
X135656819Y-70741899D01*
X135629939Y-70701671D01*
X135620500Y-70654218D01*
X135620500Y-69597448D01*
X170122688Y-69597448D01*
X170133631Y-69600000D01*
X171183674Y-69600000D01*
X171196549Y-69596549D01*
X171200000Y-69583674D01*
X171700000Y-69583674D01*
X171703450Y-69596549D01*
X171716326Y-69600000D01*
X172766369Y-69600000D01*
X172777311Y-69597448D01*
X172776943Y-69586219D01*
X172724831Y-69391736D01*
X172721143Y-69381602D01*
X172625889Y-69177332D01*
X172620491Y-69167982D01*
X172491215Y-68983357D01*
X172484280Y-68975092D01*
X172324909Y-68815721D01*
X172316643Y-68808784D01*
X172132008Y-68679501D01*
X172122676Y-68674113D01*
X171918397Y-68578856D01*
X171908263Y-68575168D01*
X171713780Y-68523056D01*
X171702551Y-68522688D01*
X171700000Y-68533631D01*
X171700000Y-69583674D01*
X171200000Y-69583674D01*
X171200000Y-68533631D01*
X171197448Y-68522688D01*
X171186219Y-68523056D01*
X170991736Y-68575168D01*
X170981602Y-68578856D01*
X170777332Y-68674110D01*
X170767982Y-68679508D01*
X170583357Y-68808784D01*
X170575092Y-68815719D01*
X170415719Y-68975092D01*
X170408784Y-68983357D01*
X170279508Y-69167982D01*
X170274110Y-69177332D01*
X170178856Y-69381602D01*
X170175168Y-69391736D01*
X170123056Y-69586219D01*
X170122688Y-69597448D01*
X135620500Y-69597448D01*
X135620500Y-66054278D01*
X135620540Y-66051137D01*
X135621786Y-66001955D01*
X135622757Y-65963637D01*
X135612344Y-65905545D01*
X135611042Y-65896253D01*
X135605074Y-65837562D01*
X135595964Y-65808528D01*
X135592222Y-65793279D01*
X135589831Y-65779939D01*
X135586858Y-65763348D01*
X135564975Y-65708563D01*
X135561824Y-65699714D01*
X135544159Y-65643412D01*
X135529396Y-65616814D01*
X135522663Y-65602636D01*
X135513710Y-65580222D01*
X135513709Y-65580220D01*
X135511378Y-65574383D01*
X135478901Y-65525106D01*
X135474031Y-65517066D01*
X135472088Y-65513566D01*
X135457118Y-65486593D01*
X135448462Y-65470998D01*
X135448460Y-65470996D01*
X135445409Y-65465498D01*
X135425591Y-65442413D01*
X135416143Y-65429882D01*
X135402866Y-65409736D01*
X135402859Y-65409727D01*
X135399402Y-65404482D01*
X135357697Y-65362777D01*
X135351293Y-65355867D01*
X135316960Y-65315874D01*
X135312866Y-65311105D01*
X135288801Y-65292477D01*
X135277022Y-65282102D01*
X131527567Y-61532647D01*
X131525374Y-61530398D01*
X131469390Y-61471503D01*
X131469389Y-61471502D01*
X131465059Y-61466947D01*
X131459897Y-61463354D01*
X131416642Y-61433247D01*
X131409119Y-61427575D01*
X131368280Y-61394275D01*
X131368277Y-61394273D01*
X131363407Y-61390302D01*
X131336437Y-61376213D01*
X131323024Y-61368087D01*
X131298049Y-61350705D01*
X131243817Y-61327432D01*
X131235351Y-61323411D01*
X131183049Y-61296091D01*
X131153802Y-61287722D01*
X131139021Y-61282459D01*
X131116841Y-61272941D01*
X131116835Y-61272939D01*
X131111058Y-61270460D01*
X131104905Y-61269195D01*
X131104891Y-61269191D01*
X131053273Y-61258583D01*
X131044126Y-61256338D01*
X130993465Y-61241842D01*
X130993453Y-61241839D01*
X130987418Y-61240113D01*
X130981154Y-61239635D01*
X130981149Y-61239635D01*
X130957075Y-61237802D01*
X130941533Y-61235622D01*
X130917902Y-61230766D01*
X130917901Y-61230765D01*
X130911741Y-61229500D01*
X130905452Y-61229500D01*
X130852759Y-61229500D01*
X130843344Y-61229142D01*
X130790794Y-61225140D01*
X130790789Y-61225140D01*
X130784524Y-61224663D01*
X130778290Y-61225456D01*
X130778284Y-61225457D01*
X130754349Y-61228506D01*
X130738683Y-61229500D01*
X124474237Y-61229500D01*
X124471096Y-61229460D01*
X124389923Y-61227403D01*
X124389920Y-61227403D01*
X124383636Y-61227244D01*
X124377453Y-61228352D01*
X124377441Y-61228353D01*
X124325581Y-61237648D01*
X124316254Y-61238957D01*
X124263815Y-61244290D01*
X124263813Y-61244290D01*
X124257562Y-61244926D01*
X124251573Y-61246804D01*
X124251563Y-61246807D01*
X124228526Y-61254035D01*
X124213289Y-61257774D01*
X124189538Y-61262031D01*
X124189525Y-61262034D01*
X124183347Y-61263142D01*
X124177520Y-61265469D01*
X124177504Y-61265474D01*
X124128567Y-61285021D01*
X124119697Y-61288179D01*
X124069411Y-61303957D01*
X124069396Y-61303963D01*
X124063412Y-61305841D01*
X124057922Y-61308887D01*
X124057915Y-61308891D01*
X124036809Y-61320605D01*
X124022640Y-61327334D01*
X124000223Y-61336289D01*
X124000213Y-61336293D01*
X123994383Y-61338623D01*
X123989140Y-61342078D01*
X123989131Y-61342083D01*
X123945123Y-61371086D01*
X123937073Y-61375963D01*
X123885498Y-61404591D01*
X123880729Y-61408684D01*
X123880726Y-61408687D01*
X123862414Y-61424407D01*
X123849887Y-61433852D01*
X123829731Y-61447136D01*
X123829719Y-61447145D01*
X123824481Y-61450598D01*
X123820039Y-61455039D01*
X123820035Y-61455043D01*
X123782774Y-61492303D01*
X123775868Y-61498704D01*
X123735873Y-61533040D01*
X123735869Y-61533043D01*
X123731105Y-61537134D01*
X123727260Y-61542100D01*
X123727260Y-61542101D01*
X123712480Y-61561194D01*
X123702108Y-61572969D01*
X121222664Y-64052413D01*
X121220417Y-64054604D01*
X121161502Y-64110609D01*
X121161492Y-64110619D01*
X121156947Y-64114941D01*
X121153360Y-64120093D01*
X121153356Y-64120099D01*
X121123244Y-64163361D01*
X121117574Y-64170881D01*
X121084274Y-64211721D01*
X121084271Y-64211724D01*
X121080302Y-64216593D01*
X121077396Y-64222155D01*
X121077388Y-64222168D01*
X121066210Y-64243566D01*
X121058082Y-64256982D01*
X121044300Y-64276784D01*
X121044295Y-64276792D01*
X121040705Y-64281951D01*
X121038228Y-64287721D01*
X121038225Y-64287728D01*
X121017439Y-64336165D01*
X121013399Y-64344671D01*
X120986091Y-64396951D01*
X120984363Y-64402989D01*
X120984360Y-64402997D01*
X120977720Y-64426201D01*
X120972459Y-64440978D01*
X120962942Y-64463157D01*
X120960460Y-64468942D01*
X120959194Y-64475097D01*
X120959192Y-64475107D01*
X120948587Y-64526712D01*
X120946342Y-64535859D01*
X120931842Y-64586534D01*
X120931839Y-64586547D01*
X120930113Y-64592582D01*
X120929636Y-64598842D01*
X120929635Y-64598849D01*
X120927801Y-64622929D01*
X120925622Y-64638463D01*
X120920766Y-64662097D01*
X120919500Y-64668259D01*
X120919500Y-64674550D01*
X120919500Y-64727241D01*
X120919142Y-64736656D01*
X120915140Y-64789205D01*
X120915140Y-64789210D01*
X120914663Y-64795476D01*
X120915456Y-64801709D01*
X120915457Y-64801715D01*
X120918506Y-64825651D01*
X120919500Y-64841317D01*
X120919500Y-66498662D01*
X120913761Y-66535949D01*
X120897075Y-66569785D01*
X120825574Y-66671899D01*
X120825569Y-66671906D01*
X120822466Y-66676339D01*
X120820178Y-66681245D01*
X120820176Y-66681249D01*
X120762382Y-66805189D01*
X120716625Y-66857365D01*
X120650000Y-66876784D01*
X120583375Y-66857365D01*
X120537618Y-66805189D01*
X120522194Y-66772112D01*
X120477534Y-66676339D01*
X120350826Y-66495380D01*
X120194620Y-66339174D01*
X120166056Y-66319173D01*
X120018096Y-66215570D01*
X120018090Y-66215566D01*
X120013662Y-66212466D01*
X120008757Y-66210178D01*
X120008754Y-66210177D01*
X119877972Y-66149193D01*
X119813450Y-66119106D01*
X119808235Y-66117708D01*
X119808228Y-66117706D01*
X119605300Y-66063331D01*
X119605289Y-66063329D01*
X119600068Y-66061930D01*
X119594676Y-66061458D01*
X119594669Y-66061457D01*
X119385395Y-66043149D01*
X119380000Y-66042677D01*
X119374605Y-66043149D01*
X119165330Y-66061457D01*
X119165321Y-66061458D01*
X119159932Y-66061930D01*
X119154711Y-66063328D01*
X119154699Y-66063331D01*
X118951777Y-66117705D01*
X118951772Y-66117706D01*
X118946550Y-66119106D01*
X118941654Y-66121388D01*
X118941643Y-66121393D01*
X118751249Y-66210176D01*
X118751245Y-66210178D01*
X118746339Y-66212466D01*
X118741906Y-66215569D01*
X118741899Y-66215574D01*
X118569815Y-66336068D01*
X118569810Y-66336071D01*
X118565380Y-66339174D01*
X118561556Y-66342997D01*
X118561550Y-66343003D01*
X118413003Y-66491550D01*
X118412997Y-66491556D01*
X118409174Y-66495380D01*
X118406071Y-66499810D01*
X118406068Y-66499815D01*
X118285574Y-66671899D01*
X118285569Y-66671906D01*
X118282466Y-66676339D01*
X118280178Y-66681245D01*
X118280176Y-66681249D01*
X118222382Y-66805189D01*
X118176625Y-66857365D01*
X118110000Y-66876784D01*
X118043375Y-66857365D01*
X117997618Y-66805189D01*
X117982194Y-66772112D01*
X117937534Y-66676339D01*
X117810826Y-66495380D01*
X117654620Y-66339174D01*
X117626056Y-66319173D01*
X117478096Y-66215570D01*
X117478090Y-66215566D01*
X117473662Y-66212466D01*
X117468757Y-66210178D01*
X117468754Y-66210177D01*
X117337972Y-66149193D01*
X117273450Y-66119106D01*
X117268235Y-66117708D01*
X117268228Y-66117706D01*
X117065300Y-66063331D01*
X117065289Y-66063329D01*
X117060068Y-66061930D01*
X117054676Y-66061458D01*
X117054669Y-66061457D01*
X116845395Y-66043149D01*
X116840000Y-66042677D01*
X116834605Y-66043149D01*
X116625330Y-66061457D01*
X116625321Y-66061458D01*
X116619932Y-66061930D01*
X116614711Y-66063328D01*
X116614699Y-66063331D01*
X116411777Y-66117705D01*
X116411772Y-66117706D01*
X116406550Y-66119106D01*
X116401654Y-66121388D01*
X116401643Y-66121393D01*
X116211249Y-66210176D01*
X116211245Y-66210178D01*
X116206339Y-66212466D01*
X116201906Y-66215569D01*
X116201899Y-66215574D01*
X116029815Y-66336068D01*
X116029810Y-66336071D01*
X116025380Y-66339174D01*
X116021556Y-66342997D01*
X116021550Y-66343003D01*
X115873003Y-66491550D01*
X115872997Y-66491556D01*
X115869174Y-66495380D01*
X115866071Y-66499810D01*
X115866068Y-66499815D01*
X115745574Y-66671899D01*
X115745569Y-66671906D01*
X115742466Y-66676339D01*
X115740178Y-66681245D01*
X115740176Y-66681249D01*
X115682382Y-66805189D01*
X115636625Y-66857365D01*
X115570000Y-66876784D01*
X115503375Y-66857365D01*
X115457618Y-66805189D01*
X115442194Y-66772112D01*
X115397534Y-66676339D01*
X115270826Y-66495380D01*
X115114620Y-66339174D01*
X115086056Y-66319173D01*
X114938096Y-66215570D01*
X114938090Y-66215566D01*
X114933662Y-66212466D01*
X114928757Y-66210178D01*
X114928754Y-66210177D01*
X114797972Y-66149193D01*
X114733450Y-66119106D01*
X114728235Y-66117708D01*
X114728228Y-66117706D01*
X114525300Y-66063331D01*
X114525289Y-66063329D01*
X114520068Y-66061930D01*
X114514676Y-66061458D01*
X114514669Y-66061457D01*
X114305395Y-66043149D01*
X114300000Y-66042677D01*
X114294605Y-66043149D01*
X114085330Y-66061457D01*
X114085321Y-66061458D01*
X114079932Y-66061930D01*
X114074711Y-66063328D01*
X114074699Y-66063331D01*
X113871777Y-66117705D01*
X113871772Y-66117706D01*
X113866550Y-66119106D01*
X113861654Y-66121388D01*
X113861643Y-66121393D01*
X113671249Y-66210176D01*
X113671245Y-66210178D01*
X113666339Y-66212466D01*
X113661906Y-66215569D01*
X113661899Y-66215574D01*
X113489815Y-66336068D01*
X113489810Y-66336071D01*
X113485380Y-66339174D01*
X113481556Y-66342997D01*
X113481550Y-66343003D01*
X113333003Y-66491550D01*
X113332997Y-66491556D01*
X113329174Y-66495380D01*
X113326071Y-66499810D01*
X113326068Y-66499815D01*
X113205574Y-66671899D01*
X113205569Y-66671906D01*
X113202466Y-66676339D01*
X113200178Y-66681245D01*
X113200176Y-66681249D01*
X113142382Y-66805189D01*
X113096625Y-66857365D01*
X113030000Y-66876784D01*
X112963375Y-66857365D01*
X112917618Y-66805189D01*
X112902194Y-66772112D01*
X112857534Y-66676339D01*
X112730826Y-66495380D01*
X112574620Y-66339174D01*
X112546056Y-66319173D01*
X112398096Y-66215570D01*
X112398090Y-66215566D01*
X112393662Y-66212466D01*
X112388757Y-66210178D01*
X112388754Y-66210177D01*
X112257972Y-66149193D01*
X112193450Y-66119106D01*
X112188235Y-66117708D01*
X112188228Y-66117706D01*
X111985300Y-66063331D01*
X111985289Y-66063329D01*
X111980068Y-66061930D01*
X111974676Y-66061458D01*
X111974669Y-66061457D01*
X111765395Y-66043149D01*
X111760000Y-66042677D01*
X111754605Y-66043149D01*
X111545330Y-66061457D01*
X111545321Y-66061458D01*
X111539932Y-66061930D01*
X111534711Y-66063328D01*
X111534699Y-66063331D01*
X111331777Y-66117705D01*
X111331772Y-66117706D01*
X111326550Y-66119106D01*
X111321654Y-66121388D01*
X111321643Y-66121393D01*
X111131249Y-66210176D01*
X111131245Y-66210178D01*
X111126339Y-66212466D01*
X111121906Y-66215569D01*
X111121899Y-66215574D01*
X110949815Y-66336068D01*
X110949810Y-66336071D01*
X110945380Y-66339174D01*
X110941556Y-66342997D01*
X110941550Y-66343003D01*
X110793003Y-66491550D01*
X110792997Y-66491556D01*
X110789174Y-66495380D01*
X110786071Y-66499810D01*
X110786068Y-66499815D01*
X110665574Y-66671899D01*
X110665569Y-66671906D01*
X110662466Y-66676339D01*
X110660178Y-66681245D01*
X110660176Y-66681249D01*
X110602382Y-66805189D01*
X110556625Y-66857365D01*
X110490000Y-66876784D01*
X110423375Y-66857365D01*
X110377618Y-66805189D01*
X110362194Y-66772112D01*
X110317534Y-66676339D01*
X110190826Y-66495380D01*
X110034620Y-66339174D01*
X110006056Y-66319173D01*
X109858096Y-66215570D01*
X109858090Y-66215566D01*
X109853662Y-66212466D01*
X109848757Y-66210178D01*
X109848754Y-66210177D01*
X109717972Y-66149193D01*
X109653450Y-66119106D01*
X109648235Y-66117708D01*
X109648228Y-66117706D01*
X109445300Y-66063331D01*
X109445289Y-66063329D01*
X109440068Y-66061930D01*
X109434676Y-66061458D01*
X109434669Y-66061457D01*
X109225395Y-66043149D01*
X109220000Y-66042677D01*
X109214605Y-66043149D01*
X109005330Y-66061457D01*
X109005321Y-66061458D01*
X108999932Y-66061930D01*
X108994711Y-66063328D01*
X108994699Y-66063331D01*
X108791777Y-66117705D01*
X108791772Y-66117706D01*
X108786550Y-66119106D01*
X108781654Y-66121388D01*
X108781643Y-66121393D01*
X108591249Y-66210176D01*
X108591245Y-66210178D01*
X108586339Y-66212466D01*
X108581906Y-66215569D01*
X108581899Y-66215574D01*
X108409815Y-66336068D01*
X108409810Y-66336071D01*
X108405380Y-66339174D01*
X108401556Y-66342997D01*
X108401550Y-66343003D01*
X108253003Y-66491550D01*
X108252997Y-66491556D01*
X108249174Y-66495380D01*
X108246071Y-66499810D01*
X108246068Y-66499815D01*
X108125574Y-66671899D01*
X108125569Y-66671906D01*
X108122466Y-66676339D01*
X108120178Y-66681245D01*
X108120176Y-66681249D01*
X108062382Y-66805189D01*
X108016625Y-66857365D01*
X107950000Y-66876784D01*
X107883375Y-66857365D01*
X107837618Y-66805189D01*
X107822194Y-66772112D01*
X107777534Y-66676339D01*
X107650826Y-66495380D01*
X107494620Y-66339174D01*
X107466056Y-66319173D01*
X107318096Y-66215570D01*
X107318090Y-66215566D01*
X107313662Y-66212466D01*
X107308757Y-66210178D01*
X107308754Y-66210177D01*
X107177972Y-66149193D01*
X107113450Y-66119106D01*
X107108235Y-66117708D01*
X107108228Y-66117706D01*
X106905300Y-66063331D01*
X106905289Y-66063329D01*
X106900068Y-66061930D01*
X106894676Y-66061458D01*
X106894669Y-66061457D01*
X106685395Y-66043149D01*
X106680000Y-66042677D01*
X106674605Y-66043149D01*
X106465330Y-66061457D01*
X106465321Y-66061458D01*
X106459932Y-66061930D01*
X106454711Y-66063328D01*
X106454699Y-66063331D01*
X106251777Y-66117705D01*
X106251772Y-66117706D01*
X106246550Y-66119106D01*
X106241654Y-66121388D01*
X106241643Y-66121393D01*
X106051249Y-66210176D01*
X106051245Y-66210178D01*
X106046339Y-66212466D01*
X106041906Y-66215569D01*
X106041899Y-66215574D01*
X105869815Y-66336068D01*
X105869810Y-66336071D01*
X105865380Y-66339174D01*
X105861556Y-66342997D01*
X105861550Y-66343003D01*
X105713003Y-66491550D01*
X105712997Y-66491556D01*
X105709174Y-66495380D01*
X105706071Y-66499810D01*
X105706068Y-66499815D01*
X105585574Y-66671899D01*
X105585569Y-66671906D01*
X105582466Y-66676339D01*
X105580178Y-66681245D01*
X105580176Y-66681249D01*
X105522382Y-66805189D01*
X105476625Y-66857365D01*
X105410000Y-66876784D01*
X105343375Y-66857365D01*
X105297618Y-66805189D01*
X105282194Y-66772112D01*
X105237534Y-66676339D01*
X105162925Y-66569785D01*
X105146239Y-66535949D01*
X105140500Y-66498662D01*
X105140500Y-62695783D01*
X105149939Y-62648330D01*
X105176819Y-62608102D01*
X108328102Y-59456819D01*
X108368330Y-59429939D01*
X108415783Y-59420500D01*
X170035858Y-59420500D01*
X170084670Y-59430512D01*
X170125601Y-59458930D01*
X170152039Y-59501164D01*
X170156204Y-59512331D01*
X170242454Y-59627546D01*
X170357669Y-59713796D01*
X170492517Y-59764091D01*
X170552127Y-59770500D01*
X172347872Y-59770499D01*
X172407483Y-59764091D01*
X172542331Y-59713796D01*
X172657546Y-59627546D01*
X172743796Y-59512331D01*
X172794091Y-59377483D01*
X172800500Y-59317873D01*
X172800499Y-57522128D01*
X172794091Y-57462517D01*
X172743796Y-57327669D01*
X172657546Y-57212454D01*
X172542331Y-57126204D01*
X172407483Y-57075909D01*
X172399770Y-57075079D01*
X172399767Y-57075079D01*
X172351180Y-57069855D01*
X172351169Y-57069854D01*
X172347873Y-57069500D01*
X172344550Y-57069500D01*
X170555439Y-57069500D01*
X170555420Y-57069500D01*
X170552128Y-57069501D01*
X170548850Y-57069853D01*
X170548838Y-57069854D01*
X170500231Y-57075079D01*
X170500225Y-57075080D01*
X170492517Y-57075909D01*
X170485252Y-57078618D01*
X170485246Y-57078620D01*
X170365980Y-57123104D01*
X170365978Y-57123104D01*
X170357669Y-57126204D01*
X170350572Y-57131516D01*
X170350568Y-57131519D01*
X170249550Y-57207141D01*
X170249546Y-57207144D01*
X170242454Y-57212454D01*
X170237144Y-57219546D01*
X170237141Y-57219550D01*
X170161519Y-57320568D01*
X170161516Y-57320572D01*
X170156204Y-57327669D01*
X170153104Y-57335978D01*
X170153105Y-57335978D01*
X170152040Y-57338834D01*
X170125601Y-57381070D01*
X170084670Y-57409488D01*
X170035858Y-57419500D01*
X107964278Y-57419500D01*
X107961137Y-57419460D01*
X107879924Y-57417402D01*
X107879921Y-57417402D01*
X107873637Y-57417243D01*
X107867453Y-57418351D01*
X107867443Y-57418352D01*
X107815578Y-57427648D01*
X107806251Y-57428957D01*
X107753816Y-57434289D01*
X107753806Y-57434290D01*
X107747562Y-57434926D01*
X107741566Y-57436807D01*
X107741562Y-57436808D01*
X107718526Y-57444035D01*
X107703290Y-57447774D01*
X107679544Y-57452030D01*
X107679530Y-57452033D01*
X107673348Y-57453142D01*
X107667513Y-57455472D01*
X107667501Y-57455476D01*
X107618572Y-57475020D01*
X107609701Y-57478179D01*
X107559413Y-57493957D01*
X107559403Y-57493960D01*
X107553412Y-57495841D01*
X107547916Y-57498890D01*
X107547912Y-57498893D01*
X107526820Y-57510600D01*
X107512646Y-57517331D01*
X107490225Y-57526287D01*
X107490213Y-57526292D01*
X107484383Y-57528622D01*
X107479136Y-57532079D01*
X107479136Y-57532080D01*
X107435122Y-57561087D01*
X107427065Y-57565967D01*
X107375498Y-57594591D01*
X107370734Y-57598680D01*
X107370719Y-57598691D01*
X107352405Y-57614413D01*
X107339883Y-57623855D01*
X107319732Y-57637136D01*
X107319721Y-57637144D01*
X107314482Y-57640598D01*
X107310038Y-57645041D01*
X107310034Y-57645045D01*
X107272781Y-57682297D01*
X107265875Y-57688698D01*
X107225875Y-57723038D01*
X107225869Y-57723043D01*
X107221105Y-57727134D01*
X107217260Y-57732100D01*
X107217260Y-57732101D01*
X107202480Y-57751195D01*
X107192108Y-57762970D01*
X103442646Y-61512432D01*
X103440398Y-61514624D01*
X103376947Y-61574941D01*
X103373359Y-61580095D01*
X103373352Y-61580104D01*
X103343244Y-61623361D01*
X103337574Y-61630881D01*
X103304274Y-61671721D01*
X103304271Y-61671724D01*
X103300302Y-61676593D01*
X103297396Y-61682155D01*
X103297388Y-61682168D01*
X103286210Y-61703566D01*
X103278082Y-61716982D01*
X103264300Y-61736784D01*
X103264295Y-61736792D01*
X103260705Y-61741951D01*
X103258228Y-61747721D01*
X103258225Y-61747728D01*
X103237439Y-61796165D01*
X103233399Y-61804671D01*
X103206091Y-61856951D01*
X103204363Y-61862989D01*
X103204360Y-61862997D01*
X103197720Y-61886201D01*
X103192459Y-61900978D01*
X103182942Y-61923157D01*
X103180460Y-61928942D01*
X103179194Y-61935097D01*
X103179192Y-61935107D01*
X103168587Y-61986712D01*
X103166342Y-61995859D01*
X103151842Y-62046534D01*
X103151839Y-62046547D01*
X103150113Y-62052582D01*
X103149636Y-62058842D01*
X103149635Y-62058849D01*
X103147801Y-62082929D01*
X103145622Y-62098463D01*
X103140766Y-62122097D01*
X103139500Y-62128259D01*
X103139500Y-62134550D01*
X103139500Y-62187241D01*
X103139142Y-62196656D01*
X103135140Y-62249205D01*
X103135140Y-62249210D01*
X103134663Y-62255476D01*
X103135456Y-62261709D01*
X103135457Y-62261715D01*
X103138506Y-62285651D01*
X103139500Y-62301317D01*
X103139500Y-66498662D01*
X103133761Y-66535949D01*
X103117075Y-66569785D01*
X103045574Y-66671899D01*
X103045569Y-66671906D01*
X103042466Y-66676339D01*
X103040178Y-66681245D01*
X103040176Y-66681249D01*
X102951393Y-66871643D01*
X102951388Y-66871654D01*
X102949106Y-66876550D01*
X102947706Y-66881772D01*
X102947705Y-66881777D01*
X102893331Y-67084699D01*
X102893328Y-67084711D01*
X102891930Y-67089932D01*
X102891458Y-67095321D01*
X102891457Y-67095330D01*
X102873386Y-67301890D01*
X102872677Y-67310000D01*
X96520500Y-67310000D01*
X96520500Y-53464500D01*
X96537113Y-53402500D01*
X96582500Y-53357113D01*
X96644500Y-53340500D01*
X182755500Y-53340500D01*
X182817500Y-53357113D01*
G37*
%TD.AperFunction*%
%TD*%
M02*
