M48
; DRILL file {KiCad (7.0.0)} date Wed Mar 22 11:52:10 2023
; FORMAT={-:-/ absolute / inch / decimal}
; #@! TF.CreationDate,2023-03-22T11:52:10+01:00
; #@! TF.GenerationSoftware,Kicad,Pcbnew,(7.0.0)
; #@! TF.FileFunction,Plated,1,2,PTH
FMAT,2
INCH
; #@! TA.AperFunction,Plated,PTH,ComponentDrill
T1C0.0300
; #@! TA.AperFunction,Plated,PTH,ComponentDrill
T2C0.0394
%
G90
G05
T1
X4.1Y-2.65
X4.1Y-3.15
X4.2Y-2.65
X4.2Y-3.15
X4.3Y-2.65
X4.3Y-3.15
X4.3478Y-3.7368
X4.3478Y-3.8368
X4.3478Y-3.9368
X4.3478Y-4.0368
X4.4Y-2.65
X4.4Y-3.15
X4.5Y-2.65
X4.5Y-3.15
X4.6Y-2.65
X4.6Y-3.15
X4.7Y-2.65
X4.7Y-3.15
X4.8Y-2.65
X4.8Y-3.15
X4.9Y-2.65
X4.9Y-3.15
X5.0Y-2.65
X5.0Y-3.15
X5.5478Y-3.7368
X5.5478Y-3.8368
X5.5478Y-3.9368
T2
X6.75Y-2.3
X6.75Y-2.75
X6.75Y-2.85
X6.75Y-2.95
X6.75Y-3.05
X6.75Y-3.7004
X6.75Y-3.8004
X6.75Y-3.9004
X6.75Y-4.0004
T0
M30
