%TF.GenerationSoftware,KiCad,Pcbnew,6.0.6*%
%TF.CreationDate,2022-07-12T15:38:03+02:00*%
%TF.ProjectId,pcb_rs485,7063625f-7273-4343-9835-2e6b69636164,rev?*%
%TF.SameCoordinates,Original*%
%TF.FileFunction,Profile,NP*%
%FSLAX46Y46*%
G04 Gerber Fmt 4.6, Leading zero omitted, Abs format (unit mm)*
G04 Created by KiCad (PCBNEW 6.0.6) date 2022-07-12 15:38:03*
%MOMM*%
%LPD*%
G01*
G04 APERTURE LIST*
%TA.AperFunction,Profile*%
%ADD10C,0.200000*%
%TD*%
G04 APERTURE END LIST*
D10*
G36*
X149860000Y-104140000D02*
G01*
X149860000Y-113030000D01*
X148590000Y-114300000D01*
X148590000Y-109220000D01*
X147320000Y-109220000D01*
X146050000Y-111760000D01*
X144780000Y-109220000D01*
X143510000Y-109220000D01*
X143510000Y-114300000D01*
X142240000Y-113030000D01*
X142240000Y-104140000D01*
X143510000Y-102870000D01*
X143510000Y-107950000D01*
X144780000Y-107950000D01*
X144780000Y-106680000D01*
X146050000Y-104140000D01*
X147320000Y-106680000D01*
X147320000Y-107950000D01*
X148590000Y-107950000D01*
X148590000Y-102870000D01*
X149860000Y-104140000D01*
G37*
X149860000Y-104140000D02*
X149860000Y-113030000D01*
X148590000Y-114300000D01*
X148590000Y-109220000D01*
X147320000Y-109220000D01*
X146050000Y-111760000D01*
X144780000Y-109220000D01*
X143510000Y-109220000D01*
X143510000Y-114300000D01*
X142240000Y-113030000D01*
X142240000Y-104140000D01*
X143510000Y-102870000D01*
X143510000Y-107950000D01*
X144780000Y-107950000D01*
X144780000Y-106680000D01*
X146050000Y-104140000D01*
X147320000Y-106680000D01*
X147320000Y-107950000D01*
X148590000Y-107950000D01*
X148590000Y-102870000D01*
X149860000Y-104140000D01*
M02*
