M48
; DRILL file {KiCad 6.0.6} date mar. 12 juil. 2022 15:38:31
; FORMAT={-:-/ absolute / inch / decimal}
; #@! TF.CreationDate,2022-07-12T15:38:31+02:00
; #@! TF.GenerationSoftware,Kicad,Pcbnew,6.0.6
; #@! TF.FileFunction,Plated,1,2,PTH
FMAT,2
INCH
; #@! TA.AperFunction,Plated,PTH,ComponentDrill
T1C0.0300
; #@! TA.AperFunction,Plated,PTH,ComponentDrill
T2C0.0394
; #@! TA.AperFunction,Plated,PTH,ComponentDrill
T3C0.0472
%
G90
G05
T1
X4.9Y-4.15
X4.9Y-4.25
X4.9Y-4.35
X4.9Y-4.45
X6.6Y-4.15
X6.6Y-4.25
X6.6Y-4.35
X6.6Y-4.45
X6.9Y-3.5537
X6.9Y-3.6537
X6.9Y-3.7537
X6.9Y-3.8537
X6.9Y-3.9537
X6.9Y-4.0537
X6.9Y-4.1537
X6.9Y-4.2537
X6.9Y-4.3537
X6.9Y-4.4537
X7.4Y-3.5537
X7.4Y-3.6537
X7.4Y-3.7537
X7.4Y-3.8537
X7.4Y-3.9537
X7.4Y-4.0537
X7.4Y-4.1537
X7.4Y-4.2537
X7.4Y-4.3537
X7.4Y-4.4537
T2
X5.0Y-3.55
X5.1Y-3.55
X5.3464Y-3.8
X5.5432Y-3.8
X6.5Y-3.65
X6.6Y-3.65
X7.6Y-3.6494
X7.6Y-3.7494
X7.6Y-3.8494
T3
X5.75Y-3.65
X6.25Y-3.65
T0
M30
